<svg viewBox="0 0 265 150" xmlns="http://www.w3.org/2000/svg">
  <rect width="265" height="150" fill="#2a5c52"/>
  <!-- Y axis -->
  <line x1="25" y1="20" x2="25" y2="130" stroke="rgba(255,255,255,0.25)" stroke-width="1"/>
  <!-- X axis -->
  <line x1="25" y1="130" x2="240" y2="130" stroke="rgba(255,255,255,0.25)" stroke-width="1"/>
  <!-- Y axis label -->
  <text x="5" y="78" font-family="Space Mono, monospace" font-size="6" fill="rgba(255,255,255,0.5)" transform="rotate(-90, 8, 78)">p(θ)</text>
  <!-- Y axis ticks -->
  <line x1="22" y1="40" x2="25" y2="40" stroke="rgba(255,255,255,0.2)" stroke-width="1"/>
  <line x1="22" y1="75" x2="25" y2="75" stroke="rgba(255,255,255,0.2)" stroke-width="1"/>
  <line x1="22" y1="110" x2="25" y2="110" stroke="rgba(255,255,255,0.2)" stroke-width="1"/>
  <!-- Prior (dashed) -->
  <path d="M25.0,130.0 L25.0,105.7 L27.2,103.9 L29.3,102.1 L31.5,100.3 L33.7,98.4 L35.9,96.5 L38.0,94.7 L40.2,92.8 L42.4,91.0 L44.5,89.2 L46.7,87.5 L48.9,85.8 L51.1,84.2 L53.2,82.7 L55.4,81.3 L57.6,80.0 L59.7,78.8 L61.9,77.8 L64.1,76.9 L66.3,76.2 L68.4,75.7 L70.6,75.3 L72.8,75.1 L74.9,75.0 L77.1,75.1 L79.3,75.4 L81.5,75.9 L83.6,76.5 L85.8,77.3 L88.0,78.3 L90.2,79.3 L92.3,80.6 L94.5,81.9 L96.7,83.4 L98.8,84.9 L101.0,86.5 L103.2,88.2 L105.4,90.0 L107.5,91.8 L109.7,93.7 L111.9,95.5 L114.0,97.4 L116.2,99.3 L118.4,101.1 L120.6,103.0 L122.7,104.7 L124.9,106.5 L127.1,108.2 L129.2,109.8 L131.4,111.4 L133.6,112.9 L135.8,114.3 L137.9,115.7 L140.1,117.0 L142.3,118.2 L144.4,119.3 L146.6,120.3 L148.8,121.3 L151.0,122.2 L153.1,123.0 L155.3,123.8 L157.5,124.5 L159.6,125.1 L161.8,125.7 L164.0,126.2 L166.2,126.7 L168.3,127.1 L170.5,127.5 L172.7,127.8 L174.8,128.1 L177.0,128.4 L179.2,128.6 L181.4,128.8 L183.5,129.0 L185.7,129.1 L187.9,129.3 L190.1,129.4 L192.2,129.5 L194.4,129.5 L196.6,129.6 L198.7,129.7 L200.9,129.7 L203.1,129.8 L205.3,129.8 L207.4,129.8 L209.6,129.9 L211.8,129.9 L213.9,129.9 L216.1,129.9 L218.3,129.9 L220.5,130.0 L222.6,130.0 L224.8,130.0 L227.0,130.0 L229.1,130.0 L231.3,130.0 L233.5,130.0 L235.7,130.0 L237.8,130.0 L240.0,130.0 L240.0,130.0" stroke="rgba(91,191,173,0.45)" stroke-width="1.8" stroke-dasharray="8,5" fill="rgba(91,191,173,0.04)"/>
  <!-- Likelihood (solid cream) -->
  <path d="M25.0,130.0 L25.0,125.1 L27.2,124.6 L29.3,124.1 L31.5,123.6 L33.7,123.0 L35.9,122.4 L38.0,121.8 L40.2,121.1 L42.4,120.4 L44.5,119.7 L46.7,118.9 L48.9,118.1 L51.1,117.3 L53.2,116.4 L55.4,115.5 L57.6,114.6 L59.7,113.7 L61.9,112.7 L64.1,111.8 L66.3,110.8 L68.4,109.8 L70.6,108.8 L72.8,107.8 L74.9,106.8 L77.1,105.7 L79.3,104.8 L81.5,103.8 L83.6,102.8 L85.8,101.9 L88.0,101.0 L90.2,100.1 L92.3,99.3 L94.5,98.5 L96.7,97.7 L98.8,97.0 L101.0,96.4 L103.2,95.8 L105.4,95.3 L107.5,94.9 L109.7,94.5 L111.9,94.2 L114.0,93.9 L116.2,93.8 L118.4,93.7 L120.6,93.7 L122.7,93.8 L124.9,93.9 L127.1,94.1 L129.2,94.4 L131.4,94.8 L133.6,95.3 L135.8,95.8 L137.9,96.3 L140.1,97.0 L142.3,97.6 L144.4,98.4 L146.6,99.2 L148.8,100.0 L151.0,100.9 L153.1,101.8 L155.3,102.7 L157.5,103.7 L159.6,104.6 L161.8,105.6 L164.0,106.6 L166.2,107.6 L168.3,108.6 L170.5,109.7 L172.7,110.7 L174.8,111.6 L177.0,112.6 L179.2,113.6 L181.4,114.5 L183.5,115.4 L185.7,116.3 L187.9,117.2 L190.1,118.0 L192.2,118.8 L194.4,119.6 L196.6,120.3 L198.7,121.0 L200.9,121.7 L203.1,122.4 L205.3,123.0 L207.4,123.5 L209.6,124.1 L211.8,124.6 L213.9,125.0 L216.1,125.5 L218.3,125.9 L220.5,126.3 L222.6,126.6 L224.8,126.9 L227.0,127.2 L229.1,127.5 L231.3,127.8 L233.5,128.0 L235.7,128.2 L237.8,128.4 L240.0,128.6 L240.0,130.0" stroke="rgba(232,220,200,0.5)" stroke-width="2" fill="rgba(232,220,200,0.05)"/>
  <!-- Posterior (dotted teal) -->
  <path d="M25.0,130.0 L25.0,130.0 L27.2,130.0 L29.3,130.0 L31.5,130.0 L33.7,130.0 L35.9,130.0 L38.0,130.0 L40.2,130.0 L42.4,130.0 L44.5,130.0 L46.7,130.0 L48.9,130.0 L51.1,130.0 L53.2,130.0 L55.4,130.0 L57.6,130.0 L59.7,130.0 L61.9,130.0 L64.1,130.0 L66.3,130.0 L68.4,130.0 L70.6,130.0 L72.8,130.0 L74.9,130.0 L77.1,129.9 L79.3,129.9 L81.5,129.8 L83.6,129.6 L85.8,129.4 L88.0,129.1 L90.2,128.6 L92.3,127.9 L94.5,127.0 L96.7,125.7 L98.8,124.0 L101.0,121.7 L103.2,118.9 L105.4,115.5 L107.5,111.4 L109.7,106.6 L111.9,101.2 L114.0,95.3 L116.2,89.0 L118.4,82.5 L120.6,76.2 L122.7,70.3 L124.9,65.1 L127.1,60.9 L129.2,58.0 L131.4,56.5 L133.6,56.5 L135.8,58.0 L137.9,60.9 L140.1,65.1 L142.3,70.3 L144.4,76.2 L146.6,82.5 L148.8,89.0 L151.0,95.3 L153.1,101.2 L155.3,106.6 L157.5,111.4 L159.6,115.5 L161.8,118.9 L164.0,121.7 L166.2,124.0 L168.3,125.7 L170.5,127.0 L172.7,127.9 L174.8,128.6 L177.0,129.1 L179.2,129.4 L181.4,129.6 L183.5,129.8 L185.7,129.9 L187.9,129.9 L190.1,130.0 L192.2,130.0 L194.4,130.0 L196.6,130.0 L198.7,130.0 L200.9,130.0 L203.1,130.0 L205.3,130.0 L207.4,130.0 L209.6,130.0 L211.8,130.0 L213.9,130.0 L216.1,130.0 L218.3,130.0 L220.5,130.0 L222.6,130.0 L224.8,130.0 L227.0,130.0 L229.1,130.0 L231.3,130.0 L233.5,130.0 L235.7,130.0 L237.8,130.0 L240.0,130.0 L240.0,130.0" stroke="rgba(91,191,173,0.6)" stroke-width="2" stroke-dasharray="3,3" fill="rgba(91,191,173,0.06)"/>
  <!-- X axis ticks -->
  <line x1="75" y1="128" x2="75" y2="134" stroke="rgba(255,255,255,0.2)" stroke-width="1"/>
  <line x1="130" y1="128" x2="130" y2="134" stroke="rgba(255,255,255,0.2)" stroke-width="1"/>
  <line x1="175" y1="128" x2="175" y2="134" stroke="rgba(255,255,255,0.2)" stroke-width="1"/>
  <!-- θ label -->
  <text x="125" y="145" font-family="Space Mono, monospace" font-size="9" fill="rgba(255,255,255,0.5)">θ</text>
</svg>