<svg viewBox="0 0 250 210" xmlns="http://www.w3.org/2000/svg">
  <rect width="250" height="210" fill="#2a5c52"/>
  <!-- Y axis -->
  <line x1="25" y1="20" x2="25" y2="190" stroke="rgba(255,255,255,0.25)" stroke-width="1"/>
  <!-- X axis -->
  <line x1="25" y1="190" x2="240" y2="190" stroke="rgba(255,255,255,0.25)" stroke-width="1"/>
  <!-- Year labels -->
  <line x1="68" y1="188" y2="194" x2="68" stroke="rgba(255,255,255,0.2)" stroke-width="1"/>
  <text x="68" y="202" font-family="Space Mono, monospace" font-size="6" fill="rgba(255,255,255,0.5)" text-anchor="middle">1910</text>
  <line x1="111" y1="188" y2="194" x2="111" stroke="rgba(255,255,255,0.2)" stroke-width="1"/>
  <text x="111" y="202" font-family="Space Mono, monospace" font-size="6" fill="rgba(255,255,255,0.5)" text-anchor="middle">1930</text>
  <line x1="154" y1="188" y2="194" x2="154" stroke="rgba(255,255,255,0.2)" stroke-width="1"/>
  <text x="154" y="202" font-family="Space Mono, monospace" font-size="6" fill="rgba(255,255,255,0.5)" text-anchor="middle">1950</text>
  <line x1="197" y1="188" y2="194" x2="197" stroke="rgba(255,255,255,0.2)" stroke-width="1"/>
  <text x="197" y="202" font-family="Space Mono, monospace" font-size="6" fill="rgba(255,255,255,0.5)" text-anchor="middle">1970</text>
  <line x1="233" y1="188" y2="194" x2="233" stroke="rgba(255,255,255,0.2)" stroke-width="1"/>
  <text x="233" y="202" font-family="Space Mono, monospace" font-size="6" fill="rgba(255,255,255,0.5)" text-anchor="middle">1990</text>
  <!-- Y axis label -->
  <text x="5" y="110" font-family="Space Mono, monospace" font-size="6" fill="rgba(255,255,255,0.5)" transform="rotate(-90, 8, 110)">ΔT (°C)</text>
<!-- ========== CMIP6 MODEL TIMESERIES (real data, 27 models) ========== -->
            <!-- Zero anomaly baseline -->
            <line x1="25" y1="108.0" x2="240" y2="108.0" stroke="rgba(255,255,255,0.06)" stroke-width="0.5" stroke-dasharray="3,3"/>
            <path d="M28.0,102.7 L30.1,107.9 L32.2,123.4 L34.3,116.5 L36.4,118.9 L38.5,112.0 L40.6,125.0 L42.7,118.5 L44.8,130.2 L46.9,110.0 L49.0,107.4 L51.1,131.2 L53.2,135.4 L55.3,150.3 L57.4,130.2 L59.5,114.6 L61.6,139.8 L63.7,115.5 L65.8,115.9 L67.9,124.6 L70.0,124.1 L72.1,134.4 L74.2,110.0 L76.3,113.4 L78.4,106.4 L80.5,118.9 L82.6,104.7 L84.7,114.4 L86.8,108.4 L88.9,109.7 L91.0,120.9 L93.1,100.6 L95.2,103.2 L97.3,79.1 L99.4,94.0 L101.5,91.5 L103.6,109.5 L105.7,106.0 L107.8,95.7 L109.9,97.4 L112.0,94.2 L114.1,93.8 L116.2,94.9 L118.3,88.3 L120.4,84.8 L122.5,92.6 L124.6,98.3 L126.7,103.0 L128.8,85.7 L130.9,113.9 L133.1,110.0 L135.2,102.2 L137.3,104.3 L139.4,106.6 L141.5,97.2 L143.6,111.4 L145.7,104.7 L147.8,111.9 L149.9,93.3 L152.0,94.2 L154.1,97.5 L156.2,98.2 L158.3,120.6 L160.4,128.2 L162.5,128.4 L164.6,138.9 L166.7,129.0 L168.8,114.3 L170.9,109.9 L173.0,116.2 L175.1,107.6 L177.2,107.9 L179.3,97.5 L181.4,121.7 L183.5,126.1 L185.6,104.7 L187.7,96.1 L189.8,104.0 L191.9,90.0 L194.0,101.1 L196.1,107.3 L198.2,112.7 L200.3,120.7 L202.4,93.8 L204.5,92.9 L206.6,79.0 L208.7,110.8 L210.8,105.2 L212.9,95.6 L215.0,83.1 L217.1,85.9 L219.2,122.8 L221.3,115.3 L223.4,93.3 L225.5,98.6 L227.6,81.3 L229.7,87.8 L231.8,76.9 L233.9,73.3 L236.0,55.9" stroke="rgba(147,147,147,0.25)" stroke-width="0.5" fill="none" stroke-linecap="round" stroke-linejoin="round"/>  <!-- ACCESS-CM2 -->
            <path d="M28.0,109.5 L30.1,114.9 L32.2,124.3 L34.3,128.7 L36.4,130.0 L38.5,117.1 L40.6,117.3 L42.7,109.9 L44.8,119.1 L46.9,111.9 L49.0,96.9 L51.1,108.7 L53.2,125.3 L55.3,110.6 L57.4,101.2 L59.5,93.9 L61.6,105.8 L63.7,105.5 L65.8,117.3 L67.9,116.8 L70.0,95.7 L72.1,118.9 L74.2,125.5 L76.3,114.0 L78.4,109.2 L80.5,105.1 L82.6,99.3 L84.7,113.4 L86.8,113.8 L88.9,96.2 L91.0,102.2 L93.1,103.7 L95.2,110.8 L97.3,111.3 L99.4,104.8 L101.5,104.7 L103.6,102.2 L105.7,107.7 L107.8,114.0 L109.9,111.3 L112.0,113.1 L114.1,105.9 L116.2,109.5 L118.3,98.1 L120.4,94.1 L122.5,108.6 L124.6,114.6 L126.7,95.5 L128.8,99.3 L130.9,121.5 L133.1,109.5 L135.2,100.5 L137.3,115.7 L139.4,108.4 L141.5,91.9 L143.6,112.1 L145.7,125.1 L147.8,120.0 L149.9,116.4 L152.0,123.9 L154.1,115.9 L156.2,111.7 L158.3,94.4 L160.4,122.3 L162.5,117.5 L164.6,114.2 L166.7,127.1 L168.8,125.9 L170.9,106.9 L173.0,114.1 L175.1,119.4 L177.2,113.0 L179.3,111.5 L181.4,111.5 L183.5,118.2 L185.6,117.9 L187.7,96.5 L189.8,103.9 L191.9,94.2 L194.0,94.8 L196.1,100.6 L198.2,110.8 L200.3,104.3 L202.4,99.7 L204.5,105.7 L206.6,106.1 L208.7,106.9 L210.8,100.3 L212.9,89.6 L215.0,84.0 L217.1,90.7 L219.2,110.6 L221.3,95.8 L223.4,104.0 L225.5,100.5 L227.6,70.0 L229.7,76.8 L231.8,52.3 L233.9,51.1 L236.0,61.4" stroke="rgba(159,159,159,0.26)" stroke-width="0.6" fill="none" stroke-linecap="round" stroke-linejoin="round"/>  <!-- ACCESS-ESM1-5 -->
            <path d="M28.0,119.9 L30.1,122.1 L32.2,146.3 L34.3,138.8 L36.4,142.1 L38.5,134.3 L40.6,136.1 L42.7,143.6 L44.8,138.9 L46.9,121.3 L49.0,116.4 L51.1,155.7 L53.2,160.0 L55.3,156.7 L57.4,141.0 L59.5,124.8 L61.6,133.0 L63.7,129.7 L65.8,129.3 L67.9,118.0 L70.0,108.5 L72.1,136.9 L74.2,125.4 L76.3,108.4 L78.4,102.9 L80.5,131.6 L82.6,127.5 L84.7,133.3 L86.8,124.9 L88.9,122.2 L91.0,118.4 L93.1,119.8 L95.2,128.1 L97.3,113.9 L99.4,111.6 L101.5,118.1 L103.6,121.7 L105.7,103.7 L107.8,113.7 L109.9,117.9 L112.0,117.5 L114.1,144.4 L116.2,115.7 L118.3,105.1 L120.4,96.5 L122.5,114.7 L124.6,115.1 L126.7,100.1 L128.8,119.8 L130.9,114.9 L133.1,111.7 L135.2,123.5 L137.3,113.1 L139.4,98.2 L141.5,104.3 L143.6,125.2 L145.7,110.1 L147.8,119.5 L149.9,116.2 L152.0,115.9 L154.1,102.8 L156.2,107.2 L158.3,97.9 L160.4,112.0 L162.5,110.9 L164.6,118.4 L166.7,126.5 L168.8,104.8 L170.9,88.9 L173.0,95.4 L175.1,122.1 L177.2,113.4 L179.3,128.1 L181.4,122.3 L183.5,130.9 L185.6,111.6 L187.7,101.0 L189.8,124.8 L191.9,100.8 L194.0,105.6 L196.1,94.2 L198.2,111.0 L200.3,122.3 L202.4,117.9 L204.5,109.5 L206.6,102.4 L208.7,89.7 L210.8,100.1 L212.9,83.4 L215.0,82.7 L217.1,99.8 L219.2,118.8 L221.3,119.6 L223.4,91.4 L225.5,79.7 L227.6,68.8 L229.7,91.1 L231.8,68.6 L233.9,77.0 L236.0,56.6" stroke="rgba(149,149,149,0.41)" stroke-width="0.5" fill="none" stroke-linecap="round" stroke-linejoin="round"/>  <!-- AWI-CM-1-1-MR -->
            <path d="M28.0,110.8 L30.1,132.9 L32.2,141.0 L34.3,121.8 L36.4,130.1 L38.5,134.8 L40.6,129.0 L42.7,113.7 L44.8,116.1 L46.9,122.6 L49.0,124.7 L51.1,126.2 L53.2,141.9 L55.3,107.6 L57.4,105.6 L59.5,129.1 L61.6,105.5 L63.7,99.6 L65.8,107.4 L67.9,127.5 L70.0,116.6 L72.1,120.2 L74.2,117.1 L76.3,119.1 L78.4,125.0 L80.5,109.9 L82.6,105.2 L84.7,112.0 L86.8,127.8 L88.9,102.6 L91.0,116.1 L93.1,115.2 L95.2,114.6 L97.3,123.8 L99.4,124.1 L101.5,126.0 L103.6,126.6 L105.7,109.1 L107.8,130.9 L109.9,119.0 L112.0,104.8 L114.1,108.9 L116.2,103.5 L118.3,102.7 L120.4,120.9 L122.5,116.4 L124.6,107.4 L126.7,124.9 L128.8,110.2 L130.9,115.8 L133.1,94.6 L135.2,110.8 L137.3,107.2 L139.4,112.5 L141.5,107.8 L143.6,106.4 L145.7,108.7 L147.8,101.2 L149.9,92.8 L152.0,104.4 L154.1,114.8 L156.2,102.3 L158.3,126.4 L160.4,134.1 L162.5,133.4 L164.6,107.0 L166.7,120.1 L168.8,114.5 L170.9,111.5 L173.0,107.8 L175.1,95.9 L177.2,129.5 L179.3,107.4 L181.4,101.7 L183.5,101.0 L185.6,117.3 L187.7,107.3 L189.8,93.1 L191.9,102.8 L194.0,108.5 L196.1,97.7 L198.2,91.4 L200.3,113.0 L202.4,99.2 L204.5,123.1 L206.6,103.4 L208.7,105.8 L210.8,93.0 L212.9,81.5 L215.0,94.4 L217.1,113.6 L219.2,141.2 L221.3,123.4 L223.4,99.4 L225.5,80.6 L227.6,105.2 L229.7,75.1 L231.8,79.5 L233.9,87.1 L236.0,67.9" stroke="rgba(178,178,178,0.37)" stroke-width="0.5" fill="none" stroke-linecap="round" stroke-linejoin="round"/>  <!-- BCC-CSM2-MR -->
            <path d="M28.0,108.5 L30.1,109.6 L32.2,125.3 L34.3,105.7 L36.4,121.8 L38.5,110.4 L40.6,115.1 L42.7,117.9 L44.8,119.8 L46.9,112.4 L49.0,108.9 L51.1,134.4 L53.2,131.6 L55.3,120.9 L57.4,138.8 L59.5,131.1 L61.6,133.2 L63.7,117.3 L65.8,102.5 L67.9,117.5 L70.0,113.2 L72.1,104.6 L74.2,103.4 L76.3,108.7 L78.4,95.7 L80.5,107.2 L82.6,100.5 L84.7,85.3 L86.8,89.3 L88.9,87.6 L91.0,122.4 L93.1,104.1 L95.2,84.9 L97.3,95.8 L99.4,84.6 L101.5,98.3 L103.6,95.6 L105.7,108.9 L107.8,105.1 L109.9,83.0 L112.0,109.5 L114.1,93.3 L116.2,106.0 L118.3,114.5 L120.4,109.2 L122.5,93.7 L124.6,115.5 L126.7,132.4 L128.8,110.5 L130.9,119.5 L133.1,100.9 L135.2,99.7 L137.3,98.5 L139.4,120.3 L141.5,94.7 L143.6,109.0 L145.7,124.6 L147.8,104.3 L149.9,93.5 L152.0,120.0 L154.1,132.9 L156.2,121.4 L158.3,119.4 L160.4,116.9 L162.5,118.1 L164.6,116.2 L166.7,127.3 L168.8,124.7 L170.9,121.7 L173.0,109.8 L175.1,87.6 L177.2,110.2 L179.3,123.3 L181.4,118.1 L183.5,122.1 L185.6,114.7 L187.7,105.2 L189.8,112.0 L191.9,98.8 L194.0,105.9 L196.1,98.8 L198.2,114.7 L200.3,108.9 L202.4,86.6 L204.5,95.8 L206.6,96.4 L208.7,83.2 L210.8,77.3 L212.9,86.3 L215.0,84.4 L217.1,78.1 L219.2,113.6 L221.3,89.2 L223.4,89.1 L225.5,104.4 L227.6,92.7 L229.7,66.5 L231.8,75.1 L233.9,79.6 L236.0,72.4" stroke="rgba(127,127,127,0.26)" stroke-width="0.6" fill="none" stroke-linecap="round" stroke-linejoin="round"/>  <!-- CESM2 -->
            <path d="M28.0,121.2 L30.1,138.2 L32.2,153.7 L34.3,158.1 L36.4,154.4 L38.5,151.3 L40.6,137.0 L42.7,142.2 L44.8,149.7 L46.9,139.7 L49.0,145.9 L51.1,154.6 L53.2,142.8 L55.3,130.3 L57.4,139.9 L59.5,147.0 L61.6,121.6 L63.7,151.9 L65.8,127.9 L67.9,125.4 L70.0,122.2 L72.1,132.5 L74.2,132.5 L76.3,138.2 L78.4,128.4 L80.5,138.4 L82.6,135.6 L84.7,149.8 L86.8,144.7 L88.9,148.5 L91.0,145.7 L93.1,142.0 L95.2,136.3 L97.3,123.0 L99.4,141.4 L101.5,155.3 L103.6,144.2 L105.7,134.1 L107.8,132.5 L109.9,132.0 L112.0,138.2 L114.1,117.4 L116.2,120.7 L118.3,144.0 L120.4,117.2 L122.5,108.8 L124.6,139.0 L126.7,135.0 L128.8,115.9 L130.9,110.7 L133.1,118.5 L135.2,113.4 L137.3,130.3 L139.4,141.7 L141.5,137.0 L143.6,133.4 L145.7,129.8 L147.8,119.0 L149.9,131.1 L152.0,139.6 L154.1,125.4 L156.2,122.2 L158.3,137.1 L160.4,114.9 L162.5,121.4 L164.6,123.7 L166.7,133.0 L168.8,109.6 L170.9,97.4 L173.0,118.0 L175.1,106.3 L177.2,117.7 L179.3,130.5 L181.4,116.4 L183.5,110.0 L185.6,117.2 L187.7,105.2 L189.8,107.5 L191.9,119.4 L194.0,83.1 L196.1,86.7 L198.2,97.9 L200.3,107.8 L202.4,111.2 L204.5,89.3 L206.6,95.9 L208.7,76.8 L210.8,80.0 L212.9,98.3 L215.0,78.8 L217.1,79.3 L219.2,91.7 L221.3,78.4 L223.4,79.5 L225.5,64.2 L227.6,80.3 L229.7,74.6 L231.8,69.3 L233.9,77.0 L236.0,69.9" stroke="rgba(154,154,154,0.54)" stroke-width="0.4" fill="none" stroke-linecap="round" stroke-linejoin="round"/>  <!-- CNRM-CM6-1 -->
            <path d="M28.0,104.6 L30.1,116.0 L32.2,122.5 L34.3,113.3 L36.4,140.3 L38.5,130.9 L40.6,104.7 L42.7,120.6 L44.8,112.4 L46.9,139.1 L49.0,121.9 L51.1,119.6 L53.2,141.6 L55.3,129.9 L57.4,126.9 L59.5,137.5 L61.6,131.3 L63.7,140.3 L65.8,117.8 L67.9,130.4 L70.0,108.8 L72.1,124.8 L74.2,117.4 L76.3,122.0 L78.4,132.4 L80.5,123.0 L82.6,123.1 L84.7,110.7 L86.8,124.8 L88.9,121.1 L91.0,112.5 L93.1,118.8 L95.2,123.8 L97.3,132.6 L99.4,121.7 L101.5,133.7 L103.6,122.8 L105.7,98.1 L107.8,136.3 L109.9,113.2 L112.0,119.6 L114.1,115.2 L116.2,133.9 L118.3,118.7 L120.4,131.1 L122.5,121.1 L124.6,121.5 L126.7,123.6 L128.8,126.2 L130.9,128.9 L133.1,136.0 L135.2,128.5 L137.3,123.6 L139.4,123.9 L141.5,118.6 L143.6,134.9 L145.7,119.1 L147.8,110.3 L149.9,120.7 L152.0,118.7 L154.1,109.0 L156.2,112.7 L158.3,130.2 L160.4,126.3 L162.5,123.2 L164.6,114.1 L166.7,86.7 L168.8,126.2 L170.9,98.0 L173.0,123.7 L175.1,102.9 L177.2,119.8 L179.3,104.9 L181.4,106.1 L183.5,126.1 L185.6,133.5 L187.7,127.1 L189.8,114.2 L191.9,100.0 L194.0,108.7 L196.1,97.6 L198.2,102.4 L200.3,123.1 L202.4,108.7 L204.5,96.3 L206.6,83.8 L208.7,90.9 L210.8,85.8 L212.9,82.7 L215.0,74.2 L217.1,87.9 L219.2,90.2 L221.3,98.4 L223.4,100.1 L225.5,90.7 L227.6,89.2 L229.7,76.0 L231.8,86.3 L233.9,73.4 L236.0,74.0" stroke="rgba(166,166,166,0.32)" stroke-width="0.7" fill="none" stroke-linecap="round" stroke-linejoin="round"/>  <!-- CNRM-ESM2-1 -->
            <path d="M28.0,122.6 L30.1,129.7 L32.2,142.4 L34.3,147.4 L36.4,155.7 L38.5,142.5 L40.6,141.2 L42.7,137.8 L44.8,126.3 L46.9,116.1 L49.0,124.1 L51.1,129.0 L53.2,143.7 L55.3,159.6 L57.4,143.9 L59.5,129.8 L61.6,126.6 L63.7,124.1 L65.8,117.4 L67.9,132.7 L70.0,124.3 L72.1,132.9 L74.2,137.3 L76.3,109.3 L78.4,103.9 L80.5,116.7 L82.6,124.8 L84.7,130.7 L86.8,114.7 L88.9,122.2 L91.0,129.9 L93.1,133.6 L95.2,126.2 L97.3,124.8 L99.4,122.0 L101.5,132.9 L103.6,118.3 L105.7,113.0 L107.8,122.9 L109.9,110.6 L112.0,101.1 L114.1,129.2 L116.2,122.9 L118.3,112.1 L120.4,125.8 L122.5,107.6 L124.6,117.6 L126.7,102.2 L128.8,99.3 L130.9,102.3 L133.1,111.6 L135.2,104.1 L137.3,126.7 L139.4,123.5 L141.5,116.8 L143.6,126.2 L145.7,127.5 L147.8,122.6 L149.9,114.0 L152.0,114.2 L154.1,98.4 L156.2,119.0 L158.3,144.1 L160.4,145.8 L162.5,118.2 L164.6,108.6 L166.7,117.9 L168.8,118.0 L170.9,117.4 L173.0,134.3 L175.1,135.2 L177.2,133.2 L179.3,111.5 L181.4,92.3 L183.5,105.5 L185.6,116.9 L187.7,93.2 L189.8,87.5 L191.9,118.4 L194.0,109.4 L196.1,101.5 L198.2,83.1 L200.3,95.2 L202.4,110.5 L204.5,95.8 L206.6,99.4 L208.7,83.0 L210.8,78.8 L212.9,91.4 L215.0,75.1 L217.1,75.3 L219.2,99.9 L221.3,114.0 L223.4,81.4 L225.5,70.1 L227.6,62.7 L229.7,66.2 L231.8,54.3 L233.9,44.2 L236.0,45.6" stroke="rgba(169,169,169,0.28)" stroke-width="0.5" fill="none" stroke-linecap="round" stroke-linejoin="round"/>  <!-- CanESM5 -->
            <path d="M28.0,102.3 L30.1,112.5 L32.2,131.8 L34.3,127.8 L36.4,119.2 L38.5,112.3 L40.6,97.8 L42.7,105.5 L44.8,119.3 L46.9,104.2 L49.0,109.3 L51.1,119.6 L53.2,102.5 L55.3,106.6 L57.4,109.9 L59.5,116.9 L61.6,102.5 L63.7,86.1 L65.8,75.7 L67.9,99.4 L70.0,88.5 L72.1,108.2 L74.2,91.9 L76.3,89.8 L78.4,98.8 L80.5,91.1 L82.6,99.1 L84.7,105.4 L86.8,105.6 L88.9,127.1 L91.0,123.0 L93.1,114.7 L95.2,128.0 L97.3,137.5 L99.4,120.5 L101.5,130.4 L103.6,114.2 L105.7,131.3 L107.8,119.9 L109.9,126.7 L112.0,111.1 L114.1,127.4 L116.2,124.5 L118.3,116.1 L120.4,121.6 L122.5,132.9 L124.6,146.7 L126.7,116.2 L128.8,124.8 L130.9,120.2 L133.1,123.5 L135.2,130.8 L137.3,94.0 L139.4,91.3 L141.5,119.9 L143.6,119.4 L145.7,91.7 L147.8,106.4 L149.9,90.1 L152.0,94.2 L154.1,101.6 L156.2,124.3 L158.3,129.9 L160.4,115.1 L162.5,132.5 L164.6,104.9 L166.7,127.2 L168.8,133.2 L170.9,131.6 L173.0,110.0 L175.1,123.1 L177.2,135.5 L179.3,113.1 L181.4,100.3 L183.5,99.8 L185.6,106.6 L187.7,91.8 L189.8,97.1 L191.9,106.8 L194.0,104.5 L196.1,90.6 L198.2,100.7 L200.3,141.5 L202.4,117.5 L204.5,85.3 L206.6,97.1 L208.7,74.3 L210.8,93.3 L212.9,80.9 L215.0,68.5 L217.1,69.8 L219.2,116.4 L221.3,90.5 L223.4,85.6 L225.5,70.4 L227.6,69.1 L229.7,44.6 L231.8,43.2 L233.9,51.6 L236.0,58.2" stroke="rgba(156,156,156,0.44)" stroke-width="0.5" fill="none" stroke-linecap="round" stroke-linejoin="round"/>  <!-- EC-Earth3 -->
            <path d="M28.0,137.0 L30.1,156.0 L32.2,173.2 L34.3,167.0 L36.4,170.3 L38.5,154.4 L40.6,142.2 L42.7,149.4 L44.8,148.2 L46.9,126.8 L49.0,133.5 L51.1,168.4 L53.2,162.3 L55.3,162.5 L57.4,163.3 L59.5,133.0 L61.6,157.1 L63.7,143.8 L65.8,136.9 L67.9,129.6 L70.0,135.3 L72.1,139.2 L74.2,154.8 L76.3,135.5 L78.4,131.4 L80.5,150.3 L82.6,128.0 L84.7,132.0 L86.8,136.7 L88.9,129.8 L91.0,113.0 L93.1,122.4 L95.2,145.7 L97.3,139.0 L99.4,132.9 L101.5,130.5 L103.6,134.0 L105.7,121.0 L107.8,129.0 L109.9,138.4 L112.0,121.7 L114.1,116.7 L116.2,113.5 L118.3,118.6 L120.4,118.6 L122.5,105.8 L124.6,129.9 L126.7,112.5 L128.8,121.7 L130.9,122.0 L133.1,119.1 L135.2,122.1 L137.3,108.0 L139.4,128.0 L141.5,132.2 L143.6,111.9 L145.7,122.2 L147.8,123.6 L149.9,117.6 L152.0,130.9 L154.1,112.4 L156.2,107.6 L158.3,132.3 L160.4,131.6 L162.5,123.4 L164.6,118.5 L166.7,130.1 L168.8,114.6 L170.9,105.5 L173.0,130.7 L175.1,123.9 L177.2,102.0 L179.3,104.4 L181.4,108.7 L183.5,114.2 L185.6,114.4 L187.7,101.7 L189.8,114.5 L191.9,85.0 L194.0,85.6 L196.1,104.7 L198.2,86.2 L200.3,109.0 L202.4,114.7 L204.5,91.8 L206.6,113.5 L208.7,104.9 L210.8,92.0 L212.9,80.2 L215.0,80.7 L217.1,76.8 L219.2,115.7 L221.3,138.5 L223.4,108.3 L225.5,110.1 L227.6,95.2 L229.7,72.7 L231.8,91.6 L233.9,77.2 L236.0,72.7" stroke="rgba(186,186,186,0.36)" stroke-width="0.7" fill="none" stroke-linecap="round" stroke-linejoin="round"/>  <!-- FGOALS-g3 -->
            <path d="M28.0,152.1 L30.1,144.8 L32.2,171.9 L34.3,140.5 L36.4,149.8 L38.5,144.0 L40.6,140.2 L42.7,139.4 L44.8,130.3 L46.9,116.4 L49.0,117.6 L51.1,160.7 L53.2,155.1 L55.3,139.9 L57.4,147.2 L59.5,138.7 L61.6,143.3 L63.7,138.8 L65.8,146.2 L67.9,143.7 L70.0,134.1 L72.1,130.2 L74.2,127.8 L76.3,144.0 L78.4,137.3 L80.5,139.0 L82.6,123.6 L84.7,119.1 L86.8,135.0 L88.9,118.0 L91.0,139.7 L93.1,137.5 L95.2,137.2 L97.3,127.4 L99.4,119.2 L101.5,135.4 L103.6,146.6 L105.7,131.9 L107.8,126.0 L109.9,125.3 L112.0,115.7 L114.1,119.0 L116.2,122.4 L118.3,124.1 L120.4,126.5 L122.5,126.1 L124.6,127.9 L126.7,125.1 L128.8,131.0 L130.9,110.4 L133.1,109.9 L135.2,124.0 L137.3,129.2 L139.4,129.8 L141.5,125.4 L143.6,123.2 L145.7,120.0 L147.8,110.4 L149.9,113.7 L152.0,100.2 L154.1,100.5 L156.2,129.0 L158.3,126.7 L160.4,137.1 L162.5,124.7 L164.6,122.3 L166.7,119.4 L168.8,118.9 L170.9,107.7 L173.0,101.9 L175.1,121.7 L177.2,123.9 L179.3,104.7 L181.4,114.6 L183.5,120.2 L185.6,109.1 L187.7,102.6 L189.8,110.4 L191.9,112.6 L194.0,105.4 L196.1,103.7 L198.2,106.5 L200.3,127.4 L202.4,90.6 L204.5,95.2 L206.6,102.4 L208.7,89.5 L210.8,86.8 L212.9,67.9 L215.0,55.8 L217.1,74.4 L219.2,97.9 L221.3,99.7 L223.4,83.4 L225.5,79.3 L227.6,71.1 L229.7,76.3 L231.8,85.0 L233.9,65.1 L236.0,53.7" stroke="rgba(129,129,129,0.54)" stroke-width="0.6" fill="none" stroke-linecap="round" stroke-linejoin="round"/>  <!-- FIO-ESM-2-0 -->
            <path d="M28.0,107.2 L30.1,108.0 L32.2,136.0 L34.3,108.2 L36.4,107.7 L38.5,117.9 L40.6,107.1 L42.7,106.3 L44.8,87.3 L46.9,86.3 L49.0,84.3 L51.1,119.9 L53.2,126.0 L55.3,108.3 L57.4,96.2 L59.5,94.6 L61.6,98.1 L63.7,93.5 L65.8,86.6 L67.9,75.8 L70.0,98.8 L72.1,95.7 L74.2,87.3 L76.3,97.0 L78.4,100.8 L80.5,110.3 L82.6,94.9 L84.7,87.6 L86.8,86.6 L88.9,99.3 L91.0,86.9 L93.1,88.5 L95.2,86.1 L97.3,97.7 L99.4,96.2 L101.5,95.3 L103.6,98.8 L105.7,94.5 L107.8,86.3 L109.9,83.6 L112.0,100.5 L114.1,109.0 L116.2,92.8 L118.3,93.5 L120.4,115.2 L122.5,111.6 L124.6,95.0 L126.7,102.2 L128.8,106.7 L130.9,98.1 L133.1,93.9 L135.2,104.9 L137.3,96.1 L139.4,85.0 L141.5,84.3 L143.6,102.6 L145.7,99.3 L147.8,99.1 L149.9,85.4 L152.0,92.8 L154.1,100.9 L156.2,98.5 L158.3,109.0 L160.4,126.4 L162.5,133.9 L164.6,110.6 L166.7,108.3 L168.8,109.0 L170.9,107.8 L173.0,117.6 L175.1,118.9 L177.2,93.7 L179.3,96.9 L181.4,103.1 L183.5,125.6 L185.6,110.0 L187.7,95.5 L189.8,115.3 L191.9,109.4 L194.0,111.0 L196.1,101.0 L198.2,93.7 L200.3,118.2 L202.4,126.4 L204.5,114.9 L206.6,103.9 L208.7,98.5 L210.8,102.6 L212.9,100.3 L215.0,77.7 L217.1,72.7 L219.2,132.4 L221.3,125.2 L223.4,104.4 L225.5,104.7 L227.6,93.5 L229.7,90.9 L231.8,78.1 L233.9,77.1 L236.0,68.7" stroke="rgba(137,137,137,0.39)" stroke-width="0.5" fill="none" stroke-linecap="round" stroke-linejoin="round"/>  <!-- GFDL-ESM4 -->
            <path d="M28.0,97.1 L30.1,96.5 L32.2,138.0 L34.3,141.3 L36.4,122.0 L38.5,118.6 L40.6,117.7 L42.7,108.6 L44.8,91.9 L46.9,117.4 L49.0,115.1 L51.1,127.3 L53.2,120.9 L55.3,111.8 L57.4,132.9 L59.5,120.1 L61.6,105.2 L63.7,95.5 L65.8,82.9 L67.9,103.6 L70.0,111.1 L72.1,122.4 L74.2,83.3 L76.3,104.3 L78.4,129.4 L80.5,109.5 L82.6,80.2 L84.7,118.8 L86.8,118.8 L88.9,109.3 L91.0,78.9 L93.1,81.6 L95.2,113.8 L97.3,116.7 L99.4,92.9 L101.5,98.8 L103.6,116.0 L105.7,71.1 L107.8,69.8 L109.9,94.9 L112.0,110.4 L114.1,111.7 L116.2,112.9 L118.3,89.8 L120.4,118.1 L122.5,89.6 L124.6,68.6 L126.7,102.5 L128.8,111.5 L130.9,111.6 L133.1,85.8 L135.2,81.3 L137.3,111.5 L139.4,117.0 L141.5,83.8 L143.6,95.4 L145.7,87.4 L147.8,97.9 L149.9,109.0 L152.0,85.2 L154.1,87.7 L156.2,128.5 L158.3,134.4 L160.4,123.9 L162.5,105.7 L164.6,131.2 L166.7,131.9 L168.8,98.6 L170.9,86.6 L173.0,110.5 L175.1,124.8 L177.2,129.4 L179.3,90.2 L181.4,113.5 L183.5,113.1 L185.6,109.4 L187.7,91.9 L189.8,98.6 L191.9,112.0 L194.0,87.3 L196.1,80.9 L198.2,110.9 L200.3,141.6 L202.4,116.2 L204.5,92.6 L206.6,110.4 L208.7,110.9 L210.8,81.2 L212.9,87.3 L215.0,97.3 L217.1,105.1 L219.2,111.8 L221.3,84.3 L223.4,75.6 L225.5,104.2 L227.6,85.8 L229.7,36.8 L231.8,53.2 L233.9,76.6 L236.0,76.0" stroke="rgba(139,139,139,0.51)" stroke-width="0.6" fill="none" stroke-linecap="round" stroke-linejoin="round"/>  <!-- GISS-E2-1-G -->
            <path d="M28.0,95.5 L30.1,113.9 L32.2,132.0 L34.3,107.4 L36.4,112.9 L38.5,117.0 L40.6,109.9 L42.7,115.6 L44.8,133.7 L46.9,128.6 L49.0,117.0 L51.1,117.2 L53.2,105.3 L55.3,104.6 L57.4,106.5 L59.5,107.0 L61.6,98.4 L63.7,98.2 L65.8,84.3 L67.9,90.5 L70.0,96.0 L72.1,96.9 L74.2,97.8 L76.3,88.5 L78.4,96.5 L80.5,89.8 L82.6,98.9 L84.7,89.9 L86.8,92.8 L88.9,109.9 L91.0,111.9 L93.1,106.2 L95.2,106.4 L97.3,98.5 L99.4,80.2 L101.5,98.8 L103.6,107.6 L105.7,88.7 L107.8,91.5 L109.9,91.9 L112.0,81.3 L114.1,92.7 L116.2,112.2 L118.3,102.8 L120.4,107.0 L122.5,96.7 L124.6,100.0 L126.7,106.2 L128.8,87.3 L130.9,108.9 L133.1,107.0 L135.2,95.2 L137.3,77.7 L139.4,90.5 L141.5,113.7 L143.6,89.7 L145.7,86.6 L147.8,91.1 L149.9,93.4 L152.0,90.2 L154.1,90.5 L156.2,99.4 L158.3,122.6 L160.4,121.6 L162.5,129.1 L164.6,120.0 L166.7,119.1 L168.8,109.8 L170.9,94.1 L173.0,119.7 L175.1,114.1 L177.2,99.6 L179.3,99.8 L181.4,105.9 L183.5,106.8 L185.6,129.8 L187.7,105.5 L189.8,110.6 L191.9,104.9 L194.0,107.5 L196.1,114.5 L198.2,110.2 L200.3,118.0 L202.4,95.3 L204.5,106.1 L206.6,106.1 L208.7,100.5 L210.8,104.5 L212.9,88.7 L215.0,84.6 L217.1,72.3 L219.2,97.8 L221.3,106.3 L223.4,111.7 L225.5,91.7 L227.6,90.7 L229.7,76.5 L231.8,79.8 L233.9,86.9 L236.0,71.4" stroke="rgba(132,132,132,0.45)" stroke-width="0.6" fill="none" stroke-linecap="round" stroke-linejoin="round"/>  <!-- HadGEM3-GC31-LL -->
            <path d="M28.0,121.4 L30.1,121.1 L32.2,137.4 L34.3,150.1 L36.4,129.5 L38.5,122.4 L40.6,123.7 L42.7,115.5 L44.8,120.4 L46.9,113.9 L49.0,115.1 L51.1,129.1 L53.2,139.4 L55.3,127.3 L57.4,116.0 L59.5,128.2 L61.6,106.3 L63.7,116.1 L65.8,114.2 L67.9,102.7 L70.0,106.5 L72.1,108.7 L74.2,108.2 L76.3,107.8 L78.4,103.9 L80.5,117.1 L82.6,110.5 L84.7,109.6 L86.8,97.2 L88.9,95.4 L91.0,112.5 L93.1,103.3 L95.2,107.2 L97.3,112.0 L99.4,100.0 L101.5,106.2 L103.6,110.5 L105.7,111.4 L107.8,108.0 L109.9,105.5 L112.0,108.6 L114.1,100.3 L116.2,120.5 L118.3,121.8 L120.4,113.7 L122.5,107.0 L124.6,118.3 L126.7,110.5 L128.8,106.9 L130.9,98.6 L133.1,105.9 L135.2,118.5 L137.3,125.7 L139.4,107.8 L141.5,100.9 L143.6,109.3 L145.7,103.0 L147.8,93.9 L149.9,98.5 L152.0,107.4 L154.1,102.6 L156.2,104.4 L158.3,93.7 L160.4,102.6 L162.5,107.5 L164.6,108.6 L166.7,114.3 L168.8,116.5 L170.9,118.4 L173.0,115.5 L175.1,124.3 L177.2,112.3 L179.3,106.4 L181.4,118.4 L183.5,105.9 L185.6,118.3 L187.7,99.2 L189.8,92.6 L191.9,99.4 L194.0,98.1 L196.1,103.5 L198.2,96.5 L200.3,131.6 L202.4,120.3 L204.5,110.5 L206.6,110.8 L208.7,108.1 L210.8,101.3 L212.9,97.3 L215.0,99.6 L217.1,83.8 L219.2,114.2 L221.3,113.1 L223.4,104.8 L225.5,93.0 L227.6,86.6 L229.7,88.8 L231.8,75.1 L233.9,81.6 L236.0,77.0" stroke="rgba(164,164,164,0.39)" stroke-width="0.7" fill="none" stroke-linecap="round" stroke-linejoin="round"/>  <!-- INM-CM5-0 -->
            <path d="M28.0,144.9 L30.1,153.0 L32.2,156.9 L34.3,156.6 L36.4,155.8 L38.5,158.0 L40.6,167.4 L42.7,146.9 L44.8,144.4 L46.9,142.7 L49.0,135.9 L51.1,153.5 L53.2,167.0 L55.3,158.6 L57.4,149.2 L59.5,129.5 L61.6,135.2 L63.7,149.2 L65.8,158.1 L67.9,137.6 L70.0,132.0 L72.1,150.6 L74.2,166.0 L76.3,148.6 L78.4,134.6 L80.5,133.5 L82.6,140.8 L84.7,143.4 L86.8,135.1 L88.9,143.0 L91.0,147.6 L93.1,144.9 L95.2,141.5 L97.3,128.6 L99.4,144.9 L101.5,141.9 L103.6,116.6 L105.7,121.7 L107.8,144.2 L109.9,145.8 L112.0,133.3 L114.1,113.9 L116.2,110.7 L118.3,133.8 L120.4,132.8 L122.5,134.6 L124.6,134.2 L126.7,108.5 L128.8,119.3 L130.9,131.9 L133.1,125.6 L135.2,111.2 L137.3,113.0 L139.4,124.9 L141.5,118.6 L143.6,121.8 L145.7,111.1 L147.8,106.8 L149.9,132.8 L152.0,116.4 L154.1,119.4 L156.2,94.2 L158.3,112.5 L160.4,128.7 L162.5,120.3 L164.6,116.4 L166.7,112.9 L168.8,113.9 L170.9,102.0 L173.0,120.5 L175.1,120.0 L177.2,111.1 L179.3,89.5 L181.4,110.5 L183.5,122.0 L185.6,104.7 L187.7,107.2 L189.8,109.4 L191.9,104.2 L194.0,86.4 L196.1,108.2 L198.2,126.5 L200.3,138.3 L202.4,121.5 L204.5,127.8 L206.6,99.2 L208.7,87.7 L210.8,71.5 L212.9,60.7 L215.0,91.6 L217.1,105.7 L219.2,104.8 L221.3,94.3 L223.4,95.9 L225.5,73.0 L227.6,67.1 L229.7,73.1 L231.8,80.1 L233.9,75.9 L236.0,69.9" stroke="rgba(181,181,181,0.25)" stroke-width="0.7" fill="none" stroke-linecap="round" stroke-linejoin="round"/>  <!-- IPSL-CM6A-LR -->
            <path d="M28.0,142.4 L30.1,139.9 L32.2,140.5 L34.3,164.3 L36.4,154.1 L38.5,164.4 L40.6,151.3 L42.7,142.5 L44.8,159.3 L46.9,138.9 L49.0,140.3 L51.1,154.0 L53.2,151.6 L55.3,131.6 L57.4,142.7 L59.5,138.3 L61.6,133.2 L63.7,133.8 L65.8,138.4 L67.9,138.9 L70.0,147.9 L72.1,139.8 L74.2,130.2 L76.3,135.2 L78.4,140.0 L80.5,130.6 L82.6,130.6 L84.7,115.7 L86.8,142.6 L88.9,137.0 L91.0,135.7 L93.1,126.3 L95.2,116.6 L97.3,131.8 L99.4,128.3 L101.5,132.7 L103.6,104.0 L105.7,124.7 L107.8,130.0 L109.9,123.7 L112.0,105.1 L114.1,118.2 L116.2,109.4 L118.3,116.4 L120.4,120.5 L122.5,121.3 L124.6,111.3 L126.7,110.4 L128.8,111.6 L130.9,92.6 L133.1,109.2 L135.2,102.3 L137.3,112.2 L139.4,97.5 L141.5,108.9 L143.6,106.1 L145.7,102.1 L147.8,116.8 L149.9,100.4 L152.0,99.7 L154.1,112.1 L156.2,106.1 L158.3,110.4 L160.4,118.7 L162.5,126.0 L164.6,126.6 L166.7,124.5 L168.8,109.1 L170.9,121.2 L173.0,116.8 L175.1,97.7 L177.2,117.8 L179.3,126.0 L181.4,110.7 L183.5,130.7 L185.6,128.2 L187.7,102.6 L189.8,120.3 L191.9,112.8 L194.0,100.1 L196.1,78.2 L198.2,111.3 L200.3,122.7 L202.4,99.3 L204.5,105.9 L206.6,81.1 L208.7,89.1 L210.8,75.6 L212.9,90.3 L215.0,67.0 L217.1,76.3 L219.2,96.9 L221.3,99.4 L223.4,79.6 L225.5,85.2 L227.6,80.5 L229.7,78.7 L231.8,88.1 L233.9,59.1 L236.0,52.4" stroke="rgba(134,134,134,0.53)" stroke-width="0.6" fill="none" stroke-linecap="round" stroke-linejoin="round"/>  <!-- KACE-1-0-G -->
            <path d="M28.0,115.8 L30.1,88.6 L32.2,137.7 L34.3,135.8 L36.4,125.7 L38.5,118.3 L40.6,108.7 L42.7,115.3 L44.8,123.9 L46.9,123.4 L49.0,105.4 L51.1,94.6 L53.2,133.7 L55.3,134.4 L57.4,102.3 L59.5,83.4 L61.6,89.7 L63.7,131.3 L65.8,132.0 L67.9,115.4 L70.0,96.0 L72.1,101.1 L74.2,127.8 L76.3,131.8 L78.4,121.9 L80.5,116.2 L82.6,107.9 L84.7,95.3 L86.8,100.4 L88.9,119.9 L91.0,118.7 L93.1,99.5 L95.2,99.0 L97.3,102.6 L99.4,93.2 L101.5,109.0 L103.6,113.9 L105.7,101.0 L107.8,97.2 L109.9,78.4 L112.0,96.9 L114.1,105.9 L116.2,122.7 L118.3,89.0 L120.4,77.7 L122.5,101.2 L124.6,114.9 L126.7,112.8 L128.8,101.3 L130.9,86.6 L133.1,112.5 L135.2,125.0 L137.3,92.5 L139.4,109.3 L141.5,108.6 L143.6,84.4 L145.7,98.4 L147.8,109.6 L149.9,111.1 L152.0,94.3 L154.1,73.2 L156.2,119.7 L158.3,137.8 L160.4,137.9 L162.5,121.2 L164.6,92.4 L166.7,121.7 L168.8,129.1 L170.9,115.1 L173.0,97.6 L175.1,121.2 L177.2,125.5 L179.3,110.8 L181.4,113.9 L183.5,95.2 L185.6,99.4 L187.7,128.0 L189.8,122.1 L191.9,117.1 L194.0,97.9 L196.1,79.2 L198.2,116.6 L200.3,129.0 L202.4,119.0 L204.5,77.7 L206.6,65.8 L208.7,102.2 L210.8,103.8 L212.9,92.7 L215.0,75.8 L217.1,58.9 L219.2,120.2 L221.3,125.8 L223.4,111.9 L225.5,89.8 L227.6,72.7 L229.7,59.1 L231.8,97.0 L233.9,92.2 L236.0,79.9" stroke="rgba(188,188,188,0.42)" stroke-width="0.6" fill="none" stroke-linecap="round" stroke-linejoin="round"/>  <!-- MIROC-ES2L -->
            <path d="M28.0,107.3 L30.1,113.7 L32.2,151.3 L34.3,153.6 L36.4,135.3 L38.5,137.7 L40.6,136.9 L42.7,120.4 L44.8,116.0 L46.9,119.0 L49.0,132.6 L51.1,139.2 L53.2,139.1 L55.3,132.6 L57.4,134.4 L59.5,111.4 L61.6,105.0 L63.7,93.3 L65.8,131.7 L67.9,133.5 L70.0,123.3 L72.1,106.8 L74.2,119.9 L76.3,105.0 L78.4,102.5 L80.5,109.7 L82.6,115.4 L84.7,116.4 L86.8,114.3 L88.9,123.7 L91.0,118.8 L93.1,110.5 L95.2,121.9 L97.3,111.3 L99.4,118.6 L101.5,108.4 L103.6,94.0 L105.7,93.9 L107.8,121.1 L109.9,119.7 L112.0,113.4 L114.1,108.3 L116.2,92.7 L118.3,81.5 L120.4,89.2 L122.5,113.8 L124.6,119.5 L126.7,113.5 L128.8,111.5 L130.9,109.9 L133.1,112.2 L135.2,115.1 L137.3,124.8 L139.4,118.9 L141.5,108.0 L143.6,93.2 L145.7,89.6 L147.8,99.4 L149.9,118.7 L152.0,114.0 L154.1,114.3 L156.2,91.2 L158.3,81.3 L160.4,124.2 L162.5,137.0 L164.6,133.1 L166.7,116.0 L168.8,92.5 L170.9,130.4 L173.0,129.0 L175.1,118.4 L177.2,127.4 L179.3,116.4 L181.4,115.5 L183.5,95.2 L185.6,109.9 L187.7,117.5 L189.8,88.0 L191.9,91.7 L194.0,117.7 L196.1,116.1 L198.2,101.5 L200.3,104.3 L202.4,80.4 L204.5,92.0 L206.6,114.9 L208.7,100.6 L210.8,96.5 L212.9,96.6 L215.0,89.2 L217.1,103.6 L219.2,115.1 L221.3,98.4 L223.4,81.1 L225.5,109.3 L227.6,119.0 L229.7,109.2 L231.8,104.9 L233.9,60.9 L236.0,69.9" stroke="rgba(183,183,183,0.37)" stroke-width="0.6" fill="none" stroke-linecap="round" stroke-linejoin="round"/>  <!-- MIROC6 -->
            <path d="M28.0,142.8 L30.1,122.7 L32.2,168.2 L34.3,164.4 L36.4,142.4 L38.5,155.4 L40.6,148.4 L42.7,133.7 L44.8,123.3 L46.9,132.6 L49.0,144.2 L51.1,151.0 L53.2,144.3 L55.3,130.0 L57.4,120.6 L59.5,136.6 L61.6,131.0 L63.7,132.8 L65.8,135.0 L67.9,134.3 L70.0,127.9 L72.1,127.8 L74.2,127.7 L76.3,118.9 L78.4,115.8 L80.5,119.8 L82.6,102.1 L84.7,114.9 L86.8,110.5 L88.9,119.6 L91.0,130.2 L93.1,117.9 L95.2,127.2 L97.3,102.4 L99.4,104.5 L101.5,90.7 L103.6,108.6 L105.7,105.0 L107.8,132.6 L109.9,124.3 L112.0,124.0 L114.1,120.8 L116.2,116.5 L118.3,116.1 L120.4,112.2 L122.5,125.8 L124.6,125.1 L126.7,101.7 L128.8,119.4 L130.9,123.5 L133.1,123.7 L135.2,124.0 L137.3,117.7 L139.4,128.0 L141.5,133.5 L143.6,122.5 L145.7,128.0 L147.8,128.9 L149.9,123.3 L152.0,119.1 L154.1,104.8 L156.2,125.3 L158.3,114.8 L160.4,111.1 L162.5,117.2 L164.6,107.2 L166.7,122.3 L168.8,113.6 L170.9,122.8 L173.0,99.4 L175.1,94.0 L177.2,104.8 L179.3,109.0 L181.4,119.5 L183.5,128.9 L185.6,113.6 L187.7,106.0 L189.8,106.7 L191.9,107.7 L194.0,84.8 L196.1,98.9 L198.2,109.3 L200.3,123.5 L202.4,115.4 L204.5,103.7 L206.6,93.6 L208.7,94.3 L210.8,99.8 L212.9,94.9 L215.0,91.9 L217.1,104.6 L219.2,118.7 L221.3,121.5 L223.4,101.1 L225.5,102.5 L227.6,89.4 L229.7,112.6 L231.8,101.7 L233.9,96.5 L236.0,88.6" stroke="rgba(171,171,171,0.25)" stroke-width="0.7" fill="none" stroke-linecap="round" stroke-linejoin="round"/>  <!-- MPI-ESM1-2-HR -->
            <path d="M28.0,129.7 L30.1,130.7 L32.2,170.4 L34.3,140.2 L36.4,118.1 L38.5,129.1 L40.6,136.8 L42.7,143.3 L44.8,147.2 L46.9,134.8 L49.0,128.5 L51.1,137.0 L53.2,130.3 L55.3,126.1 L57.4,121.3 L59.5,127.3 L61.6,130.2 L63.7,141.9 L65.8,143.7 L67.9,124.0 L70.0,112.4 L72.1,111.8 L74.2,113.1 L76.3,111.4 L78.4,129.3 L80.5,119.1 L82.6,111.2 L84.7,95.9 L86.8,103.2 L88.9,127.0 L91.0,117.1 L93.1,134.5 L95.2,125.9 L97.3,121.7 L99.4,106.1 L101.5,112.0 L103.6,116.5 L105.7,116.0 L107.8,119.8 L109.9,109.2 L112.0,106.8 L114.1,106.9 L116.2,92.0 L118.3,116.3 L120.4,116.8 L122.5,92.3 L124.6,96.2 L126.7,113.6 L128.8,117.1 L130.9,114.7 L133.1,93.4 L135.2,88.5 L137.3,100.7 L139.4,109.9 L141.5,117.5 L143.6,119.8 L145.7,113.5 L147.8,113.4 L149.9,117.1 L152.0,96.2 L154.1,85.4 L156.2,109.3 L158.3,128.0 L160.4,138.0 L162.5,124.1 L164.6,112.3 L166.7,112.0 L168.8,103.1 L170.9,114.7 L173.0,122.0 L175.1,124.4 L177.2,124.6 L179.3,108.2 L181.4,105.2 L183.5,118.9 L185.6,135.2 L187.7,121.5 L189.8,117.5 L191.9,105.7 L194.0,92.5 L196.1,102.1 L198.2,104.0 L200.3,117.0 L202.4,89.8 L204.5,80.4 L206.6,83.0 L208.7,97.3 L210.8,94.8 L212.9,87.4 L215.0,79.9 L217.1,79.4 L219.2,101.1 L221.3,82.6 L223.4,77.5 L225.5,101.1 L227.6,74.8 L229.7,62.6 L231.8,65.8 L233.9,69.5 L236.0,67.6" stroke="rgba(191,191,191,0.32)" stroke-width="0.6" fill="none" stroke-linecap="round" stroke-linejoin="round"/>  <!-- MPI-ESM1-2-LR -->
            <path d="M28.0,103.6 L30.1,110.9 L32.2,137.0 L34.3,107.8 L36.4,98.2 L38.5,114.9 L40.6,118.2 L42.7,104.3 L44.8,108.6 L46.9,99.4 L49.0,113.6 L51.1,125.9 L53.2,123.7 L55.3,112.8 L57.4,109.3 L59.5,114.8 L61.6,119.3 L63.7,115.5 L65.8,125.4 L67.9,124.4 L70.0,114.5 L72.1,96.1 L74.2,99.1 L76.3,115.7 L78.4,121.0 L80.5,122.6 L82.6,115.4 L84.7,108.8 L86.8,101.9 L88.9,108.5 L91.0,121.2 L93.1,107.2 L95.2,114.2 L97.3,115.5 L99.4,103.5 L101.5,96.7 L103.6,105.7 L105.7,94.0 L107.8,97.4 L109.9,103.7 L112.0,94.8 L114.1,107.2 L116.2,106.3 L118.3,92.6 L120.4,104.1 L122.5,94.4 L124.6,98.7 L126.7,77.5 L128.8,90.9 L130.9,88.2 L133.1,88.4 L135.2,93.6 L137.3,111.5 L139.4,105.0 L141.5,85.5 L143.6,98.7 L145.7,95.1 L147.8,92.4 L149.9,103.4 L152.0,108.9 L154.1,113.6 L156.2,113.1 L158.3,117.4 L160.4,112.1 L162.5,115.0 L164.6,108.2 L166.7,109.8 L168.8,122.1 L170.9,120.2 L173.0,108.9 L175.1,113.1 L177.2,115.1 L179.3,119.6 L181.4,104.5 L183.5,103.8 L185.6,115.1 L187.7,121.9 L189.8,106.5 L191.9,112.4 L194.0,107.8 L196.1,107.9 L198.2,94.5 L200.3,107.5 L202.4,117.9 L204.5,82.0 L206.6,94.9 L208.7,101.7 L210.8,93.5 L212.9,93.3 L215.0,85.4 L217.1,85.3 L219.2,113.2 L221.3,103.0 L223.4,88.4 L225.5,86.6 L227.6,92.4 L229.7,83.8 L231.8,69.0 L233.9,81.2 L236.0,70.3" stroke="rgba(176,176,176,0.32)" stroke-width="0.5" fill="none" stroke-linecap="round" stroke-linejoin="round"/>  <!-- MRI-ESM2-0 -->
            <path d="M28.0,113.9 L30.1,123.4 L32.2,137.3 L34.3,124.3 L36.4,113.9 L38.5,127.1 L40.6,115.2 L42.7,108.0 L44.8,111.2 L46.9,112.4 L49.0,118.1 L51.1,141.6 L53.2,130.5 L55.3,128.8 L57.4,125.3 L59.5,116.9 L61.6,99.5 L63.7,97.4 L65.8,89.3 L67.9,107.6 L70.0,98.5 L72.1,101.6 L74.2,106.7 L76.3,106.7 L78.4,104.3 L80.5,93.0 L82.6,106.9 L84.7,90.7 L86.8,94.1 L88.9,120.4 L91.0,106.6 L93.1,98.1 L95.2,103.1 L97.3,91.7 L99.4,92.6 L101.5,102.5 L103.6,97.7 L105.7,109.7 L107.8,118.9 L109.9,102.9 L112.0,94.9 L114.1,97.4 L116.2,97.3 L118.3,104.1 L120.4,105.9 L122.5,108.5 L124.6,85.6 L126.7,86.6 L128.8,87.1 L130.9,77.8 L133.1,71.4 L135.2,83.0 L137.3,70.4 L139.4,78.2 L141.5,99.4 L143.6,94.7 L145.7,88.6 L147.8,94.4 L149.9,78.4 L152.0,75.9 L154.1,94.4 L156.2,111.6 L158.3,117.1 L160.4,92.2 L162.5,89.9 L164.6,100.9 L166.7,111.5 L168.8,118.4 L170.9,108.9 L173.0,95.4 L175.1,104.4 L177.2,114.6 L179.3,130.9 L181.4,100.7 L183.5,103.2 L185.6,117.7 L187.7,103.3 L189.8,113.1 L191.9,106.9 L194.0,113.3 L196.1,98.2 L198.2,117.8 L200.3,152.8 L202.4,116.3 L204.5,116.0 L206.6,112.4 L208.7,115.5 L210.8,96.9 L212.9,84.0 L215.0,80.3 L217.1,85.2 L219.2,120.4 L221.3,113.2 L223.4,96.0 L225.5,97.9 L227.6,79.8 L229.7,74.7 L231.8,71.1 L233.9,56.3 L236.0,56.4" stroke="rgba(144,144,144,0.45)" stroke-width="0.5" fill="none" stroke-linecap="round" stroke-linejoin="round"/>  <!-- NESM3 -->
            <path d="M28.0,106.3 L30.1,105.9 L32.2,116.4 L34.3,116.1 L36.4,111.1 L38.5,91.1 L40.6,116.2 L42.7,104.5 L44.8,92.1 L46.9,105.7 L49.0,110.1 L51.1,113.8 L53.2,106.6 L55.3,98.7 L57.4,104.4 L59.5,117.3 L61.6,116.9 L63.7,95.3 L65.8,114.2 L67.9,94.9 L70.0,85.4 L72.1,74.5 L74.2,73.3 L76.3,80.7 L78.4,81.1 L80.5,87.4 L82.6,64.7 L84.7,70.3 L86.8,85.7 L88.9,71.7 L91.0,74.8 L93.1,104.6 L95.2,106.5 L97.3,95.1 L99.4,77.7 L101.5,53.6 L103.6,75.2 L105.7,94.5 L107.8,84.3 L109.9,89.6 L112.0,105.2 L114.1,115.1 L116.2,106.0 L118.3,105.4 L120.4,101.7 L122.5,97.5 L124.6,85.1 L126.7,83.9 L128.8,100.4 L130.9,98.1 L133.1,117.4 L135.2,100.7 L137.3,119.7 L139.4,129.5 L141.5,123.2 L143.6,122.1 L145.7,110.1 L147.8,93.0 L149.9,89.4 L152.0,98.8 L154.1,116.1 L156.2,105.5 L158.3,127.4 L160.4,122.1 L162.5,117.6 L164.6,99.5 L166.7,108.0 L168.8,110.0 L170.9,117.3 L173.0,108.3 L175.1,119.3 L177.2,109.8 L179.3,120.5 L181.4,115.8 L183.5,112.8 L185.6,107.4 L187.7,117.4 L189.8,100.6 L191.9,96.4 L194.0,96.3 L196.1,125.3 L198.2,110.4 L200.3,110.8 L202.4,113.3 L204.5,109.3 L206.6,115.0 L208.7,92.1 L210.8,93.8 L212.9,79.8 L215.0,60.8 L217.1,72.1 L219.2,101.9 L221.3,91.5 L223.4,83.7 L225.5,85.8 L227.6,81.9 L229.7,62.7 L231.8,68.5 L233.9,69.1 L236.0,63.5" stroke="rgba(152,152,152,0.43)" stroke-width="0.4" fill="none" stroke-linecap="round" stroke-linejoin="round"/>  <!-- NorESM2-LM -->
            <path d="M28.0,97.3 L30.1,113.6 L32.2,118.1 L34.3,106.5 L36.4,112.4 L38.5,112.7 L40.6,128.1 L42.7,132.6 L44.8,123.6 L46.9,116.9 L49.0,93.9 L51.1,112.2 L53.2,101.5 L55.3,94.6 L57.4,103.1 L59.5,117.6 L61.6,100.5 L63.7,105.4 L65.8,95.3 L67.9,87.9 L70.0,90.8 L72.1,110.2 L74.2,128.9 L76.3,122.6 L78.4,123.3 L80.5,115.0 L82.6,100.1 L84.7,108.9 L86.8,113.9 L88.9,91.4 L91.0,80.6 L93.1,109.4 L95.2,97.3 L97.3,94.6 L99.4,101.5 L101.5,115.9 L103.6,112.7 L105.7,93.8 L107.8,93.5 L109.9,81.8 L112.0,88.2 L114.1,93.5 L116.2,98.9 L118.3,107.4 L120.4,97.4 L122.5,108.0 L124.6,104.4 L126.7,79.9 L128.8,81.2 L130.9,79.1 L133.1,81.5 L135.2,91.1 L137.3,99.5 L139.4,88.2 L141.5,100.9 L143.6,107.5 L145.7,122.0 L147.8,122.7 L149.9,92.6 L152.0,84.3 L154.1,77.2 L156.2,76.8 L158.3,106.5 L160.4,111.3 L162.5,126.0 L164.6,128.8 L166.7,149.4 L168.8,134.5 L170.9,132.7 L173.0,137.5 L175.1,140.1 L177.2,114.9 L179.3,121.5 L181.4,106.2 L183.5,106.2 L185.6,100.7 L187.7,96.0 L189.8,86.4 L191.9,72.7 L194.0,88.3 L196.1,98.6 L198.2,104.3 L200.3,119.5 L202.4,130.7 L204.5,103.4 L206.6,105.0 L208.7,118.0 L210.8,108.3 L212.9,95.7 L215.0,41.7 L217.1,63.2 L219.2,99.1 L221.3,88.1 L223.4,67.9 L225.5,70.6 L227.6,66.1 L229.7,63.7 L231.8,85.2 L233.9,103.8 L236.0,95.8" stroke="rgba(161,161,161,0.50)" stroke-width="0.4" fill="none" stroke-linecap="round" stroke-linejoin="round"/>  <!-- NorESM2-MM -->
            <path d="M28.0,98.8 L30.1,109.2 L32.2,131.9 L34.3,111.7 L36.4,121.0 L38.5,100.2 L40.6,114.4 L42.7,119.9 L44.8,119.0 L46.9,102.4 L49.0,90.6 L51.1,120.0 L53.2,122.8 L55.3,108.8 L57.4,100.9 L59.5,92.2 L61.6,86.0 L63.7,107.5 L65.8,109.3 L67.9,104.1 L70.0,101.3 L72.1,84.2 L74.2,85.1 L76.3,78.8 L78.4,90.0 L80.5,101.1 L82.6,93.0 L84.7,85.6 L86.8,98.3 L88.9,100.6 L91.0,90.0 L93.1,98.4 L95.2,97.1 L97.3,73.4 L99.4,85.4 L101.5,85.2 L103.6,77.5 L105.7,86.7 L107.8,98.4 L109.9,76.9 L112.0,96.9 L114.1,84.5 L116.2,72.7 L118.3,88.2 L120.4,95.7 L122.5,91.0 L124.6,75.5 L126.7,91.0 L128.8,86.4 L130.9,98.6 L133.1,92.7 L135.2,84.6 L137.3,90.3 L139.4,99.5 L141.5,93.3 L143.6,95.0 L145.7,101.0 L147.8,103.6 L149.9,102.2 L152.0,101.6 L154.1,111.8 L156.2,92.8 L158.3,104.5 L160.4,126.3 L162.5,116.0 L164.6,116.6 L166.7,107.4 L168.8,95.3 L170.9,113.6 L173.0,105.0 L175.1,102.7 L177.2,112.4 L179.3,117.1 L181.4,104.0 L183.5,100.2 L185.6,126.0 L187.7,128.8 L189.8,118.8 L191.9,98.9 L194.0,85.7 L196.1,101.3 L198.2,125.8 L200.3,119.1 L202.4,109.8 L204.5,109.7 L206.6,116.9 L208.7,106.9 L210.8,92.8 L212.9,91.8 L215.0,80.8 L217.1,92.1 L219.2,128.4 L221.3,105.5 L223.4,92.7 L225.5,92.3 L227.6,85.7 L229.7,64.5 L231.8,72.3 L233.9,70.4 L236.0,72.2" stroke="rgba(174,174,174,0.30)" stroke-width="0.5" fill="none" stroke-linecap="round" stroke-linejoin="round"/>  <!-- TaiESM1 -->
            <path d="M28.0,101.0 L30.1,88.7 L32.2,88.7 L34.3,98.6 L36.4,81.5 L38.5,94.4 L40.6,72.2 L42.7,75.8 L44.8,79.7 L46.9,84.1 L49.0,69.9 L51.1,97.6 L53.2,87.0 L55.3,82.2 L57.4,80.2 L59.5,89.9 L61.6,96.9 L63.7,90.3 L65.8,65.7 L67.9,71.2 L70.0,87.4 L72.1,94.5 L74.2,90.1 L76.3,77.8 L78.4,77.7 L80.5,74.4 L82.6,94.5 L84.7,90.1 L86.8,90.7 L88.9,82.7 L91.0,96.7 L93.1,88.9 L95.2,88.1 L97.3,90.7 L99.4,96.0 L101.5,76.9 L103.6,106.3 L105.7,106.7 L107.8,88.1 L109.9,98.3 L112.0,96.3 L114.1,71.3 L116.2,103.0 L118.3,82.8 L120.4,97.7 L122.5,91.4 L124.6,66.9 L126.7,78.5 L128.8,98.1 L130.9,94.6 L133.1,106.6 L135.2,95.3 L137.3,98.6 L139.4,72.9 L141.5,88.2 L143.6,79.2 L145.7,89.4 L147.8,69.5 L149.9,87.3 L152.0,91.1 L154.1,106.0 L156.2,82.0 L158.3,101.6 L160.4,127.7 L162.5,112.8 L164.6,100.9 L166.7,108.0 L168.8,133.5 L170.9,120.3 L173.0,115.1 L175.1,129.1 L177.2,119.3 L179.3,120.7 L181.4,123.1 L183.5,114.8 L185.6,112.3 L187.7,117.3 L189.8,106.5 L191.9,108.3 L194.0,119.8 L196.1,112.5 L198.2,111.2 L200.3,106.8 L202.4,104.4 L204.5,102.2 L206.6,91.2 L208.7,84.8 L210.8,96.0 L212.9,79.7 L215.0,71.3 L217.1,83.0 L219.2,109.9 L221.3,98.5 L223.4,77.8 L225.5,87.3 L227.6,63.5 L229.7,69.9 L231.8,53.2 L233.9,61.5 L236.0,45.5" stroke="rgba(142,142,142,0.37)" stroke-width="0.5" fill="none" stroke-linecap="round" stroke-linejoin="round"/>  <!-- UKESM1-0-LL -->

            <!-- Multi-model mean -->
            <path d="M28.0,115.4 L30.1,119.4 L32.2,139.0 L34.3,131.6 L36.4,128.7 L38.5,126.8 L40.6,124.4 L42.7,121.9 L44.8,121.9 L46.9,117.7 L49.0,115.6 L51.1,131.2 L53.2,132.3 L55.3,124.7 L57.4,122.0 L59.5,119.3 L61.6,116.7 L63.7,116.7 L65.8,114.8 L67.9,115.3 L70.0,111.2 L72.1,115.0 L74.2,114.4 L76.3,112.3 L78.4,112.7 L80.5,114.1 L82.6,108.8 L84.7,109.2 L86.8,111.5 L88.9,112.7 L91.0,113.8 L93.1,112.3 L95.2,114.5 L97.3,110.8 L99.4,107.4 L101.5,110.4 L103.6,111.0 L105.7,106.6 L107.8,111.4 L109.9,107.6 L112.0,107.5 L114.1,108.4 L116.2,108.7 L118.3,106.8 L120.4,109.3 L122.5,107.9 L124.6,108.6 L126.7,105.6 L128.8,106.7 L130.9,107.1 L133.1,106.4 L135.2,106.4 L137.3,107.9 L139.4,109.1 L141.5,107.9 L143.6,109.4 L145.7,107.7 L147.8,106.7 L149.9,105.3 L152.0,104.9 L154.1,104.5 L156.2,107.9 L158.3,117.7 L160.4,122.6 L162.5,120.4 L164.6,114.8 L166.7,119.3 L168.8,115.3 L170.9,111.9 L173.0,114.1 L175.1,115.3 L177.2,116.2 L179.3,111.9 L181.4,110.5 L183.5,113.2 L185.6,114.9 L187.7,106.9 L189.8,106.7 L191.9,103.3 L194.0,100.3 L196.1,100.4 L198.2,106.0 L200.3,119.8 L202.4,108.4 L204.5,100.6 L206.6,99.4 L208.7,97.2 L210.8,92.8 L212.9,87.3 L215.0,79.1 L217.1,84.3 L219.2,111.3 L221.3,104.2 L223.4,91.3 L225.5,89.8 L227.6,82.0 L229.7,74.6 L231.8,75.0 L233.9,73.2 L236.0,67.2" stroke="rgba(209,175,113,0.7)" stroke-width="1.5" fill="none" stroke-linecap="round" stroke-linejoin="round"/>

            <!-- CRU observations -->
            <path d="M28.0,113.5 L30.1,127.2 L32.2,125.7 L34.3,128.7 L36.4,123.9 L38.5,116.4 L40.6,137.8 L42.7,127.8 L44.8,129.0 L46.9,125.5 L49.0,130.0 L51.1,131.5 L53.2,124.2 L55.3,113.7 L57.4,115.4 L59.5,130.2 L61.6,138.5 L63.7,130.1 L65.8,124.7 L67.9,123.1 L70.0,111.6 L72.1,121.9 L74.2,117.4 L76.3,120.5 L78.4,113.9 L80.5,107.1 L82.6,117.7 L84.7,112.9 L86.8,131.2 L88.9,111.4 L91.0,108.8 L93.1,107.3 L95.2,125.7 L97.3,106.2 L99.4,113.7 L101.5,112.0 L103.6,108.1 L105.7,95.2 L107.8,100.5 L109.9,106.6 L112.0,107.0 L114.1,108.4 L116.2,104.2 L118.3,97.6 L120.4,114.8 L122.5,110.6 L124.6,106.1 L126.7,104.5 L128.8,112.9 L130.9,129.1 L133.1,117.7 L135.2,114.9 L137.3,99.6 L139.4,118.0 L141.5,119.8 L143.6,138.9 L145.7,115.2 L147.8,104.3 L149.9,108.9 L152.0,114.0 L154.1,107.6 L156.2,105.0 L158.3,103.6 L160.4,129.0 L162.5,123.0 L164.6,119.4 L166.7,114.4 L168.8,122.9 L170.9,119.9 L173.0,113.5 L175.1,119.4 L177.2,127.9 L179.3,97.8 L181.4,127.7 L183.5,108.9 L185.6,130.5 L187.7,103.2 L189.8,112.6 L191.9,107.2 L194.0,99.4 L196.1,84.4 L198.2,109.8 L200.3,87.2 L202.4,111.4 L204.5,110.4 L206.6,98.6 L208.7,91.2 L210.8,83.0 L212.9,93.5 L215.0,76.2 L217.1,84.9 L219.2,101.8 L221.3,96.9 L223.4,86.7 L225.5,71.3 L227.6,98.4 L229.7,80.4 L231.8,60.3 L233.9,72.4 L236.0,80.3" stroke="rgba(232,220,200,0.85)" stroke-width="1.2" fill="none" stroke-linecap="round" stroke-linejoin="round"/>

            <!-- Year tick marks -->
            <line x1="46.9" y1="188" x2="46.9" y2="193" stroke="rgba(255,255,255,0.1)" stroke-width="0.7"/>
            <line x1="88.9" y1="188" x2="88.9" y2="193" stroke="rgba(255,255,255,0.1)" stroke-width="0.7"/>
            <line x1="130.9" y1="188" x2="130.9" y2="193" stroke="rgba(255,255,255,0.1)" stroke-width="0.7"/>
            <line x1="173.0" y1="188" x2="173.0" y2="193" stroke="rgba(255,255,255,0.1)" stroke-width="0.7"/>
            <line x1="215.0" y1="188" x2="215.0" y2="193" stroke="rgba(255,255,255,0.1)" stroke-width="0.7"/>

            <!-- Year labels -->
            <text x="41" y="202" font-family="'Space Mono', monospace" font-size="6" fill="rgba(255,255,255,0.12)">1910</text>
            <text x="83" y="202" font-family="'Space Mono', monospace" font-size="6" fill="rgba(255,255,255,0.12)">1930</text>
            <text x="125" y="202" font-family="'Space Mono', monospace" font-size="6" fill="rgba(255,255,255,0.12)">1950</text>
            <text x="167" y="202" font-family="'Space Mono', monospace" font-size="6" fill="rgba(255,255,255,0.12)">1970</text>
            <text x="209" y="202" font-family="'Space Mono', monospace" font-size="6" fill="rgba(255,255,255,0.12)">1990</text>
</svg>