<svg viewBox="0 0 250 170" xmlns="http://www.w3.org/2000/svg">
  <rect width="250" height="170" fill="#2a5c52"/>
  <rect x="29.0" y="52.0" width="28" height="38" fill="rgba(91,191,173,0.31)" stroke="rgba(255,255,255,0.35)" stroke-width="0.8"/>
  <rect x="25.5" y="55.5" width="28" height="38" fill="rgba(91,191,173,0.27)" stroke="rgba(255,255,255,0.35)" stroke-width="0.8"/>
  <rect x="22.0" y="59.0" width="28" height="38" fill="rgba(91,191,173,0.23)" stroke="rgba(255,255,255,0.35)" stroke-width="0.8"/>
  <rect x="18.5" y="62.5" width="28" height="38" fill="rgba(91,191,173,0.19)" stroke="rgba(255,255,255,0.35)" stroke-width="0.8"/>
  <rect x="15.0" y="66.0" width="28" height="38" fill="rgba(91,191,173,0.15)" stroke="rgba(255,255,255,0.35)" stroke-width="0.8"/>
  <rect x="21" y="74.0" width="6" height="6" fill="none" stroke="rgba(255,255,255,0.2)" stroke-width="0.5"/>
  <rect x="27" y="74.0" width="6" height="6" fill="none" stroke="rgba(255,255,255,0.2)" stroke-width="0.5"/>
  <rect x="21" y="80.0" width="6" height="6" fill="none" stroke="rgba(255,255,255,0.2)" stroke-width="0.5"/>
  <rect x="27" y="80.0" width="6" height="6" fill="none" stroke="rgba(255,255,255,0.2)" stroke-width="0.5"/>
  <text x="36" y="118" font-family="Space Mono, monospace" font-size="6" fill="rgba(255,255,255,0.55)" text-anchor="middle">pooling</text>
  <line x1="57.0" y1="73.0" x2="99.0" y2="49.0" stroke="rgba(255,255,255,0.2)" stroke-width="0.7"/>
  <line x1="57.0" y1="73.0" x2="99.0" y2="67.0" stroke="rgba(255,255,255,0.2)" stroke-width="0.7"/>
  <line x1="57.0" y1="73.0" x2="99.0" y2="85.0" stroke="rgba(255,255,255,0.2)" stroke-width="0.7"/>
  <line x1="57.0" y1="73.0" x2="99.0" y2="103.0" stroke="rgba(255,255,255,0.2)" stroke-width="0.7"/>
  <line x1="57.0" y1="73.0" x2="99.0" y2="121.0" stroke="rgba(255,255,255,0.2)" stroke-width="0.7"/>
  <line x1="57.0" y1="85.0" x2="99.0" y2="49.0" stroke="rgba(255,255,255,0.2)" stroke-width="0.7"/>
  <line x1="57.0" y1="85.0" x2="99.0" y2="67.0" stroke="rgba(255,255,255,0.2)" stroke-width="0.7"/>
  <line x1="57.0" y1="85.0" x2="99.0" y2="85.0" stroke="rgba(255,255,255,0.2)" stroke-width="0.7"/>
  <line x1="57.0" y1="85.0" x2="99.0" y2="103.0" stroke="rgba(255,255,255,0.2)" stroke-width="0.7"/>
  <line x1="57.0" y1="85.0" x2="99.0" y2="121.0" stroke="rgba(255,255,255,0.2)" stroke-width="0.7"/>
  <line x1="57.0" y1="97.0" x2="99.0" y2="49.0" stroke="rgba(255,255,255,0.2)" stroke-width="0.7"/>
  <line x1="57.0" y1="97.0" x2="99.0" y2="67.0" stroke="rgba(255,255,255,0.2)" stroke-width="0.7"/>
  <line x1="57.0" y1="97.0" x2="99.0" y2="85.0" stroke="rgba(255,255,255,0.2)" stroke-width="0.7"/>
  <line x1="57.0" y1="97.0" x2="99.0" y2="103.0" stroke="rgba(255,255,255,0.2)" stroke-width="0.7"/>
  <line x1="57.0" y1="97.0" x2="99.0" y2="121.0" stroke="rgba(255,255,255,0.2)" stroke-width="0.7"/>
  <text x="78" y="87" font-family="Space Mono, monospace" font-size="8" fill="rgba(255,255,255,0.3)" text-anchor="middle">→</text>
  <line x1="111.0" y1="49.0" x2="154.5" y2="55.0" stroke="rgba(255,255,255,0.18)" stroke-width="0.6"/>
  <line x1="111.0" y1="49.0" x2="154.5" y2="75.0" stroke="rgba(255,255,255,0.18)" stroke-width="0.6"/>
  <line x1="111.0" y1="49.0" x2="154.5" y2="95.0" stroke="rgba(255,255,255,0.18)" stroke-width="0.6"/>
  <line x1="111.0" y1="49.0" x2="154.5" y2="115.0" stroke="rgba(255,255,255,0.18)" stroke-width="0.6"/>
  <line x1="111.0" y1="67.0" x2="154.5" y2="55.0" stroke="rgba(255,255,255,0.18)" stroke-width="0.6"/>
  <line x1="111.0" y1="67.0" x2="154.5" y2="75.0" stroke="rgba(255,255,255,0.18)" stroke-width="0.6"/>
  <line x1="111.0" y1="67.0" x2="154.5" y2="95.0" stroke="rgba(255,255,255,0.18)" stroke-width="0.6"/>
  <line x1="111.0" y1="67.0" x2="154.5" y2="115.0" stroke="rgba(255,255,255,0.18)" stroke-width="0.6"/>
  <line x1="111.0" y1="85.0" x2="154.5" y2="55.0" stroke="rgba(255,255,255,0.18)" stroke-width="0.6"/>
  <line x1="111.0" y1="85.0" x2="154.5" y2="75.0" stroke="rgba(255,255,255,0.18)" stroke-width="0.6"/>
  <line x1="111.0" y1="85.0" x2="154.5" y2="95.0" stroke="rgba(255,255,255,0.18)" stroke-width="0.6"/>
  <line x1="111.0" y1="85.0" x2="154.5" y2="115.0" stroke="rgba(255,255,255,0.18)" stroke-width="0.6"/>
  <line x1="111.0" y1="103.0" x2="154.5" y2="55.0" stroke="rgba(255,255,255,0.18)" stroke-width="0.6"/>
  <line x1="111.0" y1="103.0" x2="154.5" y2="75.0" stroke="rgba(255,255,255,0.18)" stroke-width="0.6"/>
  <line x1="111.0" y1="103.0" x2="154.5" y2="95.0" stroke="rgba(255,255,255,0.18)" stroke-width="0.6"/>
  <line x1="111.0" y1="103.0" x2="154.5" y2="115.0" stroke="rgba(255,255,255,0.18)" stroke-width="0.6"/>
  <line x1="111.0" y1="121.0" x2="154.5" y2="55.0" stroke="rgba(255,255,255,0.18)" stroke-width="0.6"/>
  <line x1="111.0" y1="121.0" x2="154.5" y2="75.0" stroke="rgba(255,255,255,0.18)" stroke-width="0.6"/>
  <line x1="111.0" y1="121.0" x2="154.5" y2="95.0" stroke="rgba(255,255,255,0.18)" stroke-width="0.6"/>
  <line x1="111.0" y1="121.0" x2="154.5" y2="115.0" stroke="rgba(255,255,255,0.18)" stroke-width="0.6"/>
  <line x1="165.5" y1="55.0" x2="210.0" y2="71.0" stroke="rgba(255,255,255,0.22)" stroke-width="0.7"/>
  <line x1="165.5" y1="55.0" x2="210.0" y2="99.0" stroke="rgba(255,255,255,0.22)" stroke-width="0.7"/>
  <line x1="165.5" y1="75.0" x2="210.0" y2="71.0" stroke="rgba(255,255,255,0.22)" stroke-width="0.7"/>
  <line x1="165.5" y1="75.0" x2="210.0" y2="99.0" stroke="rgba(255,255,255,0.22)" stroke-width="0.7"/>
  <line x1="165.5" y1="95.0" x2="210.0" y2="71.0" stroke="rgba(255,255,255,0.22)" stroke-width="0.7"/>
  <line x1="165.5" y1="95.0" x2="210.0" y2="99.0" stroke="rgba(255,255,255,0.22)" stroke-width="0.7"/>
  <line x1="165.5" y1="115.0" x2="210.0" y2="71.0" stroke="rgba(255,255,255,0.22)" stroke-width="0.7"/>
  <line x1="165.5" y1="115.0" x2="210.0" y2="99.0" stroke="rgba(255,255,255,0.22)" stroke-width="0.7"/>
  <circle cx="105" cy="49.0" r="6" fill="rgba(91,191,173,0.15)" stroke="rgba(255,255,255,0.5)" stroke-width="1"/>
  <circle cx="105" cy="67.0" r="6" fill="rgba(91,191,173,0.15)" stroke="rgba(255,255,255,0.5)" stroke-width="1"/>
  <circle cx="105" cy="85.0" r="6" fill="rgba(91,191,173,0.15)" stroke="rgba(255,255,255,0.5)" stroke-width="1"/>
  <circle cx="105" cy="103.0" r="6" fill="rgba(91,191,173,0.15)" stroke="rgba(255,255,255,0.5)" stroke-width="1"/>
  <circle cx="105" cy="121.0" r="6" fill="rgba(91,191,173,0.15)" stroke="rgba(255,255,255,0.5)" stroke-width="1"/>
  <circle cx="160" cy="55.0" r="5.5" fill="rgba(91,191,173,0.12)" stroke="rgba(255,255,255,0.45)" stroke-width="0.9"/>
  <circle cx="160" cy="75.0" r="5.5" fill="rgba(91,191,173,0.12)" stroke="rgba(255,255,255,0.45)" stroke-width="0.9"/>
  <circle cx="160" cy="95.0" r="5.5" fill="rgba(91,191,173,0.12)" stroke="rgba(255,255,255,0.45)" stroke-width="0.9"/>
  <circle cx="160" cy="115.0" r="5.5" fill="rgba(91,191,173,0.12)" stroke="rgba(255,255,255,0.45)" stroke-width="0.9"/>
  <circle cx="218" cy="71.0" r="8" fill="rgba(232,220,200,0.12)" stroke="rgba(232,220,200,0.55)" stroke-width="1.1"/>
  <circle cx="218" cy="99.0" r="8" fill="rgba(232,220,200,0.12)" stroke="rgba(232,220,200,0.55)" stroke-width="1.1"/>
  <text x="105" y="141" font-family="Space Mono, monospace" font-size="6" fill="rgba(255,255,255,0.55)" text-anchor="middle">FC</text>
  <text x="160" y="134" font-family="Space Mono, monospace" font-size="6" fill="rgba(255,255,255,0.55)" text-anchor="middle">FC</text>
  <text x="218" y="121" font-family="Space Mono, monospace" font-size="6" fill="rgba(232,220,200,0.6)" text-anchor="middle">output</text>
</svg>