<svg viewBox="0 0 1200 500" fill="none" xmlns="http://www.w3.org/2000/svg" preserveAspectRatio="xMidYMid slice">
  <path d="M1118.1,0.0 L1119.9,4.9 L1121.9,7.5 L1124.4,10.0 L1127.9,13.0 L1130.7,15.1 L1133.9,17.3 L1137.9,19.9 L1140.8,21.7 L1143.9,23.7 L1147.9,26.2 L1151.5,28.4 L1154.2,30.1 L1157.9,32.5 L1161.9,35.0 L1164.7,36.8 L1167.9,38.9 L1172.0,41.5 L1175.0,43.5 L1178.0,45.4 L1182.0,47.8 L1186.0,50.0 L1190.0,51.8 L1194.0,53.2 L1198.0,54.0" stroke="rgba(255,255,255,0.14)" stroke-width="1.2" fill="none" stroke-linecap="round" stroke-linejoin="round"/>
  <text x="1140.8" y="21.7" font-family="'Space Mono', monospace" font-size="8" fill="rgba(255,255,255,0.18)" text-anchor="middle" transform="rotate(32.0,1140.8,21.7)">100</text>
  <path d="M1200.0,372.6 L1196.0,373.7 L1192.2,376.3 L1190.0,378.3 L1187.4,381.3 L1184.9,384.6 L1182.6,388.0 L1180.6,391.3 L1178.7,394.6 L1176.8,398.0 L1175.1,401.3 L1173.4,404.7 L1171.7,408.0 L1169.9,411.6 L1167.9,415.8 L1166.0,419.7 L1164.4,423.1 L1162.8,426.4 L1161.2,429.8 L1159.6,433.1 L1157.9,436.5 L1155.9,440.4 L1153.9,444.2 L1151.9,448.0 L1150.0,451.5 L1148.1,454.8 L1146.2,458.2 L1144.2,461.5 L1142.2,464.9 L1140.1,468.2 L1137.9,471.6 L1135.9,474.6 L1133.9,477.6 L1131.9,480.7 L1129.9,483.9 L1127.9,487.3 L1125.9,491.3 L1124.5,495.0 L1123.8,498.3" stroke="rgba(255,255,255,0.14)" stroke-width="1.2" fill="none" stroke-linecap="round" stroke-linejoin="round"/>
  <text x="1169.9" y="411.6" font-family="'Space Mono', monospace" font-size="8" fill="rgba(255,255,255,0.18)" text-anchor="middle" transform="rotate(-64.3,1169.9,411.6)">100</text>
  <path d="M1039.9,0.0 L1041.4,5.0 L1043.6,8.4 L1045.7,10.7 L1048.6,13.4 L1051.8,15.9 L1055.1,18.4 L1057.8,20.2 L1061.8,22.8 L1065.5,25.1 L1068.4,26.8 L1071.8,28.7 L1075.8,31.0 L1079.8,33.1 L1083.5,35.1 L1086.7,36.8 L1089.8,38.5 L1093.8,40.5 L1097.8,42.6 L1101.8,44.7 L1105.8,46.8 L1109.1,48.5 L1112.3,50.2 L1115.9,52.1 L1119.9,54.3 L1123.9,56.5 L1127.5,58.5 L1130.4,60.2 L1133.9,62.2 L1137.9,64.7 L1141.4,66.9 L1144.1,68.6 L1147.9,71.1 L1151.5,73.6 L1153.9,75.3 L1157.9,78.2 L1160.7,80.3 L1163.9,82.8 L1167.1,85.3 L1169.9,87.6 L1173.2,90.3 L1176.0,92.6 L1179.3,95.3 L1182.0,97.5 L1185.8,100.3 L1188.4,102.0 L1192.0,104.0 L1196.0,105.6" stroke="rgba(255,255,255,0.14)" stroke-width="1.2" fill="none" stroke-linecap="round" stroke-linejoin="round"/>
  <text x="1089.8" y="38.5" font-family="'Space Mono', monospace" font-size="8" fill="rgba(255,255,255,0.18)" text-anchor="middle" transform="rotate(27.5,1089.8,38.5)">146</text>
  <path d="M1200.0,303.6 L1196.0,304.6 L1192.0,306.9 L1188.9,309.4 L1186.0,312.3 L1184.0,314.5 L1181.4,317.7 L1178.9,321.1 L1176.5,324.4 L1174.3,327.8 L1172.1,331.1 L1170.1,334.4 L1168.1,337.8 L1166.2,341.1 L1164.4,344.5 L1162.6,347.8 L1160.8,351.2 L1159.1,354.5 L1157.5,357.9 L1155.9,361.2 L1153.9,365.5 L1152.1,369.6 L1150.6,372.9 L1149.2,376.3 L1147.8,379.6 L1145.9,384.1 L1144.3,388.0 L1143.0,391.3 L1141.6,394.6 L1139.9,398.8 L1138.2,403.0 L1136.8,406.4 L1135.4,409.7 L1133.9,413.1 L1131.9,417.7 L1130.2,421.4 L1128.6,424.7 L1127.0,428.1 L1125.4,431.4 L1123.7,434.8 L1121.9,438.1 L1119.9,441.8 L1117.9,445.2 L1115.9,448.5 L1113.9,451.7 L1111.8,454.8 L1109.5,458.2 L1107.1,461.5 L1104.6,464.9 L1102.0,468.2 L1099.8,470.8 L1097.8,473.2 L1094.9,476.6 L1092.0,479.9 L1089.8,482.4 L1087.6,484.9 L1085.0,488.3 L1082.7,491.6 L1081.0,495.0 L1079.8,499.5" stroke="rgba(255,255,255,0.14)" stroke-width="1.2" fill="none" stroke-linecap="round" stroke-linejoin="round"/>
  <text x="1153.9" y="365.5" font-family="'Space Mono', monospace" font-size="8" fill="rgba(255,255,255,0.18)" text-anchor="middle" transform="rotate(-65.9,1153.9,365.5)">146</text>
  <path d="M56.8,500.0 L56.1,495.3 L54.9,491.6 L53.5,488.3 L51.8,484.9 L49.9,481.6 L47.9,478.3 L45.9,474.9 L43.8,471.6 L41.8,468.2 L39.8,464.9 L37.9,461.5 L36.0,458.2 L34.1,454.6 L32.1,450.9 L30.1,447.0 L28.1,443.1 L26.4,439.8 L24.7,436.5 L23.1,433.1 L21.5,429.8 L19.8,426.4 L18.0,422.8 L16.0,418.8 L14.0,415.1 L12.0,411.5 L10.0,408.3 L8.0,405.5 L5.9,403.0 L2.0,400.0" stroke="rgba(255,255,255,0.14)" stroke-width="1.2" fill="none" stroke-linecap="round" stroke-linejoin="round"/>
  <text x="39.8" y="464.9" font-family="'Space Mono', monospace" font-size="8" fill="rgba(255,255,255,0.18)" text-anchor="middle" transform="rotate(60.0,39.8,464.9)">146</text>
  <path d="M902.6,500.0 L901.5,496.1 L899.5,492.8 L897.1,490.0 L893.6,486.6 L891.5,484.8 L887.5,481.7 L885.1,479.9 L881.5,477.4 L877.8,474.9 L875.3,473.2 L871.5,470.8 L867.4,468.4 L864.3,466.6 L861.3,464.9 L857.4,462.9 L853.4,460.9 L849.4,459.2 L845.4,457.7 L841.4,456.3 L835.6,454.8 L831.4,454.1 L825.4,453.5 L819.4,453.5 L813.4,454.1 L809.1,454.8 L803.3,456.4 L799.3,457.7 L795.3,459.4 L791.3,461.2 L787.5,463.2 L784.6,464.9 L781.3,466.9 L777.3,469.5 L774.3,471.6 L771.3,473.8 L767.7,476.6 L765.3,478.6 L761.8,481.6 L759.3,484.1 L756.8,486.6 L754.1,490.0 L752.0,493.3 L750.6,496.7" stroke="rgba(255,255,255,0.14)" stroke-width="1.2" fill="none" stroke-linecap="round" stroke-linejoin="round"/>
  <text x="861.3" y="464.9" font-family="'Space Mono', monospace" font-size="8" fill="rgba(255,255,255,0.18)" text-anchor="middle" transform="rotate(27.6,861.3,464.9)">146</text>
  <path d="M988.0,0.0 L989.3,5.0 L991.1,8.4 L993.7,11.7 L995.7,13.9 L998.5,16.7 L1001.7,19.6 L1004.2,21.7 L1007.7,24.6 L1010.5,26.8 L1013.7,29.1 L1017.3,31.8 L1019.7,33.5 L1023.7,36.2 L1027.0,38.5 L1029.7,40.2 L1033.7,42.8 L1037.5,45.2 L1040.3,46.8 L1043.7,48.9 L1047.7,51.2 L1051.8,53.4 L1055.0,55.2 L1058.1,56.9 L1061.8,58.8 L1065.8,60.9 L1069.8,62.9 L1073.8,64.9 L1077.8,66.9 L1081.1,68.6 L1084.5,70.2 L1087.9,71.9 L1091.8,73.9 L1095.8,75.9 L1099.8,78.0 L1103.8,80.1 L1107.3,81.9 L1110.4,83.6 L1113.9,85.6 L1117.9,87.9 L1121.9,90.3 L1124.6,92.0 L1127.9,94.1 L1131.9,96.8 L1134.6,98.7 L1137.9,101.0 L1141.4,103.7 L1143.9,105.7 L1147.5,108.7 L1149.9,110.8 L1153.2,113.7 L1155.9,116.4 L1158.3,118.7 L1161.4,122.1 L1163.9,124.9 L1165.9,127.2 L1168.6,130.4 L1171.3,133.8 L1173.8,137.1 L1176.0,140.2 L1178.0,143.0 L1180.0,145.9 L1182.0,148.8 L1184.2,152.2 L1186.6,155.5 L1188.9,158.9 L1191.5,162.2 L1194.0,165.0 L1196.7,167.2" stroke="rgba(255,255,255,0.14)" stroke-width="1.2" fill="none" stroke-linecap="round" stroke-linejoin="round"/>
  <text x="1058.1" y="56.9" font-family="'Space Mono', monospace" font-size="8" fill="rgba(255,255,255,0.18)" text-anchor="middle" transform="rotate(27.8,1058.1,56.9)">193</text>
  <path d="M1200.0,234.8 L1196.0,236.8 L1193.7,239.1 L1191.0,242.5 L1188.7,245.8 L1186.6,249.2 L1184.6,252.5 L1182.6,255.9 L1180.6,259.2 L1178.7,262.5 L1176.7,265.9 L1174.8,269.2 L1172.8,272.6 L1170.8,275.9 L1168.8,279.3 L1166.8,282.6 L1164.8,286.0 L1162.8,289.3 L1160.7,292.6 L1158.7,296.0 L1156.7,299.3 L1154.7,302.7 L1152.7,306.0 L1150.7,309.4 L1148.8,312.7 L1146.9,316.1 L1145.1,319.4 L1143.3,322.7 L1141.5,326.1 L1139.8,329.4 L1137.9,333.4 L1135.9,337.8 L1134.4,341.1 L1132.9,344.5 L1131.5,347.8 L1129.9,351.9 L1128.2,356.2 L1127.0,359.5 L1125.7,362.9 L1123.9,367.9 L1122.7,371.2 L1121.5,374.6 L1119.9,379.3 L1118.6,382.9 L1117.4,386.3 L1115.9,390.6 L1114.4,394.6 L1113.1,398.0 L1111.8,401.3 L1109.8,406.2 L1108.4,409.7 L1106.9,413.0 L1105.4,416.4 L1103.8,419.8 L1101.8,423.8 L1099.8,427.6 L1097.8,431.3 L1095.8,434.7 L1093.8,438.0 L1091.8,441.0 L1089.8,444.0 L1087.8,446.8 L1085.5,449.8 L1082.8,453.2 L1080.0,456.5 L1077.8,458.9 L1075.3,461.5 L1071.9,464.9 L1069.8,466.8 L1066.2,469.9 L1063.8,471.9 L1059.9,474.9 L1057.7,476.6 L1053.8,479.4 L1050.5,481.6 L1047.7,483.5 L1043.7,486.2 L1040.5,488.3 L1037.7,490.3 L1033.8,493.3 L1031.7,495.3 L1029.6,498.3" stroke="rgba(255,255,255,0.14)" stroke-width="1.2" fill="none" stroke-linecap="round" stroke-linejoin="round"/>
  <text x="1143.3" y="322.7" font-family="'Space Mono', monospace" font-size="8" fill="rgba(255,255,255,0.18)" text-anchor="middle" transform="rotate(-62.6,1143.3,322.7)">193</text>
  <path d="M87.4,500.0 L86.5,495.0 L85.3,491.6 L83.6,488.3 L81.6,484.9 L79.4,481.6 L77.1,478.3 L74.7,474.9 L72.4,471.6 L70.1,468.3 L68.1,465.3 L66.1,462.3 L64.1,459.1 L62.1,455.9 L60.1,452.5 L58.1,449.0 L56.1,445.4 L54.1,441.7 L52.3,438.1 L50.6,434.8 L49.0,431.4 L47.5,428.1 L45.9,424.7 L44.1,420.4 L42.4,416.4 L41.0,413.0 L39.7,409.7 L38.1,405.3 L36.6,401.3 L35.4,398.0 L34.1,394.1 L32.6,389.6 L31.4,386.3 L30.1,382.0 L28.8,377.9 L27.7,374.6 L26.1,369.6 L25.1,366.2 L24.0,362.8 L22.5,357.9 L21.4,354.5 L20.0,350.3 L18.6,346.2 L17.4,342.8 L16.0,339.0 L14.2,334.4 L12.7,331.1 L11.1,327.8 L9.2,324.4 L6.9,321.1 L4.0,317.9 L0.3,316.1" stroke="rgba(255,255,255,0.14)" stroke-width="1.2" fill="none" stroke-linecap="round" stroke-linejoin="round"/>
  <text x="54.1" y="441.7" font-family="'Space Mono', monospace" font-size="8" fill="rgba(255,255,255,0.18)" text-anchor="middle" transform="rotate(62.8,54.1,441.7)">193</text>
  <path d="M960.3,500.0 L958.7,496.7 L955.6,493.7 L953.0,491.6 L949.6,489.4 L945.6,486.9 L942.3,484.9 L939.5,483.3 L935.6,480.9 L931.6,478.5 L928.4,476.6 L925.5,474.8 L921.5,472.2 L918.1,469.9 L915.5,468.2 L911.5,465.3 L908.6,463.2 L905.5,460.9 L901.9,458.2 L899.5,456.4 L895.5,453.2 L893.3,451.5 L889.5,448.5 L887.0,446.5 L883.5,443.7 L880.6,441.5 L877.5,439.1 L873.9,436.5 L871.5,434.7 L867.4,431.9 L864.2,429.8 L861.4,428.0 L857.4,425.7 L853.4,423.6 L849.4,421.8 L845.4,420.2 L841.4,418.8 L837.4,417.7 L831.4,416.6 L827.4,416.1 L821.4,415.9 L815.4,416.2 L811.4,416.8 L805.4,418.1 L801.3,419.2 L797.3,420.7 L793.3,422.3 L789.3,424.2 L785.3,426.4 L782.4,428.1 L779.3,430.0 L775.3,432.7 L772.5,434.8 L769.3,437.2 L766.0,439.8 L763.3,442.1 L760.1,444.8 L757.3,447.3 L754.5,449.8 L751.3,452.8 L749.0,454.8 L745.5,458.2 L743.2,460.3 L740.2,463.2 L737.2,466.0 L734.9,468.2 L731.4,471.6 L729.2,473.7 L726.2,476.6 L723.2,479.5 L721.2,481.6 L718.0,484.9 L715.2,488.3 L713.2,491.1 L711.2,494.8 L710.1,498.3" stroke="rgba(255,255,255,0.14)" stroke-width="1.2" fill="none" stroke-linecap="round" stroke-linejoin="round"/>
  <text x="880.6" y="441.5" font-family="'Space Mono', monospace" font-size="8" fill="rgba(255,255,255,0.18)" text-anchor="middle" transform="rotate(37.5,880.6,441.5)">193</text>
  <path d="M947.2,0.0 L947.9,3.3 L949.6,7.2 L951.6,10.2 L954.2,13.4 L957.4,16.7 L959.6,18.9 L962.6,21.7 L965.6,24.4 L968.3,26.8 L971.6,29.6 L974.2,31.8 L977.6,34.7 L980.1,36.8 L983.6,39.7 L986.2,41.8 L989.6,44.6 L992.4,46.8 L995.7,49.4 L998.8,51.8 L1001.7,54.0 L1005.5,56.9 L1007.7,58.5 L1011.7,61.3 L1014.8,63.5 L1017.7,65.5 L1021.7,68.1 L1025.0,70.2 L1027.7,71.9 L1031.7,74.3 L1035.7,76.7 L1039.1,78.6 L1042.2,80.3 L1045.7,82.2 L1049.7,84.3 L1053.8,86.4 L1057.8,88.4 L1061.6,90.3 L1065.0,92.0 L1068.4,93.6 L1071.8,95.3 L1075.8,97.3 L1079.8,99.3 L1083.8,101.3 L1087.8,103.3 L1091.6,105.4 L1094.7,107.0 L1097.8,108.8 L1101.8,111.1 L1105.8,113.5 L1108.8,115.4 L1111.9,117.4 L1115.9,120.1 L1118.6,122.1 L1121.9,124.6 L1125.0,127.1 L1127.9,129.6 L1130.7,132.1 L1133.9,135.2 L1135.9,137.3 L1138.8,140.5 L1141.7,143.8 L1143.9,146.7 L1145.9,149.4 L1147.9,152.3 L1149.9,155.5 L1151.9,158.9 L1153.9,162.8 L1155.9,167.1 L1157.3,170.6 L1158.5,173.9 L1159.9,178.4 L1160.9,182.3 L1161.9,187.2 L1162.5,190.6 L1163.0,195.7 L1163.3,200.7 L1163.2,205.7 L1162.9,210.7 L1162.3,215.7 L1161.8,219.1 L1160.8,224.1 L1159.9,227.7 L1158.6,232.4 L1157.5,235.8 L1155.9,240.2 L1154.4,244.1 L1153.0,247.5 L1151.5,250.8 L1149.9,254.2 L1147.9,258.2 L1145.9,262.0 L1143.9,265.7 L1141.9,269.2 L1140.0,272.6 L1138.1,275.9 L1136.2,279.3 L1134.2,282.6 L1132.3,286.0 L1130.3,289.3 L1128.4,292.6 L1126.5,296.0 L1124.7,299.3 L1122.9,302.7 L1121.2,306.0 L1119.5,309.4 L1117.9,312.9 L1115.9,317.3 L1114.2,321.1 L1112.8,324.4 L1111.5,327.8 L1109.8,332.2 L1108.5,336.1 L1107.3,339.5 L1105.8,344.0 L1104.6,347.8 L1103.6,351.2 L1102.1,356.2 L1101.2,359.5 L1099.8,364.2 L1098.8,367.9 L1097.8,371.2 L1096.3,376.3 L1095.3,379.6 L1093.8,384.2 L1092.6,388.0 L1091.4,391.3 L1089.8,395.8 L1088.3,399.7 L1087.0,403.0 L1085.6,406.4 L1083.8,410.2 L1081.8,414.4 L1079.9,418.1 L1078.0,421.4 L1076.0,424.7 L1073.9,428.1 L1071.8,431.2 L1069.8,433.9 L1067.8,436.5 L1065.1,439.8 L1062.1,443.1 L1059.8,445.6 L1057.1,448.2 L1053.8,451.1 L1051.3,453.2 L1047.7,455.9 L1044.4,458.2 L1041.7,459.9 L1037.7,462.2 L1033.7,464.3 L1029.7,466.1 L1025.7,467.7 L1021.7,469.1 L1017.7,470.2 L1012.0,471.6 L1007.7,472.3 L1001.7,473.0 L996.6,473.2 L993.1,473.2 L987.6,473.0 L981.6,472.3 L977.4,471.6 L971.6,470.3 L967.6,469.2 L963.6,467.9 L959.6,466.4 L955.6,464.8 L951.6,463.0 L947.6,461.0 L943.6,458.9 L939.6,456.5 L936.9,454.8 L933.6,452.7 L929.5,449.8 L927.3,448.2 L923.5,445.3 L920.9,443.1 L917.5,440.4 L914.9,438.1 L911.5,435.1 L909.4,433.1 L905.8,429.8 L903.5,427.6 L900.5,424.7 L897.5,421.8 L895.3,419.7 L891.8,416.4 L889.5,414.2 L886.5,411.4 L883.5,408.7 L880.8,406.4 L877.5,403.5 L874.7,401.3 L871.5,398.8 L867.8,396.3 L865.3,394.6 L861.4,392.4 L857.4,390.3 L853.4,388.4 L849.4,386.9 L845.4,385.6 L841.4,384.5 L835.4,383.4 L831.4,382.9 L825.4,382.6 L819.4,382.7 L815.4,383.1 L809.3,384.0 L805.3,384.8 L800.0,386.3 L795.3,387.9 L791.3,389.5 L787.3,391.3 L783.9,393.0 L780.9,394.6 L777.3,396.8 L773.3,399.4 L770.6,401.3 L767.3,403.8 L764.1,406.4 L761.3,408.7 L758.3,411.4 L755.3,414.2 L752.9,416.4 L749.5,419.7 L747.2,422.0 L744.6,424.7 L741.5,428.1 L739.2,430.5 L736.8,433.1 L733.7,436.5 L731.2,439.1 L729.0,441.5 L725.9,444.8 L723.2,447.7 L721.2,449.8 L718.0,453.2 L715.2,456.0 L713.0,458.2 L709.6,461.5 L707.2,463.8 L704.3,466.6 L701.2,469.4 L698.7,471.6 L695.2,474.7 L692.9,476.6 L689.1,479.8 L687.1,481.6 L683.4,484.9 L681.1,487.1 L678.3,490.0 L675.7,493.3 L673.9,496.7 L673.0,500.0" stroke="rgba(255,255,255,0.14)" stroke-width="1.2" fill="none" stroke-linecap="round" stroke-linejoin="round"/>
  <text x="1155.9" y="240.2" font-family="'Space Mono', monospace" font-size="8" fill="rgba(255,255,255,0.18)" text-anchor="middle" transform="rotate(-68.6,1155.9,240.2)">240</text>
  <path d="M114.3,500.0 L113.7,496.7 L112.2,492.6 L110.2,489.0 L108.2,486.0 L106.1,483.3 L103.5,479.9 L100.7,476.6 L98.2,473.4 L96.2,470.9 L94.0,468.2 L91.5,464.9 L89.0,461.5 L86.6,458.2 L84.3,454.8 L82.1,451.6 L80.1,448.5 L78.1,445.2 L76.1,441.8 L74.1,438.3 L72.2,434.8 L70.4,431.4 L68.7,428.1 L67.1,424.7 L65.5,421.4 L64.0,418.1 L62.1,413.7 L60.4,409.7 L59.1,406.4 L57.8,403.0 L56.1,398.5 L54.7,394.6 L53.6,391.3 L52.1,386.9 L50.8,382.9 L49.8,379.6 L48.3,374.6 L47.3,371.2 L46.1,367.0 L44.9,362.9 L44.0,359.5 L42.6,354.5 L41.8,351.2 L40.4,346.2 L39.5,342.8 L38.2,337.8 L37.3,334.4 L36.1,329.7 L35.1,326.1 L34.1,322.4 L32.7,317.7 L31.7,314.4 L30.2,309.4 L29.1,306.0 L28.0,302.7 L26.3,297.7 L25.0,294.3 L23.7,291.0 L22.0,286.8 L20.2,282.6 L18.6,279.3 L16.8,275.9 L14.9,272.6 L12.8,269.2 L10.3,265.9 L8.0,263.4 L4.8,260.9 L0.8,259.2" stroke="rgba(255,255,255,0.14)" stroke-width="1.2" fill="none" stroke-linecap="round" stroke-linejoin="round"/>
  <text x="68.7" y="428.1" font-family="'Space Mono', monospace" font-size="8" fill="rgba(255,255,255,0.18)" text-anchor="middle" transform="rotate(63.9,68.7,428.1)">240</text>
  <path d="M507.4,500.0 L506.1,496.7 L503.1,493.3 L500.8,491.6 L496.8,489.1 L492.8,487.0 L488.8,485.2 L484.8,483.7 L480.8,482.4 L476.8,481.3 L470.8,480.1 L466.8,479.5 L460.8,479.1 L454.8,479.1 L448.7,479.6 L444.7,480.2 L438.7,481.6 L434.7,482.8 L430.7,484.3 L426.7,486.0 L422.7,488.1 L419.7,490.0 L416.7,492.3 L414.1,495.0 L412.2,498.3" stroke="rgba(255,255,255,0.14)" stroke-width="1.2" fill="none" stroke-linecap="round" stroke-linejoin="round"/>
  <text x="480.8" y="482.4" font-family="'Space Mono', monospace" font-size="8" fill="rgba(255,255,255,0.18)" text-anchor="middle" transform="rotate(15.2,480.8,482.4)">240</text>
  <path d="M223.8,0.0 L225.2,3.3 L228.3,6.7 L230.6,8.4 L234.4,10.6 L238.4,12.5 L242.4,14.1 L246.4,15.5 L250.6,16.7 L256.4,18.1 L260.4,18.9 L266.4,19.8 L270.5,20.3 L276.5,20.7 L282.5,20.8 L288.5,20.7 L294.5,20.3 L298.5,20.0 L304.5,19.2 L309.6,18.4 L314.5,17.5 L318.5,16.6 L324.5,15.2 L328.5,14.1 L332.6,12.9 L336.6,11.6 L340.7,10.0 L344.6,8.3 L348.6,6.2 L352.5,3.3 L354.6,0.0" stroke="rgba(255,255,255,0.14)" stroke-width="1.2" fill="none" stroke-linecap="round" stroke-linejoin="round"/>
  <text x="260.4" y="18.9" font-family="'Space Mono', monospace" font-size="8" fill="rgba(255,255,255,0.18)" text-anchor="middle" transform="rotate(8.6,260.4,18.9)">286</text>
  <path d="M539.2,0.0 L541.1,3.3 L544.9,6.2 L548.9,8.3 L552.9,10.0 L556.9,11.5 L560.9,12.7 L564.9,13.8 L570.4,15.1 L575.0,15.9 L580.9,16.7 L585.0,17.1 L591.0,17.5 L597.0,17.5 L603.0,17.2 L608.4,16.7 L613.0,16.1 L618.4,15.1 L623.0,13.9 L627.0,12.8 L631.1,11.4 L635.1,9.8 L639.1,7.7 L643.0,5.0 L645.1,2.7" stroke="rgba(255,255,255,0.14)" stroke-width="1.2" fill="none" stroke-linecap="round" stroke-linejoin="round"/>
  <text x="570.4" y="15.1" font-family="'Space Mono', monospace" font-size="8" fill="rgba(255,255,255,0.18)" text-anchor="middle" transform="rotate(10.3,570.4,15.1)">286</text>
  <path d="M909.2,0.0 L909.9,3.3 L911.6,6.7 L914.1,10.0 L917.2,13.4 L919.5,15.7 L922.5,18.4 L925.5,21.0 L928.4,23.4 L931.6,26.1 L934.4,28.4 L937.6,31.1 L940.3,33.4 L943.6,36.3 L946.1,38.5 L949.6,41.5 L951.8,43.5 L955.5,46.8 L957.6,48.7 L961.1,51.8 L963.6,54.2 L966.6,56.9 L969.6,59.6 L972.1,61.9 L975.6,65.0 L977.7,66.9 L981.5,70.2 L983.6,72.1 L987.3,75.3 L989.6,77.3 L993.3,80.3 L995.7,82.2 L999.6,85.3 L1001.7,87.0 L1005.7,89.9 L1008.5,92.0 L1011.7,94.3 L1015.7,97.0 L1018.2,98.7 L1021.7,100.9 L1025.7,103.4 L1029.0,105.4 L1031.8,107.0 L1035.7,109.2 L1039.7,111.4 L1043.7,113.6 L1047.2,115.4 L1050.4,117.1 L1053.8,118.8 L1057.8,120.8 L1061.8,122.9 L1065.8,125.0 L1069.8,127.1 L1072.9,128.8 L1075.9,130.4 L1079.8,132.6 L1083.8,135.0 L1087.2,137.1 L1089.8,138.9 L1093.8,141.6 L1096.8,143.8 L1099.8,146.2 L1102.9,148.8 L1105.8,151.5 L1108.3,153.8 L1111.5,157.2 L1113.9,160.0 L1115.9,162.5 L1118.0,165.6 L1120.2,168.9 L1122.1,172.2 L1123.9,175.7 L1125.9,180.3 L1127.1,183.9 L1128.1,187.3 L1129.2,192.3 L1129.9,196.6 L1130.2,200.7 L1130.3,205.7 L1130.1,210.7 L1129.7,214.0 L1128.9,219.1 L1127.9,223.8 L1126.9,227.4 L1125.8,230.8 L1124.0,235.8 L1122.7,239.1 L1121.3,242.5 L1119.7,245.8 L1117.9,249.6 L1115.9,253.5 L1113.9,257.3 L1111.9,260.9 L1110.0,264.2 L1108.2,267.6 L1106.3,270.9 L1104.4,274.2 L1102.6,277.6 L1100.8,280.9 L1099.1,284.3 L1097.4,287.6 L1095.8,291.0 L1093.8,295.3 L1092.1,299.3 L1090.7,302.7 L1089.5,306.0 L1087.8,310.7 L1086.6,314.4 L1085.6,317.7 L1084.2,322.7 L1083.3,326.1 L1082.1,331.1 L1081.3,334.4 L1080.2,339.5 L1079.5,342.8 L1078.5,347.8 L1077.8,351.3 L1076.8,356.2 L1075.8,360.9 L1075.0,364.5 L1073.8,369.6 L1073.0,372.9 L1071.8,377.4 L1070.7,381.3 L1069.6,384.6 L1068.0,389.6 L1066.7,393.0 L1065.4,396.3 L1063.8,400.1 L1061.8,404.3 L1059.8,408.0 L1057.9,411.4 L1055.8,414.7 L1053.8,417.7 L1051.8,420.4 L1049.7,423.1 L1046.7,426.4 L1043.7,429.5 L1041.7,431.4 L1037.7,434.8 L1035.5,436.5 L1031.7,439.1 L1027.7,441.4 L1024.4,443.1 L1020.7,444.8 L1016.2,446.5 L1011.7,447.8 L1007.7,448.7 L1001.7,449.6 L997.7,449.9 L991.7,450.0 L987.6,449.7 L981.6,448.9 L977.6,448.1 L971.9,446.5 L967.6,445.0 L963.6,443.4 L959.6,441.5 L956.3,439.8 L953.4,438.1 L949.6,435.8 L945.7,433.1 L943.4,431.4 L939.6,428.4 L937.2,426.4 L933.6,423.2 L931.6,421.3 L928.2,418.1 L925.5,415.3 L923.4,413.0 L920.4,409.7 L917.5,406.5 L915.5,404.1 L913.1,401.3 L910.3,398.0 L907.5,394.7 L905.5,392.3 L903.3,389.6 L900.3,386.3 L897.5,383.1 L895.5,381.0 L892.5,377.9 L889.5,375.0 L887.2,372.9 L883.5,369.7 L881.1,367.9 L877.5,365.4 L873.5,362.9 L870.4,361.2 L867.0,359.5 L863.0,357.9 L858.3,356.2 L853.4,354.8 L849.4,353.9 L843.4,353.0 L839.4,352.5 L833.4,352.2 L827.4,352.2 L821.4,352.5 L817.4,352.9 L811.4,353.7 L806.8,354.5 L801.3,355.7 L797.3,356.8 L793.3,358.0 L789.1,359.5 L784.8,361.2 L781.0,362.9 L777.3,364.7 L773.3,366.8 L769.3,369.2 L766.2,371.2 L763.3,373.3 L759.3,376.3 L757.2,377.9 L753.3,381.3 L751.3,383.1 L747.9,386.3 L745.2,389.0 L743.0,391.3 L739.9,394.6 L737.2,397.7 L735.2,400.0 L732.7,403.0 L729.9,406.4 L727.2,409.6 L725.2,412.1 L723.1,414.7 L720.4,418.1 L717.7,421.4 L715.2,424.5 L713.2,426.9 L710.8,429.8 L707.9,433.1 L705.2,436.3 L703.2,438.5 L700.5,441.5 L697.3,444.8 L695.2,447.1 L692.4,449.8 L689.1,452.9 L687.1,454.8 L683.3,458.2 L681.1,460.0 L677.2,463.2 L675.0,464.9 L671.1,467.8 L668.1,469.9 L665.1,471.9 L661.1,474.4 L657.6,476.6 L654.7,478.3 L651.1,480.3 L647.1,482.5 L643.1,484.6 L639.1,486.6 L635.8,488.3 L632.5,490.0 L629.0,491.8 L625.0,494.1 L621.2,496.7 L619.0,499.1" stroke="rgba(255,255,255,0.14)" stroke-width="1.2" fill="none" stroke-linecap="round" stroke-linejoin="round"/>
  <text x="1121.3" y="242.5" font-family="'Space Mono', monospace" font-size="8" fill="rgba(255,255,255,0.18)" text-anchor="middle" transform="rotate(-65.3,1121.3,242.5)">286</text>
  <path d="M140.1,500.0 L138.8,495.0 L137.0,491.6 L134.6,488.3 L132.2,485.5 L130.2,483.3 L127.1,479.9 L124.2,477.0 L122.2,474.9 L119.1,471.6 L116.2,468.5 L114.2,466.2 L111.6,463.2 L108.8,459.9 L106.2,456.6 L104.2,454.0 L102.2,451.3 L99.9,448.2 L97.7,444.8 L95.5,441.5 L93.3,438.1 L91.3,434.8 L89.4,431.4 L87.5,428.1 L85.7,424.7 L84.0,421.4 L82.1,417.6 L80.1,413.3 L78.5,409.7 L77.1,406.4 L75.7,403.0 L74.1,399.1 L72.4,394.6 L71.2,391.3 L70.1,388.0 L68.4,382.9 L67.3,379.6 L66.1,375.7 L64.8,371.2 L63.8,367.9 L62.4,362.9 L61.5,359.5 L60.2,354.5 L59.4,351.2 L58.1,346.2 L57.3,342.8 L56.1,337.9 L55.3,334.4 L54.1,329.6 L53.2,326.1 L52.1,321.4 L51.2,317.7 L50.1,313.5 L49.0,309.4 L48.1,305.9 L46.7,301.0 L45.8,297.7 L44.3,292.6 L43.2,289.3 L42.1,285.8 L40.4,280.9 L39.2,277.6 L38.0,274.2 L36.1,269.2 L34.7,265.9 L33.3,262.5 L31.8,259.2 L30.1,255.3 L28.0,251.2 L26.2,247.5 L24.4,244.1 L22.5,240.8 L20.6,237.5 L18.5,234.1 L16.2,230.8 L14.0,227.9 L12.0,225.5 L9.0,222.4 L6.0,220.1 L2.0,218.2" stroke="rgba(255,255,255,0.14)" stroke-width="1.2" fill="none" stroke-linecap="round" stroke-linejoin="round"/>
  <text x="82.1" y="417.6" font-family="'Space Mono', monospace" font-size="8" fill="rgba(255,255,255,0.18)" text-anchor="middle" transform="rotate(64.8,82.1,417.6)">286</text>
  <path d="M575.1,500.0 L573.0,497.2 L569.9,495.0 L566.9,493.3 L562.9,491.3 L558.9,489.4 L554.9,487.6 L550.9,485.7 L546.9,483.9 L542.9,482.1 L538.9,480.2 L534.9,478.4 L531.1,476.6 L527.6,474.9 L524.1,473.2 L520.7,471.6 L516.9,469.7 L512.9,467.7 L508.8,465.8 L504.8,463.9 L500.8,462.0 L496.8,460.3 L492.8,458.6 L488.8,457.0 L484.8,455.6 L480.8,454.4 L476.1,453.2 L470.8,452.2 L464.8,451.5 L460.8,451.4 L456.8,451.5 L450.8,452.1 L445.3,453.2 L440.7,454.4 L436.7,455.6 L432.7,457.0 L428.7,458.6 L424.7,460.4 L420.7,462.3 L416.7,464.3 L412.7,466.5 L409.5,468.2 L406.6,469.9 L402.7,472.2 L398.7,474.7 L395.6,476.6 L392.7,478.5 L388.6,481.2 L385.8,483.3 L382.6,485.7 L379.5,488.3 L376.6,491.2 L374.6,493.7 L372.6,497.4" stroke="rgba(255,255,255,0.14)" stroke-width="1.2" fill="none" stroke-linecap="round" stroke-linejoin="round"/>
  <text x="508.8" y="465.8" font-family="'Space Mono', monospace" font-size="8" fill="rgba(255,255,255,0.18)" text-anchor="middle" transform="rotate(25.4,508.8,465.8)">286</text>
  <path d="M174.4,0.0 L176.3,4.3 L178.3,6.7 L182.3,10.0 L184.8,11.7 L188.3,13.9 L192.3,16.2 L196.3,18.3 L199.7,20.1 L203.1,21.7 L206.6,23.4 L210.4,25.1 L214.4,26.9 L218.4,28.6 L222.4,30.2 L226.6,31.8 L231.3,33.4 L236.4,35.1 L240.4,36.2 L244.4,37.3 L249.5,38.5 L254.4,39.4 L259.0,40.1 L264.4,40.8 L270.5,41.3 L276.5,41.5 L282.5,41.5 L288.5,41.3 L294.5,40.8 L300.5,40.2 L304.5,39.7 L310.5,38.8 L314.5,38.2 L320.5,37.1 L324.5,36.3 L330.2,35.1 L334.6,34.2 L338.6,33.3 L344.6,31.9 L348.6,30.9 L352.6,30.0 L358.6,28.5 L362.6,27.6 L366.6,26.6 L372.6,25.2 L376.6,24.3 L380.8,23.4 L386.6,22.2 L390.7,21.4 L396.7,20.2 L400.7,19.5 L406.7,18.5 L410.7,18.0 L416.7,17.2 L421.7,16.7 L426.7,16.3 L432.7,16.1 L438.7,16.0 L444.7,16.1 L450.8,16.5 L454.8,16.8 L460.8,17.5 L466.7,18.4 L470.8,19.1 L475.7,20.1 L480.8,21.2 L484.8,22.1 L489.8,23.4 L494.8,24.8 L498.8,26.0 L502.8,27.2 L506.8,28.4 L511.9,30.1 L516.8,31.8 L520.9,33.2 L524.9,34.6 L528.9,36.1 L532.9,37.5 L536.9,39.0 L540.9,40.4 L544.9,41.8 L549.7,43.5 L554.9,45.2 L558.9,46.4 L562.9,47.5 L566.9,48.5 L573.0,49.8 L577.0,50.5 L583.0,51.3 L589.0,51.7 L595.0,51.7 L601.0,51.3 L607.0,50.6 L611.0,49.9 L617.0,48.6 L621.0,47.6 L625.0,46.4 L629.1,45.2 L633.9,43.5 L638.4,41.8 L642.7,40.1 L646.8,38.5 L650.7,36.8 L654.6,35.1 L658.4,33.4 L662.1,31.8 L665.8,30.1 L669.4,28.4 L673.1,26.7 L677.1,24.8 L681.1,22.9 L685.1,21.0 L689.1,19.0 L693.2,17.0 L696.9,15.1 L699.9,13.4 L703.2,11.4 L707.2,8.8 L709.8,6.7 L712.9,3.3 L714.2,0.0" stroke="rgba(255,255,255,0.14)" stroke-width="1.2" fill="none" stroke-linecap="round" stroke-linejoin="round"/>
  <text x="352.6" y="30.0" font-family="'Space Mono', monospace" font-size="8" fill="rgba(255,255,255,0.18)" text-anchor="middle" transform="rotate(-13.4,352.6,30.0)">333</text>
  <path d="M866.1,0.0 L867.4,3.7 L869.7,6.7 L873.3,10.0 L875.5,11.8 L879.5,14.7 L882.3,16.7 L885.5,18.9 L889.5,21.6 L892.1,23.4 L895.5,25.7 L899.4,28.4 L901.7,30.1 L905.5,32.9 L908.5,35.1 L911.5,37.5 L914.8,40.1 L917.5,42.4 L920.8,45.2 L923.5,47.5 L926.5,50.2 L929.5,52.9 L932.0,55.2 L935.5,58.5 L937.6,60.5 L940.7,63.5 L943.6,66.4 L945.7,68.6 L949.0,71.9 L951.6,74.6 L953.9,76.9 L957.1,80.3 L959.6,82.9 L961.9,85.3 L965.1,88.6 L967.6,91.3 L969.9,93.6 L973.1,97.0 L975.6,99.6 L978.0,102.0 L981.3,105.4 L983.6,107.7 L986.4,110.4 L989.6,113.5 L991.7,115.4 L995.3,118.7 L997.7,120.8 L1001.0,123.7 L1003.7,126.0 L1007.1,128.8 L1009.7,130.9 L1013.5,133.8 L1015.7,135.5 L1019.7,138.4 L1022.7,140.5 L1025.7,142.6 L1029.7,145.3 L1032.6,147.2 L1035.7,149.2 L1039.7,151.8 L1042.9,153.8 L1045.7,155.7 L1049.7,158.4 L1052.9,160.5 L1055.8,162.5 L1059.8,165.5 L1061.9,167.2 L1065.8,170.5 L1067.8,172.3 L1071.0,175.6 L1073.8,178.7 L1075.8,181.3 L1077.8,184.2 L1079.8,187.6 L1081.8,191.9 L1083.2,195.7 L1084.0,199.0 L1084.9,204.0 L1085.1,209.0 L1084.8,214.0 L1084.1,219.1 L1083.3,222.4 L1081.8,227.4 L1080.6,230.8 L1079.3,234.1 L1077.8,237.7 L1075.8,242.0 L1073.9,245.8 L1072.2,249.2 L1070.5,252.5 L1068.8,255.9 L1067.1,259.2 L1065.5,262.5 L1063.8,266.1 L1061.8,270.5 L1060.2,274.2 L1058.9,277.6 L1057.8,280.9 L1056.2,286.0 L1055.3,289.3 L1054.1,294.3 L1053.4,297.7 L1052.6,302.7 L1051.9,307.7 L1051.6,311.0 L1051.1,316.1 L1050.8,321.1 L1050.5,326.1 L1050.2,331.1 L1050.0,336.1 L1049.7,339.7 L1049.4,344.5 L1049.0,349.5 L1048.5,354.5 L1047.9,359.5 L1047.4,362.9 L1046.5,367.9 L1045.7,371.4 L1044.5,376.3 L1043.5,379.6 L1041.8,384.6 L1040.4,388.0 L1038.9,391.3 L1037.1,394.6 L1035.1,398.0 L1032.9,401.3 L1030.2,404.7 L1027.7,407.5 L1025.5,409.7 L1021.7,412.9 L1019.1,414.7 L1015.7,416.8 L1011.7,418.7 L1007.7,420.3 L1003.5,421.4 L997.7,422.3 L991.7,422.5 L985.6,421.9 L981.6,421.0 L977.3,419.7 L973.0,418.1 L969.5,416.4 L965.6,414.2 L961.6,411.6 L959.1,409.7 L955.6,406.8 L953.2,404.7 L949.9,401.3 L947.6,398.9 L945.4,396.3 L942.7,393.0 L940.1,389.6 L937.7,386.3 L935.6,383.1 L933.6,380.1 L931.6,376.9 L929.5,373.7 L927.5,370.5 L925.5,367.2 L923.5,364.0 L921.5,360.9 L919.5,357.9 L917.2,354.5 L914.7,351.2 L912.0,347.8 L909.5,345.1 L907.3,342.8 L903.5,339.5 L901.4,337.8 L897.5,335.1 L893.5,332.8 L890.1,331.1 L886.1,329.4 L881.5,327.8 L877.5,326.7 L873.5,325.8 L867.4,324.8 L863.4,324.3 L857.4,323.7 L851.4,323.5 L845.4,323.4 L839.4,323.5 L833.4,323.8 L827.4,324.3 L823.4,324.7 L817.4,325.4 L812.9,326.1 L807.3,327.0 L803.3,327.8 L797.3,329.1 L793.3,330.0 L789.2,331.1 L783.6,332.8 L779.3,334.2 L775.3,335.7 L771.3,337.3 L767.3,339.0 L763.3,341.0 L759.9,342.8 L757.0,344.5 L753.3,346.8 L749.4,349.5 L747.2,351.2 L743.2,354.3 L741.1,356.2 L737.6,359.5 L735.2,361.9 L732.7,364.5 L729.8,367.9 L727.2,370.9 L725.2,373.4 L723.0,376.3 L720.5,379.6 L718.1,382.9 L715.8,386.3 L713.4,389.6 L711.2,392.9 L709.2,395.8 L707.2,398.7 L705.2,401.6 L703.0,404.7 L700.7,408.0 L698.2,411.4 L695.8,414.7 L693.2,418.1 L691.2,420.7 L689.1,423.2 L686.4,426.4 L683.5,429.8 L681.1,432.4 L678.8,434.8 L675.5,438.1 L673.1,440.4 L670.1,443.1 L667.1,445.7 L664.0,448.2 L661.1,450.4 L657.2,453.2 L654.6,454.8 L651.1,457.0 L647.1,459.3 L643.1,461.4 L639.1,463.2 L635.1,464.9 L631.1,466.4 L627.0,467.7 L623.0,468.8 L618.5,469.9 L613.0,470.9 L607.8,471.6 L603.0,471.9 L597.0,472.1 L591.0,471.9 L587.0,471.5 L581.0,470.7 L576.6,469.9 L571.0,468.6 L566.9,467.5 L562.9,466.3 L558.9,464.9 L554.5,463.2 L550.5,461.5 L546.8,459.9 L542.9,458.0 L538.9,456.0 L534.9,453.8 L530.9,451.5 L528.0,449.8 L524.9,448.0 L520.9,445.5 L517.1,443.1 L514.5,441.5 L510.9,439.2 L506.8,436.7 L503.8,434.8 L500.8,433.0 L496.8,430.7 L492.8,428.6 L488.8,426.7 L484.8,425.1 L480.8,423.7 L476.8,422.7 L470.8,421.7 L464.8,421.4 L458.8,421.9 L453.0,423.1 L448.7,424.3 L444.7,425.7 L440.7,427.3 L436.7,429.1 L432.7,431.1 L429.1,433.1 L426.2,434.8 L422.7,436.9 L418.7,439.4 L415.4,441.5 L412.7,443.3 L408.7,446.0 L405.5,448.2 L402.7,450.1 L398.7,452.9 L395.9,454.8 L392.7,457.1 L388.8,459.9 L386.4,461.5 L382.6,464.1 L379.1,466.6 L376.6,468.2 L372.6,471.0 L369.2,473.2 L366.6,475.0 L362.6,477.7 L359.3,479.9 L356.6,481.8 L352.6,484.7 L350.0,486.6 L346.6,489.5 L344.3,491.6 L341.6,495.0 L339.9,498.3" stroke="rgba(255,255,255,0.14)" stroke-width="1.2" fill="none" stroke-linecap="round" stroke-linejoin="round"/>
  <text x="1050.8" y="321.1" font-family="'Space Mono', monospace" font-size="8" fill="rgba(255,255,255,0.18)" text-anchor="middle" transform="rotate(-86.7,1050.8,321.1)">333</text>
  <path d="M167.3,500.0 L166.3,496.3 L164.3,493.0 L161.8,490.0 L158.4,486.6 L156.3,484.7 L152.7,481.6 L150.3,479.6 L146.7,476.6 L144.2,474.4 L141.0,471.6 L138.2,469.1 L135.6,466.6 L132.2,463.3 L130.2,461.2 L127.4,458.2 L124.3,454.8 L122.2,452.4 L120.1,449.8 L117.4,446.5 L114.9,443.1 L112.5,439.8 L110.2,436.5 L108.2,433.4 L106.2,430.3 L104.2,427.0 L102.2,423.5 L100.2,419.9 L98.3,416.4 L96.6,413.0 L95.0,409.7 L93.4,406.4 L92.0,403.0 L90.2,398.7 L88.5,394.6 L87.2,391.3 L86.0,388.0 L84.2,382.9 L83.1,379.6 L82.1,376.3 L80.5,371.2 L79.6,367.9 L78.2,362.9 L77.3,359.5 L76.1,355.0 L75.2,351.2 L74.1,346.8 L73.2,342.8 L72.1,338.1 L71.3,334.4 L70.2,329.4 L69.4,326.1 L68.3,321.1 L67.6,317.7 L66.5,312.7 L65.7,309.4 L64.5,304.3 L63.7,301.0 L62.5,296.0 L61.6,292.6 L60.3,287.6 L59.3,284.3 L58.1,280.1 L56.8,275.9 L55.7,272.6 L54.1,267.8 L52.8,264.2 L51.6,260.9 L50.1,257.1 L48.2,252.5 L46.8,249.2 L45.3,245.8 L43.8,242.5 L42.1,238.8 L40.1,234.6 L38.1,230.8 L36.4,227.4 L34.7,224.1 L32.9,220.7 L31.1,217.4 L29.2,214.0 L27.3,210.7 L25.4,207.4 L23.4,204.0 L21.3,200.7 L19.2,197.3 L17.0,194.0 L14.6,190.6 L12.0,187.3 L10.0,185.1 L7.0,182.3 L4.0,180.2 L0.0,178.9" stroke="rgba(255,255,255,0.14)" stroke-width="1.2" fill="none" stroke-linecap="round" stroke-linejoin="round"/>
  <text x="93.4" y="406.4" font-family="'Space Mono', monospace" font-size="8" fill="rgba(255,255,255,0.18)" text-anchor="middle" transform="rotate(66.1,93.4,406.4)">333</text>
  <path d="M201.2,500.0 L199.8,496.7 L196.6,493.3 L194.3,491.4 L190.3,488.6 L187.3,486.6 L184.3,484.8 L180.3,482.3 L176.6,479.9 L173.9,478.3 L170.3,475.9 L166.3,473.2 L164.0,471.6 L160.3,468.9 L157.2,466.6 L154.3,464.2 L151.1,461.5 L148.2,459.1 L145.5,456.5 L142.2,453.4 L140.2,451.3 L137.2,448.2 L134.2,444.8 L132.2,442.4 L130.0,439.8 L127.4,436.5 L124.9,433.1 L122.6,429.8 L120.3,426.4 L118.2,423.1 L116.2,419.8 L114.2,416.4 L112.3,413.0 L110.6,409.7 L108.9,406.4 L107.3,403.0 L105.7,399.7 L104.2,396.1 L102.2,391.3 L100.9,388.0 L99.7,384.6 L98.2,380.4 L96.8,376.3 L95.7,372.9 L94.2,367.9 L93.2,364.5 L92.2,360.5 L91.0,356.2 L90.2,352.6 L89.0,347.8 L88.1,344.0 L87.2,339.5 L86.1,334.6 L85.4,331.1 L84.4,326.1 L83.8,322.7 L82.8,317.7 L82.1,314.3 L81.2,309.4 L80.2,304.3 L79.5,301.0 L78.5,296.0 L77.7,292.6 L76.6,287.6 L75.8,284.3 L74.6,279.3 L73.7,275.9 L72.3,270.9 L71.4,267.6 L70.1,263.5 L68.7,259.2 L67.6,255.9 L66.1,251.7 L64.5,247.5 L63.2,244.1 L61.8,240.8 L60.1,236.8 L58.2,232.4 L56.6,229.1 L55.0,225.8 L53.4,222.4 L51.7,219.1 L50.0,215.7 L48.1,212.1 L46.1,208.2 L44.1,204.5 L42.1,200.7 L40.3,197.3 L38.5,194.0 L36.7,190.6 L35.0,187.3 L33.3,183.9 L31.6,180.6 L29.9,177.3 L28.0,173.5 L26.0,169.4 L24.2,165.6 L22.7,162.2 L21.2,158.9 L19.7,155.5 L18.0,151.7 L16.1,147.2 L14.7,143.8 L13.4,140.5 L12.0,136.9 L10.2,132.1 L9.1,128.8 L8.0,125.3 L6.6,120.4 L5.9,117.1 L5.3,112.0 L5.4,107.0 L6.0,103.4 L7.1,98.7 L8.2,95.3 L10.0,90.3 L11.3,87.0 L12.7,83.6 L14.3,80.3 L16.0,76.6 L18.0,72.7 L20.0,69.0 L22.0,65.5 L24.0,62.2 L26.0,59.1 L28.0,56.2 L30.1,53.4 L32.6,50.2 L35.4,46.8 L38.1,43.9 L40.1,41.8 L43.6,38.5 L46.1,36.3 L49.6,33.4 L52.1,31.6 L56.1,28.8 L59.4,26.8 L62.2,25.1 L66.1,23.0 L70.1,21.0 L74.1,19.2 L78.1,17.6 L82.1,16.1 L86.1,14.8 L91.4,13.4 L96.2,12.3 L100.2,11.7 L106.2,11.1 L112.2,11.1 L118.2,11.6 L122.2,12.1 L128.2,13.3 L132.2,14.2 L136.2,15.3 L141.1,16.7 L146.2,18.4 L150.3,19.8 L154.3,21.2 L158.3,22.8 L162.3,24.4 L166.3,26.0 L170.3,27.8 L174.3,29.5 L178.3,31.3 L182.3,33.2 L186.3,35.0 L190.1,36.8 L193.6,38.5 L197.2,40.1 L200.8,41.8 L204.5,43.5 L208.3,45.2 L212.4,46.9 L216.4,48.6 L220.4,50.2 L225.0,51.8 L229.9,53.5 L234.4,54.9 L238.4,56.0 L242.4,57.0 L248.4,58.2 L252.4,58.9 L258.4,59.6 L264.4,60.2 L268.4,60.4 L274.5,60.5 L280.5,60.4 L284.5,60.2 L290.5,59.7 L296.5,59.1 L301.3,58.5 L306.5,57.8 L312.3,56.9 L316.5,56.1 L321.4,55.2 L326.5,54.2 L330.6,53.4 L336.6,52.1 L340.6,51.2 L345.5,50.2 L350.6,49.1 L354.6,48.2 L360.6,46.9 L364.6,46.1 L369.4,45.2 L374.6,44.1 L378.6,43.4 L384.6,42.4 L388.6,41.8 L394.7,40.9 L400.7,40.2 L404.7,39.8 L410.7,39.3 L416.7,38.9 L422.7,38.8 L428.7,38.8 L434.7,38.9 L440.7,39.3 L446.7,39.9 L450.8,40.4 L456.8,41.3 L460.8,42.1 L466.8,43.4 L470.8,44.4 L474.8,45.5 L479.2,46.8 L484.3,48.5 L488.8,50.2 L492.8,51.7 L496.8,53.4 L500.8,55.2 L504.3,56.9 L507.7,58.5 L511.0,60.2 L514.9,62.3 L518.9,64.5 L522.9,66.9 L525.7,68.6 L528.9,70.5 L532.9,73.0 L536.4,75.3 L538.9,76.9 L542.9,79.5 L546.6,81.9 L549.2,83.6 L552.9,86.0 L556.9,88.5 L560.1,90.3 L563.1,92.0 L566.9,94.0 L571.0,95.8 L575.0,97.3 L580.1,98.7 L585.0,99.4 L591.0,99.4 L596.1,98.7 L601.0,97.4 L605.0,96.1 L609.0,94.4 L613.0,92.5 L617.0,90.4 L620.2,88.6 L623.1,87.0 L627.0,84.6 L631.1,82.1 L633.9,80.3 L637.1,78.3 L641.1,75.6 L644.2,73.6 L647.1,71.7 L651.1,69.1 L654.4,66.9 L657.1,65.1 L661.1,62.6 L664.8,60.2 L667.5,58.5 L671.1,56.3 L675.1,53.8 L678.4,51.8 L681.3,50.2 L685.1,47.9 L689.1,45.7 L693.2,43.5 L696.3,41.8 L699.5,40.1 L703.2,38.3 L707.2,36.4 L711.2,34.5 L715.2,32.7 L719.2,30.9 L723.2,29.3 L727.2,27.7 L731.2,26.1 L735.2,24.7 L739.2,23.3 L744.0,21.7 L749.2,20.1 L753.3,19.0 L757.3,17.9 L762.3,16.7 L767.3,15.6 L771.3,14.9 L777.3,13.9 L782.0,13.4 L787.3,12.9 L793.3,12.8 L799.3,12.9 L805.3,13.3 L809.3,13.8 L815.4,14.8 L819.4,15.5 L824.6,16.7 L829.4,18.0 L833.4,19.1 L837.4,20.4 L841.5,21.7 L846.1,23.4 L850.4,25.1 L854.4,26.8 L858.1,28.4 L861.7,30.1 L865.4,32.0 L869.4,34.1 L873.5,36.3 L877.0,38.5 L879.7,40.1 L883.5,42.6 L887.3,45.2 L889.6,46.8 L893.5,49.7 L896.2,51.8 L899.5,54.5 L902.3,56.9 L905.5,59.6 L908.0,61.9 L911.5,65.2 L913.5,67.1 L916.7,70.2 L919.5,73.2 L921.5,75.3 L924.6,78.6 L927.5,81.9 L929.5,84.2 L931.9,87.0 L934.7,90.3 L937.5,93.6 L939.6,96.3 L941.6,98.8 L944.0,102.0 L946.5,105.4 L949.0,108.7 L951.4,112.0 L953.6,115.1 L955.6,118.0 L957.6,120.9 L959.6,123.8 L961.8,127.1 L964.0,130.4 L966.1,133.8 L968.2,137.1 L970.3,140.5 L972.3,143.8 L974.3,147.2 L976.2,150.5 L978.1,153.8 L979.9,157.2 L981.7,160.5 L983.6,164.5 L985.6,168.8 L987.1,172.2 L988.5,175.6 L989.7,178.9 L991.3,183.9 L992.1,187.3 L993.1,192.3 L993.7,197.1 L993.8,200.7 L993.7,205.1 L993.2,209.0 L992.3,214.0 L991.4,217.4 L989.8,222.4 L988.5,225.8 L987.0,229.1 L985.4,232.4 L983.6,235.8 L981.6,239.3 L979.6,242.7 L977.6,245.8 L975.4,249.2 L973.1,252.5 L970.6,255.9 L967.9,259.2 L965.6,261.8 L963.4,264.2 L959.9,267.6 L957.6,269.6 L953.6,272.6 L951.1,274.2 L947.6,276.2 L943.6,278.1 L939.6,279.7 L935.6,281.0 L929.6,282.6 L925.5,283.5 L921.5,284.4 L915.5,285.5 L911.5,286.2 L905.5,287.1 L901.5,287.7 L895.5,288.6 L890.8,289.3 L885.5,290.1 L879.5,290.9 L875.5,291.5 L869.4,292.3 L865.4,292.9 L859.4,293.7 L855.2,294.3 L849.4,295.1 L843.4,296.0 L839.4,296.6 L833.4,297.4 L829.4,298.0 L823.4,298.9 L819.4,299.5 L813.4,300.5 L809.3,301.1 L803.3,302.1 L799.3,302.8 L793.3,303.9 L789.3,304.6 L783.3,305.8 L779.3,306.7 L774.8,307.7 L769.3,309.0 L765.3,310.1 L761.3,311.3 L756.7,312.7 L751.9,314.4 L747.6,316.1 L743.7,317.7 L740.2,319.4 L737.0,321.1 L733.2,323.3 L729.2,325.9 L726.7,327.8 L723.2,330.6 L720.8,332.8 L717.4,336.1 L715.2,338.6 L713.1,341.1 L710.5,344.5 L708.1,347.8 L705.9,351.2 L703.9,354.5 L701.9,357.9 L700.0,361.2 L698.2,364.5 L696.3,367.9 L694.6,371.2 L692.8,374.6 L691.0,377.9 L689.1,381.4 L687.1,385.0 L685.1,388.6 L683.1,392.0 L681.1,395.4 L679.1,398.6 L677.1,401.6 L675.1,404.7 L672.7,408.0 L670.1,411.4 L667.4,414.7 L665.1,417.4 L663.0,419.7 L659.8,423.1 L657.1,425.7 L654.4,428.1 L651.1,430.9 L648.2,433.1 L645.1,435.3 L641.1,437.9 L637.8,439.8 L634.6,441.5 L631.0,443.1 L626.9,444.8 L622.0,446.5 L617.0,447.9 L613.0,448.7 L607.0,449.6 L603.0,449.9 L597.0,450.0 L593.0,449.8 L587.0,449.2 L581.4,448.2 L577.0,447.1 L573.0,445.9 L568.9,444.5 L564.9,442.9 L560.9,441.1 L556.9,439.1 L552.9,436.9 L549.5,434.8 L546.9,433.1 L542.9,430.3 L540.0,428.1 L536.9,425.6 L533.9,423.1 L530.9,420.5 L528.3,418.1 L524.9,414.8 L522.9,412.8 L519.8,409.7 L516.9,406.7 L514.9,404.5 L511.8,401.3 L508.8,398.2 L506.8,396.2 L503.6,393.0 L500.8,390.4 L497.9,388.0 L494.8,385.7 L490.8,383.3 L486.8,381.6 L482.8,380.6 L476.8,380.3 L470.8,381.1 L466.8,382.3 L462.8,383.8 L458.8,385.6 L454.8,387.8 L451.6,389.6 L448.7,391.4 L444.7,394.0 L441.5,396.3 L438.7,398.3 L434.7,401.3 L432.5,403.0 L428.7,406.0 L426.3,408.0 L422.7,410.9 L420.2,413.0 L416.7,416.0 L414.2,418.1 L410.7,421.0 L408.3,423.1 L404.7,426.2 L402.4,428.1 L398.7,431.2 L396.5,433.1 L392.7,436.3 L390.4,438.1 L386.6,441.2 L384.3,443.1 L380.6,446.0 L377.9,448.2 L374.6,450.7 L371.4,453.2 L368.6,455.2 L364.6,458.1 L362.1,459.9 L358.6,462.3 L354.8,464.9 L352.2,466.6 L348.6,468.9 L344.6,471.4 L341.4,473.2 L338.6,474.9 L334.6,477.3 L330.6,479.5 L326.9,481.6 L323.9,483.3 L320.5,485.2 L316.5,487.5 L312.6,490.0 L310.1,491.6 L306.5,494.6 L304.5,496.9" stroke="rgba(255,255,255,0.14)" stroke-width="1.2" fill="none" stroke-linecap="round" stroke-linejoin="round"/>
  <text x="316.5" y="56.1" font-family="'Space Mono', monospace" font-size="8" fill="rgba(255,255,255,0.18)" text-anchor="middle" transform="rotate(-10.6,316.5,56.1)">380</text>
  <path d="M106.2,33.4 L112.2,33.3 L117.1,33.4 L122.2,33.9 L128.2,34.7 L132.2,35.4 L138.2,36.8 L142.2,37.8 L146.2,39.0 L150.3,40.4 L154.3,41.8 L158.6,43.5 L162.7,45.2 L166.6,46.8 L170.3,48.5 L174.3,50.3 L178.3,52.2 L182.3,54.1 L186.3,56.1 L190.3,58.0 L194.3,59.9 L198.3,61.8 L202.1,63.5 L205.8,65.2 L209.8,66.9 L213.9,68.6 L218.4,70.2 L222.4,71.6 L226.4,72.9 L230.4,74.0 L235.3,75.3 L240.4,76.3 L244.4,77.0 L250.4,77.9 L256.4,78.4 L260.4,78.6 L266.4,78.8 L272.5,78.7 L276.5,78.6 L282.5,78.2 L288.5,77.6 L294.5,76.9 L298.5,76.4 L304.5,75.5 L308.5,74.8 L314.5,73.8 L318.5,73.0 L324.3,71.9 L328.5,71.1 L332.8,70.2 L338.6,69.1 L342.6,68.3 L348.6,67.1 L352.6,66.3 L358.4,65.2 L362.6,64.5 L368.0,63.5 L372.6,62.8 L378.6,61.9 L382.6,61.4 L388.6,60.7 L394.3,60.2 L398.7,59.9 L404.7,59.6 L410.7,59.5 L416.7,59.5 L422.7,59.8 L427.8,60.2 L432.7,60.7 L438.7,61.6 L442.7,62.4 L448.0,63.5 L452.8,64.8 L456.8,66.0 L460.8,67.3 L464.8,68.8 L468.8,70.5 L472.8,72.4 L476.8,74.4 L480.8,76.6 L484.0,78.6 L486.8,80.4 L490.8,83.2 L493.5,85.3 L496.8,88.0 L499.4,90.3 L502.8,93.6 L504.8,95.8 L507.4,98.7 L510.1,102.0 L512.5,105.4 L514.8,108.7 L516.7,112.0 L518.5,115.4 L520.1,118.7 L521.4,122.1 L522.9,126.4 L524.0,130.4 L524.9,134.8 L525.5,138.8 L525.9,143.8 L525.9,148.8 L525.7,153.8 L525.2,158.9 L524.7,162.2 L523.9,167.2 L522.9,171.9 L522.0,175.6 L520.9,179.9 L519.7,183.9 L518.7,187.3 L517.1,192.3 L516.0,195.7 L514.9,199.2 L513.2,204.0 L512.0,207.4 L510.8,210.7 L509.0,215.7 L507.8,219.1 L506.6,222.4 L504.8,227.3 L503.6,230.8 L502.3,234.1 L500.8,238.2 L499.3,242.5 L498.1,245.8 L496.8,249.3 L495.0,254.2 L493.8,257.5 L492.6,260.9 L490.8,265.8 L489.6,269.2 L488.3,272.6 L486.8,276.6 L485.2,280.9 L483.9,284.3 L482.6,287.6 L480.8,292.0 L479.2,296.0 L477.7,299.3 L476.3,302.7 L474.7,306.0 L472.8,310.1 L470.8,314.1 L468.9,317.7 L467.1,321.1 L465.2,324.4 L463.3,327.8 L461.2,331.1 L459.1,334.4 L457.0,337.8 L454.8,341.1 L452.8,344.0 L450.8,346.8 L448.7,349.6 L446.3,352.8 L443.8,356.2 L441.2,359.5 L438.7,362.7 L436.7,365.2 L434.6,367.9 L431.8,371.2 L429.1,374.6 L426.7,377.4 L424.7,379.7 L422.0,382.9 L419.1,386.3 L416.7,389.0 L414.6,391.3 L411.6,394.6 L408.7,397.9 L406.7,400.1 L404.0,403.0 L400.8,406.4 L398.7,408.6 L396.0,411.4 L392.7,414.7 L390.7,416.7 L387.6,419.7 L384.6,422.6 L382.3,424.7 L378.7,428.1 L376.6,430.0 L373.1,433.1 L370.6,435.3 L367.2,438.1 L364.6,440.3 L361.0,443.1 L358.6,445.0 L354.6,448.1 L352.2,449.8 L348.6,452.4 L344.9,454.8 L342.4,456.5 L338.6,459.0 L334.6,461.4 L331.4,463.2 L328.4,464.9 L324.5,466.9 L320.5,468.9 L316.5,470.8 L312.5,472.7 L308.5,474.4 L304.5,476.0 L300.5,477.5 L296.5,478.9 L292.5,480.2 L288.0,481.6 L282.5,483.1 L278.5,484.1 L274.5,485.0 L268.4,486.1 L264.2,486.6 L258.4,487.2 L252.4,487.4 L246.4,487.2 L240.4,486.7 L236.4,486.2 L230.4,485.2 L226.4,484.3 L222.1,483.3 L216.4,481.7 L212.4,480.4 L208.3,479.0 L204.3,477.5 L200.3,475.9 L196.3,474.2 L192.3,472.4 L188.3,470.4 L184.3,468.2 L181.4,466.6 L178.3,464.7 L174.3,462.2 L170.9,459.9 L168.3,458.0 L164.3,455.0 L162.0,453.2 L158.3,450.0 L156.2,448.2 L152.7,444.8 L150.3,442.4 L147.7,439.8 L144.7,436.5 L142.2,433.6 L140.2,431.1 L137.8,428.1 L135.4,424.7 L133.0,421.4 L130.8,418.1 L128.7,414.7 L126.7,411.4 L124.8,408.0 L122.9,404.7 L121.2,401.3 L119.6,398.0 L118.0,394.6 L116.2,390.4 L114.5,386.3 L113.2,382.9 L112.0,379.6 L110.2,374.6 L109.2,371.2 L108.1,367.9 L106.7,362.9 L105.8,359.5 L104.5,354.5 L103.7,351.2 L102.5,346.2 L101.8,342.8 L100.8,337.8 L100.1,334.4 L99.2,329.4 L98.3,324.4 L97.7,321.1 L96.9,316.1 L96.2,311.7 L95.5,307.7 L94.7,302.7 L94.1,299.3 L93.3,294.3 L92.4,289.3 L91.8,286.0 L90.9,280.9 L90.2,277.4 L89.1,272.6 L88.1,268.2 L87.2,264.2 L86.1,260.1 L85.0,255.9 L84.0,252.5 L82.5,247.5 L81.4,244.1 L80.1,240.6 L78.4,235.8 L77.1,232.4 L75.7,229.1 L74.1,225.4 L72.1,220.9 L70.5,217.4 L68.9,214.0 L67.3,210.7 L65.6,207.4 L63.9,204.0 L62.1,200.5 L60.1,196.7 L58.1,192.9 L56.1,189.0 L54.3,185.6 L52.6,182.3 L51.0,178.9 L49.3,175.6 L47.7,172.2 L46.1,168.7 L44.1,164.2 L42.5,160.5 L41.2,157.2 L39.9,153.8 L38.2,148.8 L37.1,145.5 L36.1,141.8 L34.9,137.1 L34.1,133.4 L33.2,128.8 L32.5,123.7 L32.1,118.7 L31.9,115.4 L31.9,110.4 L32.1,107.0 L32.6,102.0 L33.3,97.0 L34.1,93.6 L35.4,88.6 L36.4,85.3 L38.1,80.9 L39.8,76.9 L41.5,73.6 L43.4,70.2 L45.6,66.9 L48.0,63.5 L50.1,60.9 L52.1,58.5 L55.4,55.2 L58.1,52.6 L61.1,50.2 L64.1,47.9 L68.1,45.2 L71.0,43.5 L74.2,41.8 L78.1,40.0 L82.1,38.4 L86.9,36.8 L92.2,35.4 L96.2,34.6 L102.2,33.8 L106.2,33.4" stroke="rgba(255,255,255,0.14)" stroke-width="1.2" fill="none" stroke-linecap="round" stroke-linejoin="round"/>
  <text x="507.8" y="219.1" font-family="'Space Mono', monospace" font-size="8" fill="rgba(255,255,255,0.18)" text-anchor="middle" transform="rotate(-70.0,507.8,219.1)">426</text>
  <path d="M777.3,36.6 L783.3,36.0 L789.3,35.6 L795.3,35.6 L801.3,35.7 L807.3,36.2 L812.6,36.8 L817.4,37.5 L822.2,38.5 L827.4,39.7 L831.4,40.7 L835.4,42.0 L839.9,43.5 L844.3,45.2 L848.3,46.8 L852.0,48.5 L855.4,50.2 L859.4,52.3 L863.4,54.5 L867.2,56.9 L869.8,58.5 L873.5,61.0 L877.0,63.5 L879.5,65.5 L883.3,68.6 L885.5,70.4 L889.1,73.6 L891.5,75.8 L894.4,78.6 L897.5,81.8 L899.5,83.9 L902.2,87.0 L905.1,90.3 L907.5,93.3 L909.5,95.8 L911.7,98.7 L914.1,102.0 L916.4,105.4 L918.6,108.7 L920.7,112.0 L922.8,115.4 L924.7,118.7 L926.5,122.1 L928.2,125.4 L929.8,128.8 L931.6,132.7 L933.4,137.1 L934.7,140.5 L935.8,143.8 L937.4,148.8 L938.3,152.2 L939.4,157.2 L940.0,160.5 L940.6,165.6 L941.0,170.6 L941.1,175.6 L940.8,180.6 L940.2,185.6 L939.6,189.0 L938.4,194.0 L937.4,197.3 L935.6,202.3 L934.1,205.7 L932.5,209.0 L930.7,212.4 L928.7,215.7 L926.5,219.1 L924.0,222.4 L921.5,225.6 L919.5,227.9 L916.9,230.8 L913.6,234.1 L911.5,236.1 L908.0,239.1 L905.5,241.2 L901.6,244.1 L899.2,245.8 L895.5,248.3 L891.5,250.7 L888.3,252.5 L885.1,254.2 L881.5,256.0 L877.5,257.9 L873.5,259.6 L869.4,261.2 L865.4,262.7 L861.1,264.2 L856.0,265.9 L851.4,267.2 L847.4,268.4 L843.4,269.4 L837.5,270.9 L833.4,271.8 L829.4,272.7 L823.4,273.9 L819.4,274.7 L813.4,275.7 L809.3,276.4 L803.3,277.3 L799.3,277.8 L793.3,278.6 L788.2,279.3 L783.3,279.8 L777.3,280.5 L772.5,280.9 L767.3,281.4 L761.3,282.0 L755.3,282.5 L751.3,282.8 L745.2,283.2 L739.2,283.7 L733.2,284.1 L729.2,284.4 L723.2,284.8 L717.2,285.2 L711.2,285.7 L707.2,286.0 L701.2,286.4 L695.2,286.8 L689.1,287.3 L683.1,287.6 L679.1,287.7 L674.9,287.6 L669.3,286.0 L667.1,283.5 L665.4,279.3 L664.4,275.9 L663.1,270.9 L662.4,267.6 L661.2,262.5 L660.5,259.2 L659.3,254.2 L658.5,250.8 L657.3,245.8 L656.5,242.5 L655.3,237.5 L654.5,234.1 L653.2,229.1 L652.4,225.8 L651.2,220.7 L650.3,217.4 L649.1,212.4 L648.3,209.0 L647.1,204.0 L646.4,200.7 L645.3,195.7 L644.6,192.3 L643.7,187.3 L643.1,183.5 L642.4,178.9 L641.8,173.9 L641.4,168.9 L641.1,163.9 L641.1,158.9 L641.3,153.8 L641.8,148.8 L642.6,143.8 L643.3,140.5 L644.7,135.5 L645.8,132.1 L647.1,128.5 L649.1,123.9 L650.8,120.4 L652.6,117.1 L654.5,113.7 L656.6,110.4 L658.9,107.0 L661.1,104.1 L663.1,101.5 L665.4,98.7 L668.3,95.3 L671.1,92.2 L673.1,90.1 L676.2,87.0 L679.1,84.2 L681.6,81.9 L685.1,78.8 L687.4,76.9 L691.2,73.9 L693.7,71.9 L697.2,69.3 L700.6,66.9 L703.2,65.1 L707.2,62.5 L710.9,60.2 L713.8,58.5 L717.2,56.6 L721.2,54.4 L725.2,52.4 L729.2,50.5 L733.2,48.7 L737.2,47.0 L741.2,45.5 L745.2,44.1 L749.2,42.7 L753.3,41.5 L758.4,40.1 L763.3,39.0 L767.3,38.1 L773.3,37.1 L777.3,36.6" stroke="rgba(255,255,255,0.14)" stroke-width="1.2" fill="none" stroke-linecap="round" stroke-linejoin="round"/>
  <text x="924.0" y="222.4" font-family="'Space Mono', monospace" font-size="8" fill="rgba(255,255,255,0.18)" text-anchor="middle" transform="rotate(-51.6,924.0,222.4)">426</text>
  <path d="M643.1,295.8 L649.1,295.0 L655.1,294.7 L660.6,296.0 L663.1,298.7 L664.5,302.7 L665.2,306.0 L665.8,311.0 L666.2,316.1 L666.5,321.1 L666.5,326.1 L666.4,331.1 L666.2,336.1 L665.8,341.1 L665.2,346.2 L664.7,349.5 L663.8,354.5 L663.1,358.1 L662.0,362.9 L661.0,366.2 L659.5,371.2 L658.3,374.6 L656.9,377.9 L655.1,382.0 L653.1,386.0 L651.1,389.6 L649.1,392.8 L647.1,395.7 L645.1,398.4 L642.6,401.3 L639.5,404.7 L637.1,407.0 L633.9,409.7 L631.1,411.9 L627.0,414.5 L623.5,416.4 L619.8,418.1 L615.2,419.7 L611.0,420.8 L607.0,421.5 L601.0,422.0 L595.0,421.8 L591.0,421.2 L585.0,419.7 L581.0,418.3 L577.0,416.5 L573.6,414.7 L570.9,413.0 L566.9,410.1 L564.5,408.0 L561.0,404.7 L558.9,402.4 L556.8,399.7 L554.4,396.3 L552.4,393.0 L550.7,389.6 L548.9,385.5 L547.5,381.3 L546.7,377.9 L545.9,372.9 L545.6,367.9 L545.8,362.9 L546.6,357.9 L547.4,354.5 L548.9,350.3 L550.8,346.2 L552.7,342.8 L554.9,339.5 L556.9,336.8 L558.9,334.4 L562.1,331.1 L564.9,328.5 L567.7,326.1 L571.0,323.6 L574.5,321.1 L577.1,319.4 L581.0,317.0 L585.0,314.8 L589.0,312.7 L592.5,311.0 L596.3,309.4 L600.3,307.7 L604.7,306.0 L609.0,304.5 L613.0,303.1 L617.0,301.9 L621.0,300.7 L626.4,299.3 L631.1,298.2 L635.1,297.3 L641.1,296.2" stroke="rgba(255,255,255,0.14)" stroke-width="1.2" fill="none" stroke-linecap="round" stroke-linejoin="round"/>
  <text x="639.5" y="404.7" font-family="'Space Mono', monospace" font-size="8" fill="rgba(255,255,255,0.18)" text-anchor="middle" transform="rotate(-43.7,639.5,404.7)">426</text>
  <path d="M100.2,56.8 L106.2,55.8 L112.2,55.3 L118.2,55.4 L124.2,55.9 L130.2,56.8 L134.2,57.6 L138.2,58.6 L143.7,60.2 L148.2,61.8 L152.3,63.2 L156.3,64.9 L160.3,66.6 L164.3,68.4 L168.3,70.2 L171.8,71.9 L175.2,73.6 L178.7,75.3 L182.3,77.0 L186.3,79.0 L190.3,80.9 L194.3,82.7 L198.3,84.5 L202.3,86.1 L206.3,87.7 L210.4,89.2 L214.4,90.5 L219.2,92.0 L224.4,93.3 L228.4,94.2 L234.4,95.3 L238.4,95.9 L244.4,96.5 L250.4,96.9 L254.4,97.1 L260.4,97.1 L264.4,97.0 L270.5,96.6 L276.5,96.2 L282.5,95.5 L286.5,95.0 L292.5,94.2 L296.5,93.6 L302.5,92.6 L306.5,91.9 L312.5,90.8 L316.5,90.1 L322.5,88.9 L326.5,88.2 L332.6,87.0 L336.6,86.3 L342.1,85.3 L346.6,84.5 L351.8,83.6 L356.6,82.9 L362.6,82.0 L366.6,81.4 L372.6,80.7 L377.6,80.3 L382.6,79.9 L388.6,79.6 L394.7,79.4 L400.7,79.5 L406.7,79.7 L412.7,80.3 L416.7,80.7 L422.7,81.7 L426.7,82.5 L431.2,83.6 L436.7,85.3 L440.7,86.7 L444.7,88.3 L448.7,90.1 L452.4,92.0 L455.3,93.6 L458.8,95.8 L462.7,98.7 L464.8,100.3 L468.7,103.7 L470.8,105.8 L473.5,108.7 L476.2,112.0 L478.6,115.4 L480.8,118.7 L482.6,122.1 L484.2,125.4 L485.6,128.8 L486.8,132.1 L488.3,137.1 L489.1,140.5 L490.0,145.5 L490.5,150.5 L490.8,155.5 L490.8,158.9 L490.8,162.2 L490.5,167.2 L490.0,172.2 L489.4,177.3 L488.8,180.8 L488.0,185.6 L486.9,190.6 L486.2,194.0 L485.0,199.0 L484.1,202.3 L482.8,207.1 L481.8,210.7 L480.8,214.1 L479.3,219.1 L478.2,222.4 L476.8,226.8 L475.5,230.8 L474.4,234.1 L472.8,238.7 L471.5,242.5 L470.3,245.8 L468.8,249.9 L467.2,254.2 L466.0,257.5 L464.7,260.9 L462.8,265.8 L461.4,269.2 L460.1,272.6 L458.8,275.9 L456.8,280.8 L455.3,284.3 L453.9,287.6 L452.5,291.0 L450.8,294.9 L448.8,299.3 L447.2,302.7 L445.7,306.0 L444.1,309.4 L442.5,312.7 L440.7,316.2 L438.7,320.2 L436.7,324.1 L434.8,327.8 L433.0,331.1 L431.2,334.4 L429.3,337.8 L427.4,341.1 L425.4,344.5 L423.4,347.8 L421.3,351.2 L419.2,354.5 L417.1,357.9 L414.9,361.2 L412.7,364.5 L410.7,367.5 L408.7,370.3 L406.7,373.2 L404.5,376.3 L402.0,379.6 L399.5,382.9 L396.9,386.3 L394.7,389.1 L392.7,391.6 L390.2,394.6 L387.4,398.0 L384.6,401.2 L382.6,403.4 L380.0,406.4 L376.9,409.7 L374.6,412.1 L372.1,414.7 L368.7,418.1 L366.6,420.1 L363.5,423.1 L360.6,425.7 L357.9,428.1 L354.6,430.9 L352.0,433.1 L348.6,435.8 L345.6,438.1 L342.6,440.4 L338.7,443.1 L336.2,444.8 L332.6,447.2 L328.5,449.7 L325.5,451.5 L322.5,453.2 L318.5,455.3 L314.5,457.3 L310.5,459.2 L306.5,461.0 L302.5,462.6 L298.5,464.1 L294.5,465.4 L290.5,466.7 L284.7,468.2 L280.5,469.2 L276.5,470.0 L270.5,471.0 L266.1,471.6 L260.4,472.1 L254.4,472.3 L248.4,472.3 L242.4,472.0 L238.1,471.6 L232.4,470.8 L227.3,469.9 L222.4,468.8 L218.4,467.8 L214.1,466.6 L209.0,464.9 L204.6,463.2 L200.6,461.5 L196.9,459.9 L193.5,458.2 L190.3,456.5 L186.3,454.2 L182.3,451.8 L179.4,449.8 L176.3,447.7 L172.5,444.8 L170.3,443.1 L166.4,439.8 L164.3,437.9 L161.0,434.8 L158.3,432.0 L156.2,429.8 L153.2,426.4 L150.4,423.1 L148.2,420.3 L146.2,417.7 L144.1,414.7 L141.9,411.4 L139.7,408.0 L137.7,404.7 L135.8,401.3 L134.0,398.0 L132.2,394.5 L130.2,390.3 L128.4,386.3 L127.0,382.9 L125.7,379.6 L124.2,375.5 L122.7,371.2 L121.6,367.9 L120.2,363.1 L119.2,359.5 L118.2,355.7 L117.1,351.2 L116.2,347.3 L115.2,342.8 L114.3,337.8 L113.6,334.4 L112.8,329.4 L112.2,325.7 L111.5,321.1 L110.8,316.1 L110.2,311.7 L109.7,307.7 L109.0,302.7 L108.4,297.7 L108.0,294.3 L107.3,289.3 L106.7,284.3 L106.2,280.6 L105.5,275.9 L104.8,270.9 L104.2,267.2 L103.4,262.5 L102.4,257.5 L101.8,254.2 L100.7,249.2 L99.9,245.8 L98.6,240.8 L97.7,237.5 L96.2,232.4 L95.1,229.1 L93.9,225.8 L92.2,220.8 L90.8,217.4 L89.5,214.0 L88.1,210.7 L86.1,206.3 L84.3,202.3 L82.7,199.0 L81.1,195.7 L79.5,192.3 L77.8,189.0 L76.1,185.6 L74.1,181.7 L72.1,177.6 L70.3,173.9 L68.7,170.6 L67.1,167.2 L65.6,163.9 L64.1,160.4 L62.1,155.5 L60.8,152.2 L59.7,148.8 L58.1,144.0 L57.1,140.5 L56.1,136.3 L55.2,132.1 L54.5,127.1 L54.1,123.7 L53.8,118.7 L53.8,113.7 L54.1,109.7 L54.6,105.4 L55.6,100.3 L56.5,97.0 L58.1,92.3 L59.6,88.6 L61.3,85.3 L63.3,81.9 L65.6,78.6 L68.1,75.4 L70.1,73.2 L73.2,70.2 L76.1,67.8 L79.7,65.2 L82.4,63.5 L86.1,61.6 L90.2,59.8 L94.2,58.4 L99.8,56.9" stroke="rgba(255,255,255,0.14)" stroke-width="1.2" fill="none" stroke-linecap="round" stroke-linejoin="round"/>
  <text x="480.8" y="214.1" font-family="'Space Mono', monospace" font-size="8" fill="rgba(255,255,255,0.18)" text-anchor="middle" transform="rotate(-73.1,480.8,214.1)">473</text>
  <path d="M781.3,58.4 L787.3,57.9 L793.3,57.7 L799.3,57.7 L805.3,58.2 L809.3,58.6 L815.4,59.6 L819.4,60.4 L825.0,61.9 L829.4,63.2 L833.4,64.6 L837.4,66.2 L841.4,68.0 L845.4,69.9 L849.0,71.9 L851.9,73.6 L855.4,75.8 L859.4,78.5 L861.8,80.3 L865.4,83.1 L868.0,85.3 L871.5,88.4 L873.5,90.3 L876.8,93.6 L879.5,96.6 L881.5,98.9 L884.0,102.0 L886.5,105.4 L888.9,108.7 L891.1,112.0 L893.1,115.4 L895.0,118.7 L896.7,122.1 L898.3,125.4 L899.8,128.8 L901.5,133.2 L902.8,137.1 L903.8,140.5 L905.0,145.5 L905.7,148.8 L906.4,153.8 L906.8,158.9 L906.8,163.9 L906.5,168.9 L905.9,173.9 L905.3,177.3 L904.1,182.3 L903.0,185.6 L901.5,189.7 L899.6,194.0 L897.9,197.3 L896.0,200.7 L893.8,204.0 L891.5,207.3 L889.5,209.8 L887.3,212.4 L884.3,215.7 L881.5,218.5 L879.0,220.7 L875.5,223.7 L872.9,225.8 L869.4,228.2 L865.6,230.8 L862.9,232.4 L859.4,234.4 L855.4,236.6 L851.4,238.5 L847.4,240.3 L843.4,241.9 L839.4,243.4 L835.4,244.8 L831.4,246.0 L826.1,247.5 L821.4,248.7 L817.4,249.5 L811.4,250.7 L807.3,251.3 L801.3,252.2 L797.3,252.6 L791.3,253.1 L785.3,253.4 L779.3,253.5 L773.3,253.4 L767.3,253.1 L761.3,252.6 L757.3,252.1 L751.3,251.2 L747.2,250.3 L742.4,249.2 L737.2,247.6 L733.2,246.2 L729.2,244.5 L725.2,242.6 L722.0,240.8 L719.2,239.1 L715.2,236.3 L712.4,234.1 L709.2,231.2 L707.0,229.1 L704.0,225.8 L701.2,222.4 L699.2,219.6 L697.2,216.6 L695.2,213.3 L693.2,209.8 L691.2,205.8 L689.6,202.3 L688.2,199.0 L686.9,195.7 L685.3,190.6 L684.3,187.3 L683.1,182.7 L682.3,178.9 L681.5,173.9 L681.0,170.6 L680.6,165.6 L680.4,160.5 L680.5,155.5 L680.8,150.5 L681.2,147.2 L682.0,142.1 L683.1,137.3 L684.1,133.8 L685.2,130.4 L687.1,125.4 L688.6,122.1 L690.3,118.7 L692.1,115.4 L694.2,112.0 L696.4,108.7 L698.8,105.4 L701.2,102.3 L703.2,99.9 L705.8,97.0 L709.0,93.6 L711.2,91.5 L714.3,88.6 L717.2,86.2 L720.4,83.6 L723.2,81.5 L727.2,78.7 L730.0,76.9 L733.2,74.9 L737.2,72.7 L741.2,70.6 L745.2,68.6 L749.2,66.9 L753.3,65.3 L757.3,63.9 L761.3,62.6 L765.3,61.5 L770.7,60.2 L775.3,59.3 L780.7,58.5" stroke="rgba(255,255,255,0.14)" stroke-width="1.2" fill="none" stroke-linecap="round" stroke-linejoin="round"/>
  <text x="896.0" y="200.7" font-family="'Space Mono', monospace" font-size="8" fill="rgba(255,255,255,0.18)" text-anchor="middle" transform="rotate(-57.3,896.0,200.7)">473</text>
  <path d="M120.2,83.6 L124.2,83.7 L130.2,84.3 L135.4,85.3 L140.2,86.5 L144.2,87.7 L148.2,89.1 L152.3,90.6 L156.3,92.2 L160.3,93.9 L164.3,95.7 L168.3,97.5 L172.3,99.3 L176.3,101.0 L180.3,102.8 L184.3,104.4 L188.3,106.0 L192.3,107.5 L196.3,108.9 L201.1,110.4 L206.3,111.8 L210.4,112.8 L214.9,113.7 L220.4,114.6 L226.4,115.4 L230.4,115.7 L236.4,116.1 L242.4,116.2 L248.4,116.1 L254.4,115.8 L260.3,115.4 L264.4,115.0 L270.5,114.3 L275.0,113.7 L280.5,112.9 L286.1,112.0 L290.5,111.3 L295.8,110.4 L300.5,109.5 L304.9,108.7 L310.5,107.6 L314.5,106.9 L320.5,105.8 L324.5,105.0 L330.6,103.9 L334.6,103.2 L340.6,102.3 L344.6,101.7 L350.6,100.8 L354.6,100.3 L360.6,99.7 L366.6,99.2 L372.6,98.8 L378.6,98.7 L381.2,98.7 L386.6,98.8 L392.7,99.1 L398.7,99.8 L402.7,100.4 L408.7,101.5 L412.7,102.5 L416.7,103.7 L421.4,105.4 L425.4,107.0 L428.9,108.7 L432.7,110.8 L436.7,113.4 L439.5,115.4 L442.7,118.1 L445.2,120.4 L448.3,123.7 L450.8,126.7 L452.8,129.5 L454.8,132.7 L456.8,136.4 L458.6,140.5 L459.9,143.8 L460.9,147.2 L462.2,152.2 L462.9,155.5 L463.6,160.5 L464.1,165.6 L464.3,170.6 L464.2,175.6 L464.0,180.6 L463.5,185.6 L462.9,190.6 L462.5,194.0 L461.6,199.0 L460.8,203.5 L460.0,207.4 L458.8,212.4 L458.0,215.7 L456.8,220.4 L455.8,224.1 L454.8,227.6 L453.3,232.4 L452.3,235.8 L450.8,240.6 L449.6,244.1 L448.5,247.5 L446.7,252.4 L445.5,255.9 L444.3,259.2 L442.7,263.5 L441.2,267.6 L439.9,270.9 L438.6,274.2 L436.7,278.9 L435.2,282.6 L433.9,286.0 L432.4,289.3 L430.7,293.3 L428.8,297.7 L427.4,301.0 L425.9,304.3 L424.3,307.7 L422.7,311.2 L420.7,315.5 L418.8,319.4 L417.2,322.7 L415.5,326.1 L413.8,329.4 L412.1,332.8 L410.3,336.1 L408.5,339.5 L406.6,342.8 L404.7,346.3 L402.7,349.8 L400.7,353.2 L398.7,356.5 L396.7,359.8 L394.7,363.0 L392.6,366.2 L390.3,369.6 L388.1,372.9 L385.8,376.3 L383.4,379.6 L380.9,382.9 L378.6,385.9 L376.6,388.5 L374.4,391.3 L371.7,394.6 L368.8,398.0 L366.6,400.5 L364.4,403.0 L361.3,406.4 L358.6,409.1 L356.4,411.4 L353.0,414.7 L350.6,416.9 L347.5,419.7 L344.6,422.3 L341.6,424.7 L338.6,427.2 L335.2,429.8 L332.6,431.7 L328.5,434.5 L325.6,436.5 L322.5,438.4 L318.5,440.7 L314.5,443.0 L311.0,444.8 L307.5,446.5 L303.8,448.2 L299.9,449.8 L295.5,451.5 L290.6,453.2 L286.5,454.4 L282.5,455.5 L278.0,456.5 L272.5,457.6 L268.3,458.2 L262.4,458.8 L256.4,459.2 L250.4,459.2 L244.4,459.0 L238.4,458.4 L234.4,457.9 L228.4,456.8 L224.4,455.9 L220.4,454.8 L215.0,453.2 L210.4,451.5 L206.3,449.9 L202.5,448.2 L199.1,446.5 L196.0,444.8 L192.3,442.7 L188.3,440.2 L185.2,438.1 L182.3,436.0 L178.6,433.1 L176.3,431.2 L172.7,428.1 L170.3,425.8 L167.6,423.1 L164.5,419.7 L162.3,417.2 L160.2,414.7 L157.5,411.4 L155.1,408.0 L152.8,404.7 L150.6,401.3 L148.6,398.0 L146.7,394.6 L144.9,391.3 L143.2,388.0 L141.6,384.6 L140.1,381.3 L138.2,376.6 L136.8,372.9 L135.6,369.6 L134.2,365.4 L133.0,361.2 L132.0,357.9 L130.7,352.8 L129.9,349.5 L128.8,344.5 L128.1,341.1 L127.2,336.1 L126.4,331.1 L125.9,327.8 L125.2,322.7 L124.6,317.7 L124.2,314.4 L123.7,309.4 L123.2,304.3 L122.8,299.3 L122.4,294.3 L122.1,291.0 L121.7,286.0 L121.4,280.9 L121.0,275.9 L120.6,270.9 L120.2,266.4 L119.9,262.5 L119.4,257.5 L118.8,252.5 L118.2,247.6 L117.7,244.1 L117.0,239.1 L116.2,234.6 L115.5,230.8 L114.4,225.8 L113.7,222.4 L112.4,217.4 L111.5,214.0 L110.2,209.6 L108.9,205.7 L107.8,202.3 L106.2,197.9 L104.7,194.0 L103.4,190.6 L102.0,187.3 L100.2,183.1 L98.4,178.9 L96.9,175.6 L95.4,172.2 L93.9,168.9 L92.2,164.7 L90.4,160.5 L89.1,157.2 L87.8,153.8 L86.1,149.1 L85.0,145.5 L84.1,142.1 L82.9,137.1 L82.1,132.5 L81.7,128.8 L81.5,123.7 L81.8,118.7 L82.2,115.4 L83.3,110.4 L84.4,107.0 L86.1,103.2 L88.1,99.8 L90.2,97.0 L93.4,93.6 L96.2,91.3 L100.2,88.7 L103.7,87.0 L108.2,85.3 L112.2,84.4 L118.2,83.7" stroke="rgba(255,255,255,0.14)" stroke-width="1.2" fill="none" stroke-linecap="round" stroke-linejoin="round"/>
  <text x="454.8" y="227.6" font-family="'Space Mono', monospace" font-size="8" fill="rgba(255,255,255,0.18)" text-anchor="middle" transform="rotate(-73.5,454.8,227.6)">520</text>
  <path d="M789.3,83.6 L795.3,83.4 L801.3,83.6 L805.3,84.0 L811.4,85.0 L815.4,85.9 L819.4,87.0 L824.0,88.6 L828.0,90.3 L831.6,92.0 L835.4,94.0 L839.4,96.5 L842.6,98.7 L845.4,100.8 L848.8,103.7 L851.4,106.1 L854.0,108.7 L857.0,112.0 L859.4,115.1 L861.4,117.9 L863.4,121.0 L865.4,124.4 L867.4,128.3 L869.1,132.1 L870.4,135.5 L871.5,138.8 L872.7,143.8 L873.5,148.6 L873.8,152.2 L873.9,157.2 L873.6,162.2 L873.2,165.6 L872.1,170.6 L871.2,173.9 L869.4,178.6 L867.8,182.3 L866.0,185.6 L863.9,189.0 L861.6,192.3 L859.4,195.0 L857.4,197.3 L854.1,200.7 L851.4,203.0 L848.2,205.7 L845.4,207.7 L841.4,210.4 L838.0,212.4 L834.8,214.0 L831.3,215.7 L827.4,217.4 L822.8,219.1 L817.4,220.7 L813.4,221.8 L809.3,222.6 L803.3,223.6 L798.6,224.1 L793.3,224.4 L787.3,224.4 L781.8,224.1 L777.3,223.6 L771.3,222.6 L767.3,221.6 L763.3,220.5 L759.2,219.1 L755.2,217.4 L751.3,215.5 L747.2,213.2 L743.5,210.7 L741.2,209.0 L737.3,205.7 L735.2,203.7 L732.4,200.7 L729.7,197.3 L727.3,194.0 L725.2,190.7 L723.4,187.3 L721.8,183.9 L720.4,180.6 L719.2,177.2 L717.8,172.2 L717.1,168.9 L716.3,163.9 L715.9,158.9 L715.9,153.8 L716.3,148.8 L717.1,143.8 L717.8,140.5 L719.2,135.6 L720.4,132.1 L721.9,128.8 L723.5,125.4 L725.3,122.1 L727.5,118.7 L729.8,115.4 L732.5,112.0 L735.2,109.0 L737.2,107.0 L740.8,103.7 L743.2,101.7 L747.2,98.7 L749.7,97.0 L753.3,94.8 L757.3,92.6 L761.3,90.7 L765.3,89.0 L769.3,87.6 L773.3,86.4 L777.7,85.3 L783.3,84.3 L789.2,83.6" stroke="rgba(255,255,255,0.14)" stroke-width="1.2" fill="none" stroke-linecap="round" stroke-linejoin="round"/>
  <text x="866.0" y="185.6" font-family="'Space Mono', monospace" font-size="8" fill="rgba(255,255,255,0.18)" text-anchor="middle" transform="rotate(-58.2,866.0,185.6)">520</text>
  <path d="M346.6,118.5 L352.6,118.0 L358.6,117.7 L364.6,117.5 L370.6,117.6 L376.6,117.9 L382.6,118.6 L386.6,119.2 L392.7,120.4 L396.7,121.5 L400.7,122.8 L404.7,124.3 L408.7,126.1 L412.7,128.3 L416.0,130.4 L418.7,132.4 L422.3,135.5 L424.7,137.8 L427.1,140.5 L429.7,143.8 L431.8,147.2 L433.7,150.5 L435.3,153.8 L436.7,157.3 L438.3,162.2 L439.2,165.6 L440.1,170.6 L440.7,175.0 L441.1,178.9 L441.3,183.9 L441.3,189.0 L441.0,194.0 L440.7,197.8 L440.3,202.3 L439.6,207.4 L438.7,212.4 L438.1,215.7 L437.1,220.7 L436.3,224.1 L435.1,229.1 L434.2,232.4 L432.9,237.5 L431.9,240.8 L430.7,244.8 L429.3,249.2 L428.3,252.5 L426.7,257.2 L425.4,260.9 L424.3,264.2 L422.7,268.5 L421.2,272.6 L419.9,275.9 L418.7,279.3 L416.7,284.2 L415.3,287.6 L414.0,291.0 L412.6,294.3 L410.7,298.8 L409.0,302.7 L407.5,306.0 L406.1,309.4 L404.5,312.7 L402.7,316.7 L400.7,321.0 L399.0,324.4 L397.4,327.8 L395.7,331.1 L394.0,334.4 L392.2,337.8 L390.4,341.1 L388.6,344.5 L386.6,348.0 L384.6,351.5 L382.6,354.9 L380.6,358.2 L378.6,361.5 L376.6,364.6 L374.5,367.9 L372.2,371.2 L369.9,374.6 L367.5,377.9 L365.0,381.3 L362.6,384.4 L360.6,386.9 L358.4,389.6 L355.5,393.0 L352.6,396.3 L350.6,398.5 L347.9,401.3 L344.6,404.7 L342.6,406.6 L339.3,409.7 L336.6,412.1 L333.5,414.7 L330.6,417.1 L327.1,419.7 L324.5,421.6 L320.5,424.4 L317.4,426.4 L314.5,428.2 L310.5,430.5 L306.5,432.7 L302.5,434.7 L298.5,436.5 L294.5,438.1 L290.5,439.6 L286.5,440.9 L282.5,442.1 L278.5,443.1 L272.5,444.4 L268.4,445.1 L262.4,445.8 L256.4,446.1 L250.4,446.2 L244.4,445.9 L238.4,445.2 L234.4,444.6 L228.4,443.3 L224.4,442.3 L220.4,441.1 L216.4,439.7 L212.3,438.1 L208.3,436.4 L204.3,434.4 L200.3,432.2 L196.3,429.8 L193.7,428.1 L190.3,425.7 L186.9,423.1 L184.3,420.9 L181.1,418.1 L178.3,415.4 L176.0,413.0 L172.9,409.7 L170.3,406.6 L168.3,404.1 L166.2,401.3 L163.8,398.0 L161.6,394.6 L159.6,391.3 L157.7,388.0 L155.9,384.6 L154.2,381.3 L152.3,376.9 L150.6,372.9 L149.3,369.6 L148.0,366.2 L146.4,361.2 L145.4,357.9 L144.2,353.8 L143.2,349.5 L142.2,345.4 L141.4,341.1 L140.5,336.1 L139.9,332.8 L139.2,327.8 L138.6,322.7 L138.2,318.8 L137.8,314.4 L137.5,309.4 L137.2,304.3 L136.9,299.3 L136.8,294.3 L136.6,289.3 L136.6,284.3 L136.5,279.3 L136.5,274.2 L136.5,269.2 L136.5,264.2 L136.5,259.2 L136.5,254.2 L136.5,249.2 L136.5,244.1 L136.4,239.1 L136.4,234.1 L136.2,229.1 L136.1,225.8 L135.9,220.7 L135.7,215.7 L135.4,210.7 L135.0,205.7 L134.6,200.7 L134.2,196.4 L133.8,192.3 L133.3,187.3 L132.7,182.3 L132.2,178.3 L131.7,173.9 L131.2,168.9 L130.8,163.9 L130.7,158.9 L130.9,153.8 L131.7,148.8 L132.7,145.5 L134.5,142.1 L137.6,138.8 L140.2,137.1 L144.5,135.5 L150.3,134.5 L156.3,134.4 L162.3,134.8 L168.3,135.4 L172.3,135.8 L178.3,136.5 L184.3,137.1 L188.3,137.5 L194.3,137.9 L200.3,138.2 L206.3,138.4 L212.4,138.4 L218.4,138.3 L224.4,138.0 L230.4,137.6 L236.1,137.1 L240.4,136.7 L246.4,135.9 L250.4,135.4 L256.4,134.5 L260.9,133.8 L266.4,132.8 L270.5,132.1 L276.5,131.0 L280.5,130.2 L286.5,129.0 L290.5,128.2 L295.9,127.1 L300.5,126.2 L304.5,125.4 L310.5,124.2 L314.5,123.4 L320.5,122.3 L324.5,121.6 L330.6,120.6 L334.6,120.0 L340.6,119.2 L344.8,118.7" stroke="rgba(255,255,255,0.14)" stroke-width="1.2" fill="none" stroke-linecap="round" stroke-linejoin="round"/>
  <text x="372.2" y="371.2" font-family="'Space Mono', monospace" font-size="8" fill="rgba(255,255,255,0.18)" text-anchor="middle" transform="rotate(-55.1,372.2,371.2)">566</text>
  <path d="M787.3,123.4 L793.3,122.4 L799.3,122.5 L805.3,123.6 L809.3,124.9 L813.4,126.9 L816.3,128.8 L819.4,131.2 L821.8,133.8 L824.4,137.1 L826.3,140.5 L827.7,143.8 L828.9,148.8 L829.2,153.8 L828.5,158.9 L827.4,162.7 L825.4,166.8 L823.4,169.8 L821.3,172.2 L817.7,175.6 L815.3,177.3 L811.4,179.5 L807.3,181.1 L803.3,182.3 L797.3,183.1 L791.3,183.0 L786.8,182.3 L781.5,180.6 L778.0,178.9 L775.2,177.3 L771.3,174.0 L769.3,171.9 L767.0,168.9 L765.2,165.6 L763.3,160.5 L762.7,157.2 L762.4,152.2 L763.1,147.2 L764.1,143.8 L765.5,140.5 L767.4,137.1 L770.0,133.8 L773.3,130.5 L775.6,128.8 L779.3,126.5 L783.3,124.6 L787.3,123.4" stroke="rgba(255,255,255,0.14)" stroke-width="1.2" fill="none" stroke-linecap="round" stroke-linejoin="round"/>
  <text x="827.4" y="162.7" font-family="'Space Mono', monospace" font-size="8" fill="rgba(255,255,255,0.18)" text-anchor="middle" transform="rotate(-64.3,827.4,162.7)">566</text>
  <path d="M338.6,137.1 L344.6,136.7 L350.6,136.5 L356.6,136.6 L362.6,136.9 L366.6,137.3 L372.6,138.3 L376.6,139.2 L381.2,140.5 L385.9,142.1 L389.7,143.8 L392.9,145.5 L396.7,147.8 L400.3,150.5 L402.7,152.6 L405.6,155.5 L408.4,158.9 L410.7,162.2 L412.6,165.6 L414.3,168.9 L415.6,172.2 L416.8,175.6 L418.1,180.6 L418.7,183.9 L419.5,189.0 L419.9,194.0 L420.0,199.0 L419.9,204.0 L419.6,209.0 L419.1,214.0 L418.7,217.6 L418.0,222.4 L417.1,227.4 L416.4,230.8 L415.3,235.8 L414.5,239.1 L413.2,244.1 L412.3,247.5 L410.9,252.5 L409.9,255.9 L408.7,259.7 L407.2,264.2 L406.1,267.6 L404.7,271.7 L403.2,275.9 L401.9,279.3 L400.7,282.7 L398.8,287.6 L397.5,291.0 L396.1,294.3 L394.7,298.0 L392.7,302.7 L391.3,306.0 L389.8,309.4 L388.3,312.7 L386.6,316.4 L384.6,320.8 L382.9,324.4 L381.3,327.8 L379.6,331.1 L377.9,334.4 L376.2,337.8 L374.4,341.1 L372.6,344.5 L370.6,347.9 L368.6,351.4 L366.6,354.7 L364.6,358.0 L362.6,361.2 L360.4,364.5 L358.1,367.9 L355.7,371.2 L353.3,374.6 L350.7,377.9 L348.6,380.6 L346.6,383.1 L343.8,386.3 L340.8,389.6 L338.6,392.1 L336.1,394.6 L332.6,398.0 L330.6,399.9 L327.1,403.0 L324.5,405.2 L321.0,408.0 L318.5,409.9 L314.5,412.7 L311.5,414.7 L308.5,416.6 L304.5,418.9 L300.5,421.0 L296.5,423.0 L292.5,424.7 L288.5,426.3 L284.5,427.7 L280.5,428.9 L276.5,429.9 L270.5,431.2 L266.4,431.8 L260.4,432.5 L254.4,432.7 L248.4,432.6 L242.4,432.1 L237.8,431.4 L232.4,430.4 L228.4,429.4 L224.2,428.1 L219.5,426.4 L215.5,424.7 L212.0,423.1 L208.3,421.2 L204.3,418.8 L200.6,416.4 L198.2,414.7 L194.3,411.7 L191.9,409.7 L188.3,406.4 L186.3,404.4 L183.4,401.3 L180.5,398.0 L178.3,395.2 L176.3,392.6 L174.3,389.6 L172.1,386.3 L170.1,382.9 L168.2,379.6 L166.3,375.8 L164.3,371.5 L162.8,367.9 L161.5,364.5 L160.3,361.2 L158.6,356.2 L157.7,352.8 L156.4,347.8 L155.6,344.5 L154.6,339.5 L154.0,336.1 L153.3,331.1 L152.7,326.1 L152.3,322.0 L151.9,317.7 L151.6,312.7 L151.4,307.7 L151.4,302.7 L151.4,297.7 L151.5,292.6 L151.6,287.6 L151.9,282.6 L152.2,277.6 L152.5,274.2 L152.9,269.2 L153.4,264.2 L154.0,259.2 L154.4,255.9 L155.1,250.8 L155.8,245.8 L156.3,242.5 L157.2,237.5 L158.1,232.4 L158.8,229.1 L159.9,224.1 L160.7,220.7 L162.0,215.7 L163.0,212.4 L164.3,208.4 L165.9,204.0 L167.3,200.7 L168.9,197.3 L170.7,194.0 L172.9,190.6 L175.4,187.3 L178.3,184.0 L180.3,182.1 L184.1,178.9 L186.5,177.3 L190.3,174.9 L194.3,172.7 L198.3,170.9 L202.3,169.2 L206.3,167.8 L210.4,166.4 L214.4,165.1 L218.4,163.9 L224.3,162.2 L228.4,161.1 L232.4,160.0 L236.8,158.9 L242.4,157.4 L246.4,156.4 L250.4,155.4 L256.4,153.9 L260.4,152.8 L264.4,151.8 L269.8,150.5 L274.5,149.3 L278.5,148.4 L283.5,147.2 L288.5,146.0 L292.5,145.0 L297.9,143.8 L302.5,142.8 L306.5,142.0 L312.5,140.8 L316.5,140.1 L322.5,139.1 L326.5,138.5 L332.6,137.7 L338.5,137.1" stroke="rgba(255,255,255,0.14)" stroke-width="1.2" fill="none" stroke-linecap="round" stroke-linejoin="round"/>
  <text x="360.4" y="364.5" font-family="'Space Mono', monospace" font-size="8" fill="rgba(255,255,255,0.18)" text-anchor="middle" transform="rotate(-55.8,360.4,364.5)">613</text>
  <path d="M326.5,157.0 L332.6,156.6 L338.6,156.4 L344.6,156.5 L350.6,156.9 L354.6,157.5 L360.6,158.7 L364.6,159.8 L368.6,161.2 L372.6,163.0 L376.6,165.2 L379.6,167.2 L382.6,169.7 L385.3,172.2 L388.2,175.6 L390.5,178.9 L392.5,182.3 L394.1,185.6 L395.4,189.0 L396.7,193.0 L397.7,197.3 L398.5,202.3 L398.8,205.7 L399.1,210.7 L399.1,215.7 L398.9,220.7 L398.6,224.1 L398.1,229.1 L397.4,234.1 L396.7,238.2 L395.8,242.5 L394.7,247.5 L393.9,250.8 L392.7,255.9 L391.8,259.2 L390.7,263.1 L389.3,267.6 L388.3,270.9 L386.6,275.9 L385.5,279.3 L384.3,282.6 L382.6,287.3 L381.3,291.0 L380.0,294.3 L378.6,297.9 L376.7,302.7 L375.3,306.0 L373.9,309.4 L372.4,312.7 L370.6,316.8 L368.7,321.1 L367.1,324.4 L365.5,327.8 L363.8,331.1 L362.1,334.4 L360.3,337.8 L358.5,341.1 L356.6,344.5 L354.6,347.9 L352.6,351.3 L350.6,354.5 L348.4,357.9 L346.1,361.2 L343.8,364.5 L341.3,367.9 L338.7,371.2 L336.6,373.9 L334.6,376.3 L331.7,379.6 L328.6,382.9 L326.5,385.0 L323.6,388.0 L320.5,390.8 L318.0,393.0 L314.5,395.8 L311.7,398.0 L308.5,400.3 L304.5,403.0 L301.7,404.7 L298.5,406.5 L294.5,408.6 L290.5,410.5 L286.5,412.2 L282.5,413.6 L278.5,414.9 L272.7,416.4 L268.4,417.2 L262.4,418.1 L258.4,418.4 L252.4,418.5 L246.4,418.1 L242.4,417.6 L236.4,416.6 L232.4,415.6 L228.4,414.3 L224.4,412.9 L220.4,411.2 L216.4,409.2 L212.4,406.9 L208.8,404.7 L206.3,402.9 L202.3,399.8 L200.2,398.0 L196.7,394.6 L194.3,392.2 L192.0,389.6 L189.2,386.3 L186.7,382.9 L184.5,379.6 L182.4,376.3 L180.5,372.9 L178.8,369.6 L177.2,366.2 L175.7,362.9 L174.3,359.2 L172.7,354.5 L171.6,351.2 L170.3,346.2 L169.5,342.8 L168.5,337.8 L167.9,334.4 L167.2,329.4 L166.7,324.4 L166.4,319.4 L166.2,316.1 L166.1,311.0 L166.1,306.0 L166.3,301.0 L166.4,297.7 L166.8,292.6 L167.3,287.6 L167.9,282.6 L168.4,279.3 L169.2,274.2 L170.2,269.2 L170.8,265.9 L172.0,260.9 L172.9,257.5 L174.2,252.5 L175.3,249.2 L176.3,245.8 L178.1,240.8 L179.5,237.5 L180.9,234.1 L182.4,230.8 L184.3,227.0 L186.3,223.3 L188.3,220.0 L190.3,217.0 L192.5,214.0 L195.1,210.7 L198.1,207.4 L200.3,205.0 L203.2,202.3 L206.3,199.6 L209.3,197.3 L212.4,195.1 L216.4,192.5 L219.4,190.6 L222.4,188.9 L226.4,186.8 L230.4,184.8 L234.4,182.9 L238.4,181.2 L242.4,179.5 L246.4,177.9 L250.4,176.3 L254.4,174.9 L258.4,173.4 L262.4,172.1 L267.0,170.6 L272.3,168.9 L276.5,167.6 L280.5,166.5 L284.5,165.3 L289.9,163.9 L294.5,162.7 L298.5,161.8 L304.2,160.5 L308.5,159.7 L313.0,158.9 L318.5,158.0 L324.5,157.2" stroke="rgba(255,255,255,0.14)" stroke-width="1.2" fill="none" stroke-linecap="round" stroke-linejoin="round"/>
  <text x="348.4" y="357.9" font-family="'Space Mono', monospace" font-size="8" fill="rgba(255,255,255,0.18)" text-anchor="middle" transform="rotate(-56.0,348.4,357.9)">660</text>
  <path d="M314.5,178.9 L320.5,178.3 L326.5,178.1 L332.6,178.3 L338.6,178.9 L342.6,179.6 L346.6,180.6 L351.4,182.3 L355.0,183.9 L358.6,186.0 L362.6,189.0 L364.6,190.8 L367.4,194.0 L369.8,197.3 L371.8,200.7 L373.3,204.0 L374.6,207.6 L375.9,212.4 L376.6,215.9 L377.2,220.7 L377.5,225.8 L377.6,230.8 L377.3,235.8 L376.9,240.8 L376.5,244.1 L375.7,249.2 L374.8,254.2 L374.1,257.5 L373.0,262.5 L372.2,265.9 L370.9,270.9 L369.9,274.2 L368.6,278.6 L367.4,282.6 L366.3,286.0 L364.6,290.8 L363.4,294.3 L362.1,297.7 L360.6,301.7 L358.9,306.0 L357.5,309.4 L356.1,312.7 L354.6,316.1 L352.6,320.5 L350.7,324.4 L349.1,327.8 L347.4,331.1 L345.6,334.4 L343.7,337.8 L341.8,341.1 L339.8,344.5 L337.8,347.8 L335.6,351.2 L333.3,354.5 L330.9,357.9 L328.5,361.0 L326.5,363.5 L324.3,366.2 L321.4,369.6 L318.5,372.6 L316.5,374.7 L313.1,377.9 L310.5,380.2 L307.3,382.9 L304.5,385.1 L300.5,388.0 L298.0,389.6 L294.5,391.7 L290.5,393.9 L286.5,395.9 L282.5,397.5 L278.5,399.0 L274.5,400.2 L269.7,401.3 L264.4,402.2 L258.4,402.8 L252.4,402.8 L246.4,402.3 L240.7,401.3 L236.4,400.3 L232.4,399.0 L228.4,397.4 L224.4,395.5 L220.4,393.3 L217.2,391.3 L214.4,389.3 L210.6,386.3 L208.3,384.2 L205.4,381.3 L202.4,377.9 L200.3,375.3 L198.3,372.6 L196.3,369.6 L194.3,366.2 L192.3,362.5 L190.3,358.3 L188.8,354.5 L187.5,351.2 L186.3,347.4 L185.1,342.8 L184.3,339.5 L183.3,334.4 L182.6,329.4 L182.2,326.1 L181.8,321.1 L181.7,316.1 L181.7,311.0 L181.9,306.0 L182.3,301.0 L182.6,297.7 L183.3,292.6 L184.1,287.6 L184.8,284.3 L185.9,279.3 L186.8,275.9 L188.2,270.9 L189.3,267.6 L190.5,264.2 L192.3,259.5 L193.9,255.9 L195.4,252.5 L197.1,249.2 L198.9,245.8 L200.8,242.5 L203.0,239.1 L205.3,235.8 L207.7,232.4 L210.4,229.2 L212.4,226.9 L215.0,224.1 L218.4,220.7 L220.4,218.9 L224.1,215.7 L226.4,213.9 L230.4,210.9 L233.0,209.0 L236.4,206.8 L240.4,204.4 L243.9,202.3 L247.0,200.7 L250.4,198.9 L254.4,196.9 L258.4,195.1 L262.4,193.3 L266.4,191.7 L270.5,190.1 L274.5,188.7 L278.5,187.3 L283.7,185.6 L288.5,184.2 L292.5,183.1 L296.5,182.1 L302.5,180.8 L306.5,180.0 L312.5,179.1" stroke="rgba(255,255,255,0.14)" stroke-width="1.2" fill="none" stroke-linecap="round" stroke-linejoin="round"/>
  <text x="337.8" y="347.8" font-family="'Space Mono', monospace" font-size="8" fill="rgba(255,255,255,0.18)" text-anchor="middle" transform="rotate(-56.9,337.8,347.8)">706</text>
  <path d="M304.5,203.9 L310.5,203.5 L316.5,203.5 L322.2,204.0 L326.5,204.9 L330.6,206.0 L334.6,207.7 L338.6,210.1 L341.6,212.4 L344.6,215.4 L346.6,218.0 L348.6,221.2 L350.6,225.5 L351.8,229.1 L352.7,232.4 L353.5,237.5 L354.0,242.5 L354.1,247.5 L353.9,252.5 L353.5,257.5 L352.8,262.5 L352.3,265.9 L351.4,270.9 L350.6,274.5 L349.4,279.3 L348.6,282.6 L347.1,287.6 L346.1,291.0 L344.6,295.7 L343.3,299.3 L342.1,302.7 L340.6,306.7 L338.8,311.0 L337.4,314.4 L335.9,317.7 L334.3,321.1 L332.6,324.6 L330.6,328.4 L328.5,332.1 L326.5,335.5 L324.5,338.8 L322.5,341.9 L320.5,344.9 L318.4,347.8 L315.9,351.2 L313.1,354.5 L310.5,357.5 L308.5,359.7 L305.3,362.9 L302.5,365.5 L299.7,367.9 L296.5,370.4 L292.9,372.9 L290.3,374.6 L286.5,376.8 L282.5,378.8 L278.5,380.5 L274.5,381.9 L270.5,383.0 L264.4,384.2 L260.4,384.6 L254.4,384.7 L250.4,384.4 L244.4,383.4 L240.4,382.3 L236.4,380.8 L232.4,379.0 L228.4,376.7 L225.3,374.6 L222.4,372.3 L219.3,369.6 L216.4,366.5 L214.4,364.1 L212.2,361.2 L210.0,357.9 L208.1,354.5 L206.3,351.0 L204.3,346.2 L203.1,342.8 L202.1,339.5 L200.9,334.4 L200.3,331.1 L199.7,326.1 L199.3,321.1 L199.1,316.1 L199.3,311.0 L199.6,306.0 L200.3,301.0 L200.8,297.7 L201.8,292.6 L202.6,289.3 L204.1,284.3 L205.2,280.9 L206.4,277.6 L208.3,272.8 L210.0,269.2 L211.7,265.9 L213.5,262.5 L215.5,259.2 L217.6,255.9 L220.0,252.5 L222.4,249.4 L224.4,246.9 L226.8,244.1 L229.9,240.8 L232.4,238.3 L235.1,235.8 L238.4,233.0 L241.1,230.8 L244.4,228.3 L248.1,225.8 L250.6,224.1 L254.4,221.7 L258.4,219.4 L262.3,217.4 L265.7,215.7 L269.3,214.0 L273.2,212.4 L277.5,210.7 L282.3,209.0 L286.5,207.7 L290.5,206.6 L294.5,205.6 L300.5,204.5 L304.5,203.9" stroke="rgba(255,255,255,0.14)" stroke-width="1.2" fill="none" stroke-linecap="round" stroke-linejoin="round"/>
  <text x="322.5" y="341.9" font-family="'Space Mono', monospace" font-size="8" fill="rgba(255,255,255,0.18)" text-anchor="middle" transform="rotate(-55.8,322.5,341.9)">753</text>
  <path d="M286.5,237.1 L292.5,236.1 L298.5,235.9 L304.5,236.6 L308.5,237.7 L312.5,239.5 L316.5,242.4 L318.5,244.4 L320.8,247.5 L322.7,250.8 L324.5,255.9 L325.2,259.2 L325.9,264.2 L326.1,269.2 L326.0,274.2 L325.5,279.3 L324.7,284.3 L324.1,287.6 L322.9,292.6 L322.0,296.0 L320.5,300.9 L319.3,304.3 L318.1,307.7 L316.5,311.5 L314.5,315.9 L312.8,319.4 L311.0,322.7 L309.1,326.1 L307.0,329.4 L304.8,332.8 L302.5,335.9 L300.5,338.4 L298.2,341.1 L295.0,344.5 L292.5,346.9 L289.4,349.5 L286.5,351.7 L282.5,354.4 L279.1,356.2 L275.5,357.9 L270.8,359.5 L266.4,360.6 L260.8,361.2 L257.8,361.2 L252.4,360.6 L248.3,359.5 L244.1,357.9 L240.4,355.9 L236.4,352.9 L234.4,351.1 L231.4,347.8 L229.0,344.5 L227.0,341.1 L225.4,337.8 L224.1,334.4 L222.6,329.4 L221.9,326.1 L221.3,321.1 L221.0,316.1 L221.2,311.0 L221.8,306.0 L222.4,302.4 L223.5,297.7 L224.4,294.3 L226.2,289.3 L227.6,286.0 L229.2,282.6 L230.9,279.3 L232.9,275.9 L235.1,272.6 L237.5,269.2 L240.2,265.9 L242.4,263.3 L244.7,260.9 L248.2,257.5 L250.4,255.6 L254.2,252.5 L256.4,250.8 L260.4,248.1 L264.2,245.8 L267.3,244.1 L270.6,242.5 L274.5,240.8 L279.0,239.1 L284.5,237.5" stroke="rgba(255,255,255,0.14)" stroke-width="1.2" fill="none" stroke-linecap="round" stroke-linejoin="round"/>
  <text x="307.0" y="329.4" font-family="'Space Mono', monospace" font-size="8" fill="rgba(255,255,255,0.18)" text-anchor="middle" transform="rotate(-56.0,307.0,329.4)">800</text>
</svg>